<svg id="Layer_1" data-name="Layer 1" xmlns="http://www.w3.org/2000/svg" xmlns:xlink="http://www.w3.org/1999/xlink" viewBox="0 0 1052.74 593.46"><defs><style>.cls-1{clip-path:url(#clip-path);}.cls-10,.cls-11,.cls-12,.cls-13,.cls-14,.cls-15,.cls-16,.cls-17,.cls-18,.cls-19,.cls-2,.cls-20,.cls-21,.cls-22,.cls-23,.cls-24,.cls-25,.cls-26,.cls-27,.cls-28,.cls-29,.cls-3,.cls-4,.cls-5,.cls-6,.cls-7,.cls-8,.cls-9{fill:none;}.cls-10,.cls-11,.cls-12,.cls-13,.cls-14,.cls-15,.cls-16,.cls-17,.cls-18,.cls-19,.cls-2,.cls-20,.cls-21,.cls-22,.cls-23,.cls-24,.cls-25,.cls-26,.cls-27,.cls-28,.cls-3,.cls-30,.cls-4,.cls-41,.cls-5,.cls-6,.cls-7,.cls-8,.cls-9{stroke:#fff;}.cls-2{stroke-width:2px;}.cls-3{stroke-width:2.04px;}.cls-4{stroke-width:2.08px;}.cls-5{stroke-width:2.12px;}.cls-6{stroke-width:2.15px;}.cls-7{stroke-width:2.19px;}.cls-8{stroke-width:2.23px;}.cls-9{stroke-width:2.27px;}.cls-10{stroke-width:2.31px;}.cls-11{stroke-width:2.35px;}.cls-12{stroke-width:2.38px;}.cls-13{stroke-width:2.42px;}.cls-14{stroke-width:2.46px;}.cls-15{stroke-width:2.5px;}.cls-16{stroke-width:2.54px;}.cls-17{stroke-width:2.58px;}.cls-18{stroke-width:2.62px;}.cls-19{stroke-width:2.65px;}.cls-20{stroke-width:2.69px;}.cls-21{stroke-width:2.73px;}.cls-22{stroke-width:2.77px;}.cls-23{stroke-width:2.81px;}.cls-24{stroke-width:2.85px;}.cls-25{stroke-width:2.88px;}.cls-26{stroke-width:2.92px;}.cls-27{stroke-width:2.96px;}.cls-28{stroke-width:3px;}.cls-30{fill:#fff;stroke-linecap:round;}.cls-30,.cls-41{stroke-width:5px;}.cls-31{fill:url(#linear-gradient);}.cls-32{fill:url(#linear-gradient-2);}.cls-33{fill:url(#linear-gradient-3);}.cls-34{fill:url(#linear-gradient-4);}.cls-35{fill:url(#linear-gradient-5);}.cls-36{fill:url(#linear-gradient-6);}.cls-37{fill:url(#linear-gradient-7);}.cls-38{fill:url(#linear-gradient-8);}.cls-39{fill:url(#linear-gradient-9);}.cls-40{fill:url(#linear-gradient-10);}</style><clipPath id="clip-path"><path d="M35.52,386.5c0-.09,0-.18,0-.27,0-97.61,213.12-176.73,476-176.73s476,79.12,476,176.73c0,.09,0,.18,0,.27Z"/></clipPath><linearGradient id="linear-gradient" x1="150.07" y1="485.24" x2="150.07" y2="431.62" gradientUnits="userSpaceOnUse"><stop offset="0" stop-opacity="0"/><stop offset="1" stop-color="#fff"/></linearGradient><linearGradient id="linear-gradient-2" x1="210.79" y1="486.16" x2="210.79" y2="431.63" xlink:href="#linear-gradient"/><linearGradient id="linear-gradient-3" x1="266.42" y1="486.5" x2="266.42" y2="431.63" xlink:href="#linear-gradient"/><linearGradient id="linear-gradient-4" x1="336.93" y1="483.94" x2="336.93" y2="431.63" xlink:href="#linear-gradient"/><linearGradient id="linear-gradient-5" x1="425.28" y1="484.7" x2="425.28" y2="431.63" xlink:href="#linear-gradient"/><linearGradient id="linear-gradient-6" x1="511.28" y1="485.49" x2="511.28" y2="431.63" xlink:href="#linear-gradient"/><linearGradient id="linear-gradient-7" x1="627.23" y1="482.17" x2="627.23" y2="431.63" xlink:href="#linear-gradient"/><linearGradient id="linear-gradient-8" x1="713.2" y1="484.8" x2="713.2" y2="431.63" xlink:href="#linear-gradient"/><linearGradient id="linear-gradient-9" x1="807.67" y1="481.21" x2="807.67" y2="431.63" xlink:href="#linear-gradient"/><linearGradient id="linear-gradient-10" x1="896.12" y1="483.29" x2="896.12" y2="431.63" xlink:href="#linear-gradient"/><symbol id="semi-circle" data-name="semi-circle" viewBox="0 0 655 328"><path d="M0,0C0,.17,0,.33,0,.5,0,181.37,146.63,328,327.5,328S655,181.37,655,.5c0-.17,0-.33,0-.5Z"/></symbol></defs><path d="M35.52,386.5c0-.09,0-.18,0-.27,0-97.61,213.12-176.73,476-176.73s476,79.12,476,176.73c0,.09,0,.18,0,.27Z"/><g class="cls-1"><path class="cls-2" d="M.51,307.36c28.5,16.83,32.06,39.27,59.37,16.83s15.53-42.07,54.66-16.83,29.46,60.95,82.38,26.27S237.73,250,299.6,295.52s76.11,73.54,129.55,67.93c104.2-10.94-4-1.71,85.48-43.74,0,0,66.66-21.66,64.12-38.42-1.91-12.63,23.75,14.41,23.75,14.41s14.44,14,22.56,16.8S635.5,327,650,353.32s58.18,38.18,73.62,38.18,24.93-2.8,32.06-19.63,21.68-44.1,21.68-44.1,3.09-15.27,16.82-17.84,24.43-19.4,43.43-2.57,16.79,33.66,32.14,35.06-6.31,14.18,30-14.65,32.06-48.15,78.14-63.73,62.7,41.24,74.58,44"/><path class="cls-3" d="M9.41,295.92c27.87,16.69,31.22,38.68,57.45,17.47s14.94-39.75,53.33-15.18a91.58,91.58,0,0,1,10.4,7.74c27.3,23.28,24.49,48.33,70.51,18.53,32-20.71,39.76-46.88,56.26-53.19,9.73-3.75,22.3-.12,45,16.19,60.83,43.7,75.12,70.95,127.06,66.36,92.33-8.15,14.63.21,66.22-32.72,4.88-3.11,10.87-6.58,18.27-10.34.23-2.09,64.63-23.56,63-40.14-1.21-12.43,23.25,13.83,23.3,14.44,0,.25,14,14,21.91,17.09S632.55,317,647.06,342.8c14.88,26.47,57.72,38.22,73.13,38.3s24.85-2.88,32-19.42c7-16.36,21.15-42.78,21.3-43s3.13-14.85,16.41-17.47,23.72-19,42.16-3.05c12.58,10.87,15.72,21.7,21.11,28a14.21,14.21,0,0,0,10.32,5.22c14.89,1.3-5.75,13.53,29.44-14.26,35.39-27.84,31.81-46.55,76.62-61.65,45-15.13,61.62,39.42,73.1,42.22"/><path class="cls-4" d="M18.32,284.49C45.56,301,48.7,322.57,73.85,302.59s14.35-37.43,52-13.53a97.76,97.76,0,0,1,10.24,7.52c27.27,22.82,24.69,47.2,69.2,18.76,30.95-19.77,38.79-44.87,55.62-51.22,9.73-3.67,22.07-.2,44.21,15.32,59.82,41.91,74.13,68.35,124.58,64.79,89.37-6.31,16.25,3.52,65.85-31.41a184.57,184.57,0,0,1,17.64-11c.46-4.19,62.6-25.46,61.92-41.86-.51-12.24,22.77,13.24,22.87,14.47,0,.5,13.48,14,21.26,17.37S629.6,307,644.12,332.28c15.27,26.58,57.26,38.27,72.64,38.41s24.84-2.92,32-19.19c6.95-15.88,20.63-41.47,20.92-41.87.16-.21,3.18-14.43,16-17.1,13-2.71,23-18.61,40.9-3.54,12.19,10.28,15.39,20.45,20.64,26.43a13.82,13.82,0,0,0,10.07,4.94c14.44,1.14-5.18,12.88,28.84-13.86,34.42-26.86,31.55-45,75.11-59.57,43.95-14.69,60.52,37.59,71.62,40.39"/><path class="cls-5" d="M27.22,273.05c26.62,16.39,29.54,37.49,53.62,18.74s13.75-35.11,50.64-11.88a100.27,100.27,0,0,1,10.08,7.31c27.3,22.3,24.89,46.06,67.9,19,29.9-18.82,37.82-42.87,55-49.23,9.73-3.61,21.84-.29,43.43,14.44,58.8,40.12,73.13,65.76,122.1,63.22,86.39-4.47,17.87,6.79,65.46-30.1a165.82,165.82,0,0,1,17-11.59c.69-6.28,60.58-27.34,60.82-43.58.19-12,22.28,12.66,22.43,14.5.06.76,13,14,20.61,17.65s10.35,15.54,24.87,40.26c15.68,26.68,56.81,38.31,72.16,38.53,15.2.19,24.79-3,31.92-19,6.86-15.4,20.11-40.16,20.55-40.75.23-.32,3.22-14,15.56-16.74,12.64-2.78,22.32-18.21,39.65-4,11.8,9.67,15.05,19.19,20.15,24.87a13.59,13.59,0,0,0,9.84,4.66c14,1-4.69,12.13,28.23-13.48,33.37-26,31.3-43.38,73.6-57.49,42.87-14.24,59.42,35.76,70.13,38.56"/><path class="cls-6" d="M36.13,261.61c26,16.25,28.69,36.91,51.7,19.38s13.15-32.79,49.3-10.23a105.74,105.74,0,0,1,9.92,7.09c27.31,21.79,25.09,44.93,66.59,19.2,28.86-17.88,36.84-40.89,54.34-47.26,9.73-3.55,21.62-.37,42.65,13.57,57.8,38.33,72.11,63.16,119.61,61.65,83.41-2.64,19.49,10,65.09-28.79A152.07,152.07,0,0,1,511.72,284c.92-8.37,58.54-29.2,59.73-45.29.87-11.81,21.78,12.08,22,14.53.09,1,12.54,14.06,20,17.93s10.33,15.89,24.84,40.06c16.09,26.79,56.35,38.37,71.67,38.65,15.12.26,24.75-3,31.88-18.74,6.77-14.93,19.59-38.85,20.17-39.64.31-.43,3.27-13.61,15.15-16.37,12.27-2.85,21.61-17.81,38.38-4.5,11.42,9.06,14.72,17.93,19.68,23.31a13.24,13.24,0,0,0,9.6,4.37c13.51.88-4.15,11.45,27.62-13.09,32.38-25,31.05-41.79,72.08-55.41,41.81-13.79,58.34,33.94,68.66,36.73"/><path class="cls-7" d="M45,250.17c25.36,16.11,27.86,36.32,49.79,20s12.55-30.47,48-8.58a109.45,109.45,0,0,1,9.76,6.87c27.34,21.28,25.3,43.8,65.29,19.42C245.63,271,253.68,249,271.51,242.62c9.74-3.49,21.41-.45,41.87,12.7,56.81,36.53,71.15,62.21,117.14,60.08,80.33-3.71,21.09,13.17,64.71-27.48A138.66,138.66,0,0,1,511,275.08c1.15-10.47,56.49-31.07,58.63-47,1.55-11.6,21.3,11.49,21.55,14.56.1,1.26,12.06,14.07,19.31,18.2,7.42,4.23,10.33,16.25,24.83,39.88,16.49,26.89,55.88,38.41,71.18,38.77,15,.33,24.69-3.09,31.83-18.53,6.67-14.45,19.06-37.53,19.79-38.52.39-.54,3.32-13.19,14.73-16,11.91-2.93,20.92-17.42,37.12-5,11,8.47,14.38,16.68,19.2,21.76a13,13,0,0,0,9.36,4.08c13.06.76-3.6,10.77,27-12.69,31.39-24,30.8-40.21,70.57-53.34,40.74-13.34,57.24,32.11,67.18,34.91"/><path class="cls-8" d="M53.94,238.74c24.73,16,27,35.72,47.86,20.65s12-28.15,46.62-6.93c3.52,2.16,6.66,4.43,9.6,6.65,27.37,20.76,25.5,42.67,64,19.65,26.76-16,34.89-36.91,53.05-43.31,9.73-3.43,21.2-.54,41.09,11.83C372,282,386.23,307.19,430.79,305.79c77.37-2.43,22.7,16.3,64.33-26.18a132.24,132.24,0,0,1,15.14-13.46c1.38-12.56,54.44-32.92,57.53-48.73C570,206.05,588.6,228.33,588.9,232c.12,1.52,11.59,14.1,18.66,18.49,7.28,4.52,10.34,16.59,24.81,39.69,16.91,27,55.43,38.45,70.69,38.88,15,.4,24.64-3.14,31.78-18.3,6.59-14,18.55-36.22,19.42-37.41.47-.64,3.37-12.78,14.31-15.62,11.55-3,20.22-17,35.86-5.48,10.67,7.87,14.05,15.42,18.73,20.2,2.17,2.22,4.87,3.58,9.12,3.8,12.6.63-3.06,10.08,26.41-12.31,30.39-23.09,30.55-38.62,69-51.26,39.67-12.89,56.15,30.29,65.7,33.08"/><path class="cls-9" d="M62.84,227.3c24.11,15.82,26.18,35.14,46,21.29s11.37-25.83,45.28-5.28c3.43,2.09,6.52,4.29,9.43,6.44,27.4,20.24,25.7,41.53,62.68,19.86,25.72-15.05,33.91-34.92,52.41-41.33,9.73-3.37,21-.63,40.31,11,54.86,32.95,69,55.33,112.16,56.94,74.38,2.78,24.28,19.38,64-24.87a126.6,126.6,0,0,1,14.51-14.08c1.61-14.65,52.37-34.78,56.44-50.45,2.88-11.14,20.32,10.33,20.66,14.62.15,1.77,11.12,14.11,18,18.76,7.14,4.82,10.34,16.94,24.78,39.5,17.34,27.1,55,38.51,70.21,39,14.88.46,24.59-3.2,31.73-18.08,6.49-13.51,18-34.91,19-36.3.55-.75,3.41-12.37,13.89-15.25,11.18-3.08,19.52-16.61,34.6-6,10.29,7.27,13.71,14.16,18.25,18.64,2.1,2.07,4.73,3.33,8.88,3.51,12.13.51-2.52,9.4,25.79-11.92,29.41-22.13,30.31-37,67.55-49.18,38.6-12.44,55,28.46,64.22,31.25"/><path class="cls-10" d="M71.75,215.86c23.48,15.68,25.3,34.51,44,21.93s10.77-23.51,43.93-3.63c3.36,2,6.4,4.15,9.28,6.22,27.43,19.72,25.9,40.4,61.37,20.09,24.67-14.12,32.93-32.94,51.77-39.36,9.72-3.31,20.79-.73,39.52,10.09,53.91,31.15,68,52.71,109.69,55.37,71.34,4.56,25.83,22.43,63.57-23.56a123.06,123.06,0,0,1,13.9-14.71c1.83-16.74,50.28-36.62,55.33-52.17,3.54-10.91,19.83,9.75,20.23,14.66.16,2,10.64,14.13,17.36,19,7,5.11,10.36,17.28,24.76,39.31,17.77,27.19,54.51,38.55,69.72,39.13,14.81.52,24.54-3.26,31.69-17.87,6.39-13,17.51-33.6,18.67-35.18.63-.85,3.46-12,13.47-14.88,10.82-3.16,18.84-16.2,33.34-6.44,9.92,6.67,13.37,12.89,17.77,17.08,2,1.93,4.6,3.09,8.65,3.22,11.67.39-2,8.73,25.18-11.52,28.42-21.18,30-35.52,66-47.1,37.51-12.07,54,26.63,62.74,29.42"/><path class="cls-11" d="M80.66,204.42C103.5,220,105.11,238.33,122.77,227s10.17-21.19,42.59-2c3.28,2,6.26,4,9.11,6,27.48,19.2,26.11,39.27,60.07,20.31,23.62-13.17,32-30.95,51.13-37.37,9.72-3.26,20.59-.84,38.74,9.22,53,29.34,66.92,50.07,107.2,53.79,68.29,6.31,27.36,25.44,63.2-22.25a120.66,120.66,0,0,1,13.27-15.33c2.06-18.84,48.19-38.48,54.23-53.89,4.19-10.69,19.34,9.16,19.79,14.68.19,2.28,10.16,14.16,16.72,19.33,6.85,5.4,10.38,17.61,24.73,39.12,18.21,27.28,54.06,38.6,69.24,39.24,14.73.59,24.47-3.31,31.64-17.64,6.29-12.56,17-32.29,18.29-34.07.71-1,3.51-11.56,13-14.51,10.47-3.24,18.16-15.8,32.08-6.93,9.55,6.08,13,11.64,17.3,15.53,2,1.79,4.46,2.84,8.4,2.93,11.21.27-1.43,8.05,24.58-11.13,27.43-20.22,29.78-33.94,64.52-45,36.44-11.63,52.87,24.81,61.26,27.59"/><path class="cls-12" d="M89.56,193c22.22,15.38,23.61,33.31,40.2,23.2s9.57-18.87,41.24-.33c3.2,1.88,6.13,3.87,9,5.78,27.51,18.67,26.31,38.14,58.76,20.54,22.57-12.23,31-29,50.49-35.4,9.72-3.2,20.4-.94,38,8.35,52.05,27.53,65.85,47.43,104.72,52.22,65.21,8,28.86,28.43,62.82-20.94a120.37,120.37,0,0,1,12.64-16c2.29-20.93,46.09-40.32,53.14-55.61,4.81-10.45,18.85,8.59,19.35,14.72.2,2.53,9.68,14.19,16.06,19.6,6.72,5.7,10.42,18,24.72,38.93,18.65,27.38,53.59,38.65,68.74,39.37,14.65.65,24.42-3.37,31.6-17.42,6.18-12.1,16.46-31,17.91-33,.79-1.06,3.56-11.16,12.64-14.14,10.1-3.32,17.47-15.39,30.82-7.41,9.18,5.49,12.69,10.38,16.81,14,1.9,1.64,4.34,2.42,8.17,2.65,10.73.62-.88,7.37,24-10.75,26.44-19.26,29.53-32.35,63-42.94,35.37-11.19,51.78,23,59.78,25.77"/><path class="cls-13" d="M98.47,181.55c21.59,15.24,22.77,32.71,38.27,23.84s9-16.55,39.91,1.32c3.12,1.81,6,3.73,8.79,5.57C213,230.42,212,249.28,242.9,233c21.53-11.28,30-27,49.84-33.42,9.72-3.14,20.23-1.05,37.18,7.48,51.15,25.72,64.78,44.77,102.24,50.65,62.14,9.75,30.33,31.39,62.44-19.63a122.57,122.57,0,0,1,12-16.58c2.52-23,44-42.18,52-57.33,5.44-10.23,18.36,8,18.91,14.74.23,2.78,9.21,14.22,15.41,19.89,6.58,6,10.46,18.28,24.7,38.74,19.11,27.46,53.13,38.69,68.26,39.48,14.57.72,24.35-3.43,31.55-17.2,6.08-11.62,15.94-29.66,17.54-31.83.86-1.18,3.6-10.77,12.21-13.78,9.75-3.4,16.81-15,29.56-7.89,8.83,4.9,12.35,9.11,16.34,12.41,1.82,1.5,4.2,2.16,7.93,2.36,10.27.54-.33,6.69,23.36-10.35,25.45-18.31,29.28-30.78,61.49-40.87,34.29-10.75,50.69,21.16,58.3,23.94"/><path class="cls-14" d="M107.37,170.11c21,15.1,21.93,32.12,36.36,24.48s8.39-14.23,38.57,3c3,1.75,5.86,3.59,8.63,5.35,27.61,17.6,26.71,35.87,56.15,21,20.48-10.35,29-25,49.2-31.45,9.72-3.09,20.05-1.17,36.4,6.61,50.26,23.89,63.69,42.1,99.75,49.08,59.05,11.42,31.78,34.34,62.07-18.32a125.8,125.8,0,0,1,11.39-17.21c2.76-25.12,41.85-44,50.94-59,6.07-10,17.87,7.42,18.47,14.78.25,3,8.73,14.25,14.77,20.16,6.43,6.31,10.5,18.61,24.67,38.56,19.57,27.54,52.68,38.74,67.77,39.6,14.5.78,24.3-3.49,31.51-17,6-11.15,15.41-28.35,17.16-30.72.94-1.28,3.66-10.38,11.79-13.41,9.4-3.49,16.15-14.56,28.3-8.38,8.48,4.32,12,7.86,15.87,10.85,1.75,1.36,4.06,1.92,7.68,2.08,9.81.45.22,6,22.76-10,24.47-17.35,29-29.19,60-38.79,33.23-10.3,49.6,19.33,56.82,22.11"/><path class="cls-15" d="M116.28,158.68c20.33,14.95,21.08,31.51,34.44,25.11s7.79-11.91,37.22,4.63c3,1.67,5.74,3.43,8.47,5.12,27.67,17.06,26.92,34.74,54.85,21.2,19.43-9.4,28-23,48.56-29.47,9.71-3,19.88-1.29,35.62,5.74,49.39,22.05,62.59,39.41,97.27,47.51,55.94,13.06,33.18,37.27,61.69-17a131.36,131.36,0,0,1,10.76-17.83c3-27.21,39.71-45.9,49.85-60.76,6.67-9.8,17.38,6.84,18,14.81.26,3.28,8.24,14.27,14.11,20.44,6.29,6.6,10.55,18.92,24.65,38.37,20,27.62,52.22,38.78,67.29,39.71,14.41.85,24.22-3.54,31.46-16.75,5.85-10.69,14.89-27,16.78-29.61,1-1.39,3.71-10,11.37-13,9-3.58,15.5-14.15,27-8.86a74.6,74.6,0,0,1,15.39,9.29c1.68,1.22,3.92,1.66,7.45,1.8,9.35.35.78,5.34,22.15-9.58,23.48-16.39,28.77-27.6,58.46-36.71,32.16-9.86,48.5,17.51,55.34,20.29"/><path class="cls-16" d="M125.18,147.24c19.71,14.81,20.25,30.92,32.53,25.75s7.19-9.59,35.88,6.28c2.88,1.6,5.6,3.29,8.31,4.9,27.72,16.52,27.12,33.61,53.54,21.43,18.38-8.46,27.05-21.07,47.92-27.49,9.7-3,19.72-1.43,34.84,4.86,48.55,20.2,61.48,36.7,94.78,45.94,52.83,14.65,34.57,40.19,61.31-15.71a139.72,139.72,0,0,1,10.14-18.45c3.22-29.31,37.57-47.78,48.75-62.49,7.29-9.58,16.89,6.26,17.59,14.84.29,3.54,7.77,14.31,13.47,20.73,6.13,6.9,10.6,19.23,24.63,38.17,20.5,27.7,51.75,38.84,66.79,39.84,14.34.92,24.16-3.61,31.42-16.53,5.74-10.23,14.37-25.73,16.41-28.5,1.09-1.49,3.75-9.61,11-12.66,8.68-3.69,14.86-13.76,25.78-9.35a71.45,71.45,0,0,1,14.91,7.73c1.6,1.08,3.78,1.62,7.21,1.51,8.89-.3,1.33,4.68,21.54-9.18,22.5-15.43,28.52-26,57-34.64,31.08-9.41,47.4,15.69,53.85,18.46"/><path class="cls-17" d="M134.09,135.8c19.08,14.67,19.4,30.32,30.61,26.39s6.59-7.27,34.53,7.93c2.81,1.53,5.48,3.15,8.15,4.69,27.78,16,27.33,32.47,52.24,21.64,17.34-7.52,26.07-19.1,47.28-25.51,9.7-2.94,19.56-1.57,34.05,4,47.73,18.32,60.38,34,92.31,44.37,49.7,16.2,35.91,43.11,60.93-14.4a146.91,146.91,0,0,1,9.52-19.08c3.44-31.4,35.41-49.66,47.64-64.2,7.9-9.38,16.4,5.67,17.15,14.87.31,3.79,7.29,14.34,12.82,21,6,7.21,10.67,19.55,24.61,38,21,27.76,51.3,38.88,66.31,40,14.26,1,24.08-3.68,31.37-16.32,5.62-9.76,13.85-24.41,16-27.38,1.18-1.6,3.8-9.23,10.53-12.29,8.33-3.79,14.24-13.36,24.52-9.84,7.49,2.57,11,4.07,14.43,6.18,1.53.93,3.65,1.38,7,1.22,8.43-.4,1.89,4,20.94-8.79,21.52-14.47,28.27-24.44,55.43-32.55,30-9,46.32,13.85,52.38,16.63"/><path class="cls-18" d="M143,124.36c18.46,14.52,18.57,29.72,28.69,27s6-4.95,33.2,9.58c2.73,1.46,5.35,3,8,4.47,27.84,15.41,27.53,31.35,50.93,21.87,16.29-6.58,25.09-17.13,46.64-23.54,9.69-2.88,19.42-1.72,33.27,3.12,46.93,16.42,59.26,31.2,89.82,42.8,46.59,17.69,37.24,46,60.55-13.09a160.33,160.33,0,0,1,8.9-19.7c3.67-33.49,33.25-51.56,46.54-65.92,8.5-9.19,15.92,5.08,16.72,14.9.33,4,6.8,14.37,12.16,21.28C584.24,154.67,589.14,167,603,185c21.48,27.81,50.84,38.92,65.82,40.07,14.18,1.05,24-3.73,31.33-16.09,5.5-9.29,13.32-23.1,15.65-26.27,1.26-1.7,3.85-8.86,10.11-11.92,8-3.9,13.64-13,23.26-10.32,7.19,2,10.62,2.8,14,4.62,1.45.79,3.51,1.14,6.73.93,8-.5,2.45,3.35,20.33-8.4,20.54-13.5,28-22.85,53.92-30.47,28.94-8.53,45.22,12,50.9,14.8"/><path class="cls-19" d="M151.9,112.93c17.82,14.37,17.73,29.11,26.77,27.66s5.41-2.63,31.86,11.23c2.64,1.39,5.21,2.86,7.83,4.25,27.91,14.85,27.72,30.22,49.62,22.09,15.24-5.63,24.1-15.16,46-21.56,9.7-2.83,19.29-1.89,32.5,2.25,46.16,14.48,58.16,28.4,87.33,41.23C477.29,219.2,472.35,249,494,188.3A177.49,177.49,0,0,1,502.25,168c3.9-35.58,31.1-53.46,45.45-67.64,9.1-9,15.42,4.51,16.27,14.93.35,4.3,6.32,14.41,11.52,21.56,5.69,7.82,10.8,20.17,24.56,37.61,22,27.87,50.38,39,65.34,40.2,14.1,1.11,23.93-3.8,31.28-15.87,5.37-8.84,12.8-21.79,15.27-25.16,1.34-1.81,3.9-8.5,9.7-11.55,7.62-4,13.05-12.6,22-10.8,6.9,1.38,10.26,1.54,13.48,3.06,1.37.65,3.37.9,6.49.65,7.5-.6,3,2.68,19.72-8,19.57-12.54,27.77-21.27,52.4-28.4,27.88-8.08,44.13,10.2,49.42,13"/><path class="cls-20" d="M160.8,101.49c17.2,14.23,16.91,28.51,24.86,28.3s4.81-.31,30.51,12.88c2.57,1.32,5.09,2.72,7.67,4,28,14.28,27.93,29.09,48.32,22.32,14.19-4.7,23.12-13.19,45.35-19.59,9.69-2.78,19.16-2.07,31.71,1.38,45.41,12.5,57.07,25.56,84.86,39.66,40.4,20.5,39.82,51.86,59.8-10.47,2.37-7.41,5.75-14,7.64-20.95,10-36.57,28.94-55.38,44.35-69.36,9.7-8.81,14.94,3.92,15.83,15,.38,4.55,5.83,14.44,10.87,21.84,5.54,8.13,10.88,20.46,24.54,37.42,22.49,27.91,49.93,39,64.85,40.31,14,1.18,23.85-3.87,31.24-15.65,5.25-8.37,12.28-20.47,14.9-24,1.41-1.93,3.93-8.15,9.27-11.19,7.26-4.14,12.57-9.81,20.74-11.29a20.39,20.39,0,0,1,13,1.51c1.3.51,3.24.66,6.25.36,7-.7,3.59,2,19.12-7.62,18.6-11.56,27.52-19.67,50.89-26.32,26.81-7.63,43,8.38,47.94,11.15"/><path class="cls-21" d="M169.71,90.05C186.28,104.14,185.8,118,192.65,119s4.21,2,29.17,14.53c2.49,1.25,5,2.57,7.51,3.82,28,13.7,28.13,27.95,47,22.53,13.15-3.75,22.14-11.22,44.71-17.6,9.68-2.74,19-2.28,30.93.5,44.68,10.46,56,22.68,82.37,38.09,37.35,21.82,41.08,54.78,59.42-9.16,2.2-7.68,5.27-14.58,7-21.58C510.52,111.31,527.57,92.83,544,79c10.31-8.62,14.45,3.34,15.4,15,.39,4.81,5.34,14.48,10.22,22.13,5.38,8.43,11,20.76,24.52,37.23,23,28,49.46,39.07,64.36,40.43,13.94,1.24,23.76-3.94,31.18-15.43,5.12-7.92,11.77-19.17,14.53-22.92,1.49-2,4-7.8,8.85-10.82,6.9-4.27,12.28-9.6,19.48-11.77,6.12-1.84,9.54-1,12.53,0a15.69,15.69,0,0,0,6,.07c6.57-.78,4.16,1.38,18.51-7.23,17.63-10.58,27.27-18.08,49.37-24.24,25.75-7.17,42,6.56,46.46,9.32"/><path class="cls-22" d="M178.61,78.61c15.95,14,15.29,27.33,21,29.58s3.61,4.33,27.82,16.18c2.42,1.18,4.83,2.43,7.35,3.6,28.13,13.11,28.34,26.82,45.71,22.76,12.1-2.81,21.15-9.27,44.07-15.63,9.68-2.69,18.91-2.5,30.15-.37,44,8.35,54.95,19.76,79.89,36.52,34.33,23.08,42.31,57.72,59-7.86,2-7.93,4.77-15.11,6.39-22.19,9.39-41.06,24.62-59.23,42.16-72.8,10.9-8.44,13.95,2.76,14.95,15,.41,5.06,4.85,14.51,9.57,22.4,5.23,8.74,11,21.05,24.5,37,23.53,28,49,39.12,63.87,40.55,13.87,1.31,23.67-4,31.14-15.2,5-7.46,11.24-17.86,14.15-21.81,1.57-2.14,4-7.46,8.44-10.45,6.53-4.41,12-9.54,18.21-12.25,5.66-2.46,9.17-2.23,12.05-1.61a18.77,18.77,0,0,0,5.78-.21c6.1-.87,4.74.73,17.9-6.84,16.67-9.6,27-16.49,47.86-22.17,24.68-6.72,40.85,4.73,45,7.49"/><path class="cls-23" d="M187.52,67.18C202.83,81,202,94,206.62,97.39c4.78,3.55,3,6.65,26.49,17.83,2.33,1.11,4.7,2.28,7.19,3.38,28.21,12.52,28.54,25.69,44.4,23,11.05-1.86,20.17-7.3,43.43-13.65,9.67-2.64,18.79-2.74,29.36-1.23,43.26,6.13,54,16.78,77.41,34.94,31.38,24.3,43.54,60.66,58.67-6.55,1.84-8.2,4.27-15.63,5.76-22.82,9-43.3,22.46-61.16,41.06-74.52,11.51-8.26,13.47,2.18,14.52,15.06.43,5.3,4.35,14.54,8.91,22.68,5.07,9,11.14,21.34,24.48,36.85,24.07,28,48.55,39.16,63.39,40.67,13.79,1.37,23.56-4.1,31.09-15,4.85-7,10.72-16.55,13.77-20.7,1.65-2.24,4-7.12,8-10.08,6.15-4.57,10.9-11.47,17-12.73,5.9-1.23,8.78-3.47,11.57-3.18a23.78,23.78,0,0,0,5.53-.49c5.65-.95,5.33.1,17.3-6.45,15.72-8.61,26.78-14.89,46.34-20.08,23.61-6.27,39.76,2.9,43.5,5.66"/><path class="cls-24" d="M196.42,55.74C211.11,69.4,210.06,82,213.61,86.59c3.71,4.83,2.43,9,25.15,19.48,2.25,1.05,4.57,2.13,7,3.16,28.29,11.92,28.74,24.56,43.1,23.21,10-.93,19.18-5.34,42.79-11.68a78.89,78.89,0,0,1,28.58-2.1c42.55,3.83,53,13.79,74.92,33.37,28.5,25.47,44.75,63.61,58.29-5.24,1.67-8.46,3.79-16.14,5.15-23.45,8.48-45.54,20.3-63.09,39.95-76.23,12.12-8.1,13,1.59,14.08,15.08.45,5.56,3.87,14.58,8.27,23,4.91,9.35,11.23,21.62,24.45,36.67,24.62,28,48.09,39.21,62.9,40.79,13.71,1.43,23.46-4.19,31-14.77,4.71-6.56,10.2-15.23,13.4-19.58,1.72-2.35,4-6.8,7.59-9.71,5.77-4.73,10.35-11.32,15.7-13.22,5.63-2,8.44-5.18,11.1-4.73.94.16,2.68-.27,5.29-.78,5.18-1,5.92-.52,16.69-6.06,14.78-7.6,26.53-13.29,44.83-18,22.55-5.81,38.67,1.07,42,3.83"/><path class="cls-25" d="M205.33,44.3C219.39,57.81,218.11,70,220.6,75.79c2.61,6.11,1.83,11.29,23.8,21.13,2.18,1,4.45,2,6.87,3,28.37,11.29,28.94,23.42,41.79,23.43,9,0,18.2-3.39,42.14-9.71,9.67-2.54,18.57-2.27,27.81-3,41.72-3.19,52.15,10.76,72.44,31.8,25.69,26.63,45.93,66.58,57.91-3.93,1.48-8.72,3.28-16.65,4.52-24.07,7.94-47.78,18.14-65,38.86-78,12.71-7.92,12.48,1,13.63,15.12.48,5.81,3.38,14.61,7.62,23.24a149.89,149.89,0,0,0,24.44,36.48c25.17,28,47.63,39.25,62.41,40.9,13.63,1.51,23.34-4.28,31-14.54,4.56-6.11,9.67-13.92,13-18.47,1.8-2.45,4.07-6.48,7.18-9.33,5.35-4.93,9.75-11.22,14.43-13.71,5.32-2.83,8-5.89,10.62-6.29.88-.13,2.55-.49,5.06-1.07,4.72-1.08,6.51-1.12,16.08-5.67,13.84-6.57,26.28-11.69,43.32-15.92,21.48-5.34,37.57-.75,40.53,2"/><path class="cls-26" d="M214.23,32.87C227.67,46.23,226.15,58,227.59,65c1.51,7.38,1.23,13.61,22.46,22.78,2.1.91,4.32,1.83,6.7,2.73,28.46,10.67,29.15,22.29,40.49,23.65,7.91,1,17.2-1.47,41.5-7.73,9.65-2.51,18.46-2.87,27-3.84,40.81-4.62,51.35,7.72,70,30.23,23,27.79,47.11,69.55,57.53-2.62,1.3-9,2.79-17.15,3.9-24.7,7.33-50,16-67,37.76-79.67,13.33-7.76,12,.43,13.2,15.15.49,6.06,2.88,14.64,7,23.51a135.1,135.1,0,0,0,24.41,36.29c25.74,28,47.17,39.31,61.93,41,13.55,1.57,23.21-4.38,31-14.32,4.42-5.68,9.15-12.61,12.64-17.36,1.89-2.56,4.07-6.16,6.76-9C696.69,96,700.85,90.05,705,87c4.91-3.7,7.67-7.08,10.14-7.85.79-.25,2.42-.71,4.81-1.35a87.66,87.66,0,0,0,15.48-5.28,252.24,252.24,0,0,1,41.8-13.85c20.42-4.87,36.48-2.57,39.06.18"/><path class="cls-27" d="M223.14,21.43c12.8,13.22,11.05,24.52,11.44,32.76.4,8.63.64,15.93,21.11,24.43,2,.84,4.19,1.69,6.55,2.51,28.54,10,29.35,21.16,39.18,23.88,6.86,1.89,16.22.5,40.86-5.75a174,174,0,0,1,26.24-4.72c40.2-4,50.64,4.68,67.48,28.66,20.34,29,48.27,72.54,57.15-1.31,1.11-9.25,2.29-17.64,3.27-25.32,6.67-52.22,13.84-68.95,36.66-81.4C547,7.58,544.59,15,545.84,30.35a77.06,77.06,0,0,0,6.32,23.8c4.41,10.27,11.52,22.44,24.39,36.1,26.33,27.93,46.71,39.35,61.44,41.14,13.47,1.64,23.08-4.49,30.91-14.1,4.26-5.23,8.63-11.29,12.26-16.24,2-2.66,4.06-5.85,6.34-8.59,4.45-5.34,8.34-11,11.92-14.68,4.43-4.56,7.34-8.25,9.66-9.4a37.81,37.81,0,0,1,4.58-1.64c3.81-1.19,7.74-2.28,14.87-4.89a338.91,338.91,0,0,1,40.29-11.77c19.36-4.36,35.39-4.4,37.57-1.65"/><path class="cls-28" d="M232,10c26.13,28.06-12.94,45.85,35.68,61.77s17.33,35.52,78.1,20.33,72.64-8.72,90.45,21.5,49.44,75.53,56.78,0S504,18.49,531.26,4.53s-9.09,21.91,42.35,75.2,75.2,46.8,91.82,27.38,31.37-45,37.65-49.47,89.23-26.07,93.47-19.59"/></g><polygon class="cls-29" points="731 396.2 726.55 386.5 699.87 386.5 695.37 396.2 731 396.2"/><path class="cls-29" d="M517.56,386.58c1.35,0,2.61,0,3.8-.08H489.29v.08Z"/><polygon class="cls-29" points="344.4 386.5 326.2 386.5 335.36 406.89 344.4 386.5"/><use width="655" height="328" transform="matrix(0.63, 0, 0, -0.63, 307.81, 386.5)" xlink:href="#semi-circle"/><use width="655" height="328" transform="matrix(-1.45, 0, 0, 0.54, 987.51, 386.5)" xlink:href="#semi-circle"/><path class="cls-30" d="M134.63,388.25l26.48,2c8,.59,11,2.37,11,9,0,6.89-3.21,9.15-12.24,9.15H136.65c-7.73,0-10.93-2.61-11.64-9.5-.12-1.9-1.07-3-3-3H111.47c-1.91,0-3,1.07-2.86,3.09.84,16.74,9.15,25.18,28,25.18H160c20.79,0,28.51-8.79,28.51-24.83,0-5.33-.89-9.58-2.8-12.91h-62A57.26,57.26,0,0,0,134.63,388.25Z"/><path class="cls-30" d="M201.14,421.27a2.69,2.69,0,0,0,3,3h10.45a2.69,2.69,0,0,0,3-3V386.5H201.14Z"/><path class="cls-30" d="M232.5,421.27a2.69,2.69,0,0,0,3,3h62.11a2.69,2.69,0,0,0,3-3v-9.86a2.69,2.69,0,0,0-3-3H249V386.5H232.5Z"/><path class="cls-30" d="M335.36,406.89,326.2,386.5H308.59l16,35.48a3.46,3.46,0,0,0,3.44,2.26h14.49a3.47,3.47,0,0,0,3.45-2.26l15.9-35.48H344.4Z"/><path class="cls-30" d="M390,421.27a2.69,2.69,0,0,0,3,3h65a2.69,2.69,0,0,0,3-3v-9.86a2.69,2.69,0,0,0-3-3H406.38V389.08h33.38a2.64,2.64,0,0,0,2.94-2.58H390Z"/><path class="cls-30" d="M517.56,386.58H489.29v-.08H472.78v34.77a2.69,2.69,0,0,0,3,3h10.57a2.69,2.69,0,0,0,3-3v-19h29.22l12.94,20.07a4,4,0,0,0,3.57,1.91h12.35c2.38,0,3.33-1.55,1.9-3.57L535.14,400.6c8-2.4,12.82-7.22,15.27-14.1h-29C520.17,386.56,518.91,386.58,517.56,386.58Z"/><path class="cls-30" d="M583.52,421.27a2.69,2.69,0,0,0,3,3h62.12a2.69,2.69,0,0,0,3-3v-9.86a2.69,2.69,0,0,0-3-3H600V386.5H583.52Z"/><path class="cls-30" d="M729,396.2H693.36l4.51-9.7H680.22l-16.55,34.29c-.95,2,0,3.45,2.26,3.45h12a3.79,3.79,0,0,0,3.57-2.26l5.7-12.23h48L740.76,422a3.62,3.62,0,0,0,3.56,2.26h12c2.25,0,3.2-1.43,2.25-3.45L742.08,386.5H724.55Z"/><path class="cls-31" d="M143.57,479.49c10.11-1.29,14.79-1.65,24.23-2.4,7.11-.54,3-2.11,7.12-11.23,4.27-9.46-3.12-12.55-12.22-12.55H139.26c-7.76,0-7.21,3.58-11.76,13-1.17,2.61-2,4.08-3.92,4.08H113c-1.9,0-3.12-1.85-1.82-4.24,4.72-8.66,4.25-15.22-4.47-19.17,6.17-12.26,21.37-15.38,31.47-15.38h23.4c9.38-.61,36.11,21.68,29.84,34.06-3.49,6.9,5.15,10.77.71,19.55-20-.71-39.93-1.37-59.91-1.73A26.25,26.25,0,0,1,143.57,479.49Z"/><path class="cls-32" d="M201.09,435.7c1.75-2.6,2.66-4.07,4.56-4.07H216.1c1.9,0,3.14,1.47,1.48,4.07q-7.35,15.8,5.73,23.86-8.24,12.21-1,26.6c-6.23-.14-9.34-.23-15.57-.43q-8.32-13.77.05-26.17Q193.36,451.57,201.09,435.7Z"/><path class="cls-33" d="M232.63,435.7c1.58-2.6,2.47-4.07,4.37-4.07h62.12c1.9,0,3.13,1.47,1.8,4.07-2.74,5.42-6.72,8.12-.91,13.53,2.8,2.61,3.51,4.08,1.61,4.08H252.71c2.52,12.74-5,20.2-.42,33.18-6.31,0-9.45,0-15.74-.07q-6.28-14.82,1.82-26.86Q225.64,451.42,232.63,435.7Z"/><path class="cls-34" d="M341.2,455.42c3.4,11.2-9.75,16.41-13.34,27-7.11.48-10.72.92-17.7,1.56q2.7-15.92,12.75-24.87-10.21-13.17,2.46-24.34c1.61-2.12,2.5-3.1,4.16-3.1H344a2.54,2.54,0,0,1,2.72,3.1q-1.51,19.27,13.48,24.34-3.81,12.65,3.49,22.34c-7-.06-10.5,0-17.51.13C342.34,472.05,351.88,466.62,341.2,455.42Z"/><path class="cls-35" d="M390.22,435.7c1.47-2.6,2.38-4.07,4.28-4.07h65c1.9,0,3.12,1.47,1.41,4.07-3.55,5.42-8.28,8.12-1.61,13.53,3.22,2.61,4.2,4.08,2.31,4.08H410.23c11.74,10.62-2.34,16-2,26.2q16.65.62,33.32,1.21c1.75.06,2.81,1.49,3,4-17.54-.8-35.07-1.76-52.61-2.55q-2.71-12.93,4.28-22.59Q383.77,451.44,390.22,435.7Z"/><path class="cls-36" d="M519.1,483.51c-9.36.94-18.78,1.48-28.17,1.68v.13c-6.58.17-9.87.19-16.45.16q-3-14.82,4.5-25.92-13.89-7.63-6.27-23.86c1.75-2.6,2.67-4.07,4.57-4.07h10.57c1.9,0,3.12,1.47,1.34,4.07-7.14,10.43,10.7,15.65,5.36,26.08h29.22c10.81-11-2.46-16.52,8.48-27.54,1.77-1.8,2.75-2.61,4.3-2.61h12.35c2.37,0,3.22,2.12-.37,4.89-14.24,11,2.11,16.37-9.52,27.49,6.15,3.3,10.6,9.48,13.52,17.33-9.86.26-19.76.88-29.6,1.89C521.72,483.28,520.45,483.38,519.1,483.51Z"/><path class="cls-37" d="M594.29,435.7c2-2.6,2.84-4.07,4.74-4.07h62.12c1.9,0,3.17,1.47,1,4.07-4.61,5.42-9.94,8.22-2.77,13.38,3.46,2.49,4.12,4,2.25,4l-47.72.09c13,12.06-1.21,18.15-.24,29-6.61-.28-9.92-.42-16.55-.63A33.08,33.08,0,0,1,599,459.33Q586.26,450.86,594.29,435.7Z"/><path class="cls-38" d="M732.52,470.09H696.89c2.08,5.43,3,8.77,4.92,14.57-7,.16-10.45.17-17.43.12q-4.73-12.51-8.85-25.4-11.4-6.67-10.93-23c1.6-2.77,2.61-4.73,4.87-4.73h12c1.67,0,3,1.14,2.28,3.1-2.69,6.71-5.9,10,5,16.5,16,0,32-.1,48,0-6.49-6.45-1.08-9.75,6.21-16.46,2.3-2.12,3.21-3.1,4.87-3.1h12c2.26,0,3.13,2-.41,4.73-8.39,14.86-6.4,28.9-13.85,45.8-7,.37-10.51.6-17.51,1.14C729.86,477.88,731,475.54,732.52,470.09Z"/><path class="cls-39" d="M769.21,435.7c2.23-2.6,3.12-4.07,5-4.07H784.8c1.9,0,3.15,1.47,1,4.07-2.78,15.15,4.34,26.41,2,41.48,6.28,0,9.41,0,15.68,0a103.08,103.08,0,0,1,17.65-21q-12.42-16.84,9.57-22.3c1.77-1.63,2.75-2.28,4.29-2.28h13c2.49,0,3.13,2.28-.72,5.05q-11,7.85-8.53,23a143.69,143.69,0,0,0-17.81,21.46c-16.53-.29-33.07-.31-49.6,0q-.06-11.07.34-22.13Q760.68,449.27,769.21,435.7Z"/><path class="cls-40" d="M911.17,479.76c1.76,0,2.8,1.29,2.94,3.53-17.58-.27-35.15-.7-52.73-1.17q-2.18-13.25,5.09-22.77-13.47-7.41-6.65-23.65c1.79-2.6,2.66-4.07,4.56-4.07h65c1.9,0,3.12,1.47,1.56,4.07-3.25,5.42-8.55,8.12-.46,13.53,3.89,2.61,5.32,4.07,3.44,4.07l-52.15-.1c14,10.64-3.94,16.13-4,26.05Q894.47,479.55,911.17,479.76Z"/><path class="cls-41" d="M109.09,365.2a30.48,30.48,0,0,0,1.42,10v-20.3A33.4,33.4,0,0,0,109.09,365.2Z"/><path class="cls-41" d="M162.89,376.13l-26.48-2c-8-.59-11-2.25-11-8.79,0-7,3.21-9.14,12.35-9.14h21.5c7.6,0,10.81,2.61,11.52,9.5.12,1.9,1.07,3,3,3h10.69a2.6,2.6,0,0,0,2.85-3.09c-.83-16.75-9.26-25.18-28-25.18H137.48c-15.7,0-23.92,5.07-27,14.54v20.3c2,5.81,6.26,9.32,13.28,11.28h62C182.11,380.11,174.76,377.07,162.89,376.13Z"/><path class="cls-41" d="M214.56,340.38H204.11a2.69,2.69,0,0,0-3,3V386.5h16.39V343.35A2.69,2.69,0,0,0,214.56,340.38Z"/><path class="cls-41" d="M246,340.38H235.47a2.69,2.69,0,0,0-3,3V386.5H249V343.35A2.69,2.69,0,0,0,246,340.38Z"/><path class="cls-41" d="M378.71,340.38h-11.4a3.45,3.45,0,0,0-3.45,2.26L344.4,386.5h17.43L381,343.83C381.92,341.69,381,340.38,378.71,340.38Z"/><path class="cls-41" d="M306.49,342.64a3.45,3.45,0,0,0-3.44-2.26h-11.4c-2.26,0-3.21,1.31-2.26,3.45l19.2,42.67H326.2Z"/><path class="cls-41" d="M442.73,377.44a2.69,2.69,0,0,0-3-3H406.38V356.18h51.55a2.69,2.69,0,0,0,3-3v-9.86a2.69,2.69,0,0,0-3-3H393a2.69,2.69,0,0,0-3,3V386.5H442.7c0-.13,0-.25,0-.39Z"/><path class="cls-41" d="M552.48,370.67c0-20.07-9.27-30.29-33.62-30.29H475.75a2.69,2.69,0,0,0-3,3V386.5h16.51V356.18h28.27c12.94,0,18.29,2.25,18.29,14.61v1.54c0,10.83-4.47,13.68-14.49,14.17h29a42,42,0,0,0,2.07-14.05Z"/><path class="cls-41" d="M597.06,340.38H586.49a2.69,2.69,0,0,0-3,3V386.5H600V343.35A2.69,2.69,0,0,0,597.06,340.38Z"/><path class="cls-41" d="M717.48,340.38H704.89a3.51,3.51,0,0,0-3.45,2.14l-21.22,44h17.65l13.43-28.9,13.25,28.9h17.53l-21.16-44A3.51,3.51,0,0,0,717.48,340.38Z"/><path class="cls-30" d="M769.72,421.27a2.69,2.69,0,0,0,3,3h10.57a2.69,2.69,0,0,0,3-3V389.91h15.68l27.79,32.66a4.35,4.35,0,0,0,3.68,1.67h13c2.49,0,3.32-1.67,1.66-3.69L819.31,386.5H769.72Z"/><path class="cls-41" d="M848,344.06c1.66-2,.83-3.68-1.66-3.68h-13A4.37,4.37,0,0,0,829.7,342l-27.79,33.14H786.23V343.35a2.69,2.69,0,0,0-3-3H772.69a2.69,2.69,0,0,0-3,3V386.5h49.59l-3.63-4.31Z"/><path class="cls-30" d="M909.63,389.08a2.65,2.65,0,0,0,3-2.58H859.87v34.77a2.69,2.69,0,0,0,3,3h65a2.69,2.69,0,0,0,3-3v-9.86a2.69,2.69,0,0,0-3-3H876.26V389.08Z"/><path class="cls-41" d="M912.6,386.11v-8.67a2.69,2.69,0,0,0-3-3H876.26V356.18h51.55a2.69,2.69,0,0,0,3-3v-9.86a2.69,2.69,0,0,0-3-3h-65a2.69,2.69,0,0,0-3,3V386.5h52.71C912.59,386.37,912.6,386.25,912.6,386.11Z"/></svg>