<svg id="Layer_1" data-name="Layer 1" xmlns="http://www.w3.org/2000/svg" xmlns:xlink="http://www.w3.org/1999/xlink" viewBox="0 0 959 391"><defs><style>.cls-1{clip-path:url(#clip-path);}.cls-10,.cls-11,.cls-12,.cls-13,.cls-14,.cls-15,.cls-16,.cls-17,.cls-18,.cls-19,.cls-2,.cls-20,.cls-21,.cls-22,.cls-23,.cls-24,.cls-25,.cls-26,.cls-3,.cls-4,.cls-5,.cls-6,.cls-7,.cls-8,.cls-9{fill:none;}.cls-10,.cls-11,.cls-12,.cls-13,.cls-14,.cls-15,.cls-16,.cls-17,.cls-18,.cls-19,.cls-2,.cls-20,.cls-21,.cls-22,.cls-23,.cls-24,.cls-25,.cls-27,.cls-3,.cls-38,.cls-4,.cls-5,.cls-6,.cls-7,.cls-8,.cls-9{stroke:#fff;}.cls-2{stroke-width:2px;}.cls-3{stroke-width:2.04px;}.cls-4{stroke-width:2.08px;}.cls-5{stroke-width:2.12px;}.cls-6{stroke-width:2.15px;}.cls-7{stroke-width:2.19px;}.cls-8{stroke-width:2.23px;}.cls-9{stroke-width:2.27px;}.cls-10{stroke-width:2.31px;}.cls-11{stroke-width:2.35px;}.cls-12{stroke-width:2.38px;}.cls-13{stroke-width:2.42px;}.cls-14{stroke-width:2.46px;}.cls-15{stroke-width:2.5px;}.cls-16{stroke-width:2.54px;}.cls-17{stroke-width:2.58px;}.cls-18{stroke-width:2.62px;}.cls-19{stroke-width:2.65px;}.cls-20{stroke-width:2.69px;}.cls-21{stroke-width:2.73px;}.cls-22{stroke-width:2.77px;}.cls-23{stroke-width:2.81px;}.cls-24{stroke-width:2.85px;}.cls-25{stroke-width:2.88px;}.cls-27{fill:#fff;stroke-linecap:round;}.cls-27,.cls-38{stroke-width:5px;}.cls-28{fill:url(#linear-gradient);}.cls-29{fill:url(#linear-gradient-2);}.cls-30{fill:url(#linear-gradient-3);}.cls-31{fill:url(#linear-gradient-4);}.cls-32{fill:url(#linear-gradient-5);}.cls-33{fill:url(#linear-gradient-6);}.cls-34{fill:url(#linear-gradient-7);}.cls-35{fill:url(#linear-gradient-8);}.cls-36{fill:url(#linear-gradient-9);}.cls-37{fill:url(#linear-gradient-10);}</style><clipPath id="clip-path"><path d="M4,209c0-.09,0-.18,0-.27C4,111.12,217.12,32,480,32s476,79.12,476,176.73c0,.09,0,.18,0,.27Z"/></clipPath><linearGradient id="linear-gradient" x1="118.56" y1="307.74" x2="118.56" y2="254.12" gradientUnits="userSpaceOnUse"><stop offset="0" stop-opacity="0"/><stop offset="1" stop-color="#fff"/></linearGradient><linearGradient id="linear-gradient-2" x1="179.28" y1="308.66" x2="179.28" y2="254.13" xlink:href="#linear-gradient"/><linearGradient id="linear-gradient-3" x1="234.91" y1="309" x2="234.91" y2="254.13" xlink:href="#linear-gradient"/><linearGradient id="linear-gradient-4" x1="305.42" y1="306.44" x2="305.42" y2="254.13" xlink:href="#linear-gradient"/><linearGradient id="linear-gradient-5" x1="393.77" y1="307.2" x2="393.77" y2="254.13" xlink:href="#linear-gradient"/><linearGradient id="linear-gradient-6" x1="479.77" y1="307.99" x2="479.77" y2="254.13" xlink:href="#linear-gradient"/><linearGradient id="linear-gradient-7" x1="595.72" y1="304.67" x2="595.72" y2="254.13" xlink:href="#linear-gradient"/><linearGradient id="linear-gradient-8" x1="681.69" y1="307.3" x2="681.69" y2="254.13" xlink:href="#linear-gradient"/><linearGradient id="linear-gradient-9" x1="776.16" y1="303.71" x2="776.16" y2="254.13" xlink:href="#linear-gradient"/><linearGradient id="linear-gradient-10" x1="864.61" y1="305.79" x2="864.61" y2="254.13" xlink:href="#linear-gradient"/><symbol id="semi-circle" data-name="semi-circle" viewBox="0 0 655 328"><path d="M0,0C0,.17,0,.33,0,.5,0,181.37,146.63,328,327.5,328S655,181.37,655,.5c0-.17,0-.33,0-.5Z"/></symbol></defs><path d="M4,209c0-.09,0-.18,0-.27C4,111.12,217.12,32,480,32s476,79.12,476,176.73c0,.09,0,.18,0,.27Z"/><g class="cls-1"><path class="cls-2" d="M-31,129.86c28.5,16.83,32.06,39.27,59.37,16.83S43.9,104.62,83,129.86s29.45,60.95,82.38,26.27S206.22,72.52,268.09,118,344.21,191.56,397.64,186c104.21-10.94-4-1.71,85.49-43.74,0,0,66.65-21.66,64.11-38.42C545.33,91.16,571,118.2,571,118.2s14.44,14,22.56,16.8,10.45,14.46,24.94,40.82S676.67,214,692.1,214s24.94-2.8,32.06-19.63,21.68-44.1,21.68-44.1,3.09-15.27,16.83-17.84,24.42-19.4,43.42-2.57,16.79,33.66,32.14,35.06-6.31,14.18,30-14.65,32.06-48.15,78.14-63.73,62.71,41.24,74.58,44.05"/><path class="cls-3" d="M-22.09,118.42C5.77,135.11,9.12,157.1,35.36,135.89s14.93-39.75,53.32-15.18a91.58,91.58,0,0,1,10.4,7.74c27.3,23.28,24.49,48.33,70.52,18.53,32-20.71,39.75-46.88,56.25-53.19,9.73-3.75,22.3-.12,45,16.19,60.83,43.7,75.12,71,127.06,66.36,92.33-8.15,14.63.21,66.22-32.72C469,140.51,475,137,482.4,133.28c.23-2.09,64.63-23.56,63-40.14-1.21-12.43,23.25,13.83,23.3,14.44,0,.25,14,14,21.91,17.09S601,139.49,615.55,165.3c14.88,26.47,57.72,38.22,73.13,38.3s24.85-2.88,32-19.42c7-16.36,21.16-42.78,21.3-43s3.14-14.85,16.41-17.47,23.72-19,42.16-3c12.58,10.87,15.72,21.7,21.11,28A14.21,14.21,0,0,0,832,153.89c14.89,1.3-5.75,13.53,29.44-14.26,35.39-27.84,31.81-46.55,76.63-61.65,45-15.13,61.61,39.42,73.1,42.22"/><path class="cls-4" d="M-13.19,107c27.24,16.53,30.38,38.08,55.53,18.1s14.35-37.43,52-13.53a96.71,96.71,0,0,1,10.24,7.52c27.27,22.82,24.69,47.2,69.21,18.76,30.94-19.77,38.78-44.87,55.61-51.22,9.73-3.67,22.07-.2,44.21,15.32,59.82,41.91,74.13,68.35,124.58,64.79,89.37-6.31,16.25,3.52,65.85-31.41a184.57,184.57,0,0,1,17.64-11c.46-4.19,62.61-25.46,61.92-41.86-.51-12.24,22.77,13.24,22.87,14.47,0,.5,13.49,14,21.26,17.37s10.37,15.18,24.89,40.44c15.28,26.58,57.26,38.27,72.64,38.41s24.84-2.92,32-19.19c6.95-15.88,20.63-41.47,20.92-41.87.16-.21,3.18-14.43,16-17.1,13-2.71,23-18.61,40.9-3.54,12.19,10.28,15.39,20.45,20.64,26.43a13.82,13.82,0,0,0,10.08,4.94c14.43,1.14-5.19,12.88,28.83-13.86,34.42-26.86,31.56-45,75.11-59.57,43.95-14.69,60.52,37.59,71.62,40.39"/><path class="cls-5" d="M-4.28,95.55C22.33,111.94,25.25,133,49.33,114.29S63.08,79.18,100,102.41a99.14,99.14,0,0,1,10.08,7.31c27.3,22.3,24.89,46.06,67.91,19,29.9-18.82,37.81-42.87,55-49.23,9.73-3.61,21.84-.29,43.43,14.44,58.8,40.12,73.13,65.76,122.1,63.22,86.39-4.47,17.87,6.79,65.46-30.1a168.06,168.06,0,0,1,17-11.59c.69-6.28,60.58-27.34,60.82-43.58.19-12,22.28,12.66,22.43,14.5.06.76,13,14,20.61,17.65s10.35,15.54,24.87,40.26c15.68,26.68,56.81,38.31,72.16,38.53,15.2.19,24.79-3,31.92-19,6.86-15.4,20.11-40.16,20.55-40.75.23-.32,3.22-14,15.57-16.74,12.63-2.78,22.31-18.21,39.64-4,11.8,9.67,15,19.19,20.15,24.87a13.59,13.59,0,0,0,9.84,4.66c14,1-4.69,12.13,28.23-13.48C881.1,92.4,879,75,921.33,60.87c42.87-14.24,59.42,35.76,70.14,38.56"/><path class="cls-6" d="M4.62,84.11c26,16.25,28.69,36.91,51.7,19.38s13.15-32.79,49.3-10.23a105.74,105.74,0,0,1,9.92,7.09c27.31,21.79,25.09,44.93,66.6,19.2C211,101.67,219,78.66,236.47,72.29c9.73-3.55,21.62-.37,42.65,13.57,57.8,38.33,72.11,63.16,119.61,61.65,83.41-2.64,19.49,10,65.09-28.79a152.07,152.07,0,0,1,16.39-12.22c.92-8.37,58.54-29.2,59.73-45.29.87-11.81,21.79,12.08,22,14.53.08,1,12.53,14.06,20,17.93s10.33,15.89,24.84,40.06c16.09,26.79,56.35,38.37,71.67,38.65,15.12.26,24.75-3,31.88-18.74,6.77-14.93,19.59-38.85,20.17-39.64.31-.43,3.27-13.61,15.15-16.37,12.27-2.85,21.61-17.81,38.38-4.5,11.42,9.06,14.72,17.93,19.68,23.31a13.26,13.26,0,0,0,9.6,4.37c13.51.88-4.15,11.45,27.62-13.09,32.38-25,31-41.79,72.08-55.41C954.77,38.52,971.3,86.25,981.62,89"/><path class="cls-7" d="M13.53,72.67c25.35,16.11,27.85,36.32,49.78,20s12.55-30.47,48-8.58A110.71,110.71,0,0,1,121,91c27.34,21.28,25.3,43.8,65.3,19.42,27.8-16.94,35.86-38.89,53.69-45.28,9.73-3.49,21.4-.45,41.86,12.7C338.68,114.35,353,140,399,137.9c80.33-3.71,21.1,13.17,64.71-27.48a138.66,138.66,0,0,1,15.76-12.84c1.15-10.47,56.5-31.07,58.63-47,1.55-11.6,21.3,11.49,21.55,14.56.1,1.26,12.06,14.07,19.31,18.2,7.42,4.23,10.33,16.25,24.83,39.88C620.29,150.1,659.68,161.62,675,162c15,.33,24.69-3.09,31.83-18.53,6.68-14.45,19.07-37.53,19.79-38.52.39-.54,3.32-13.19,14.73-16,11.91-2.93,20.92-17.42,37.12-5,11,8.47,14.39,16.68,19.21,21.76a12.92,12.92,0,0,0,9.36,4.08c13.05.76-3.61,10.77,27-12.69,31.39-24,30.8-40.21,70.57-53.34,40.74-13.34,57.24,32.11,67.18,34.91"/><path class="cls-8" d="M22.43,61.24c24.73,16,27,35.72,47.87,20.65s12-28.15,46.61-6.93c3.52,2.16,6.66,4.43,9.6,6.65,27.37,20.76,25.5,42.67,64,19.65,26.75-16,34.88-36.91,53-43.31,9.73-3.43,21.2-.54,41.09,11.83,55.83,34.74,70.09,59.91,114.65,58.51,77.37-2.43,22.7,16.3,64.33-26.18a132.24,132.24,0,0,1,15.14-13.46c1.38-12.56,54.44-32.92,57.53-48.73,2.23-11.37,20.81,10.91,21.11,14.59C557.52,56,569,68.61,576.06,73c7.27,4.52,10.33,16.59,24.8,39.69,16.91,27,55.43,38.45,70.69,38.88,15,.4,24.64-3.14,31.79-18.3,6.58-14,18.54-36.22,19.42-37.41.47-.64,3.36-12.78,14.3-15.62,11.55-3,20.22-17,35.87-5.48,10.66,7.87,14,15.42,18.72,20.2,2.17,2.22,4.87,3.58,9.12,3.8,12.6.63-3.06,10.08,26.41-12.31,30.39-23.09,30.55-38.62,69.05-51.26,39.67-12.89,56.15,30.29,65.7,33.08"/><path class="cls-9" d="M31.34,49.8c24.1,15.82,26.17,35.14,45.94,21.29s11.37-25.83,45.28-5.28c3.43,2.09,6.53,4.29,9.43,6.44,27.4,20.24,25.71,41.53,62.69,19.86,25.71-15,33.9-34.92,52.4-41.33,9.73-3.37,21-.63,40.31,11,54.86,32.95,69,55.33,112.16,56.94,74.38,2.78,24.28,19.38,64-24.87A125.93,125.93,0,0,1,478,79.73c1.6-14.65,52.37-34.78,56.43-50.45,2.88-11.14,20.32,10.33,20.67,14.62.14,1.77,11.11,14.11,18,18.76,7.14,4.82,10.34,16.94,24.78,39.5,17.34,27.1,55,38.51,70.21,39,14.88.46,24.59-3.2,31.74-18.08,6.48-13.51,18-34.91,19-36.3.55-.75,3.41-12.37,13.89-15.25,11.18-3.08,19.53-16.61,34.6-6,10.29,7.27,13.71,14.16,18.25,18.64,2.1,2.07,4.73,3.33,8.88,3.51,12.13.51-2.52,9.4,25.8-11.92,29.4-22.13,30.3-37,67.54-49.18,38.6-12.44,55.06,28.46,64.22,31.25"/><path class="cls-10" d="M40.24,38.36c23.48,15.68,25.3,34.51,44,21.93S95,36.78,128.2,56.66c3.36,2,6.4,4.15,9.28,6.22,27.43,19.72,25.9,40.4,61.38,20.09C223.52,68.85,231.78,50,250.62,43.61c9.73-3.31,20.79-.73,39.53,10.09,53.9,31.15,68,52.71,109.68,55.37,71.34,4.56,25.83,22.43,63.58-23.56A122.13,122.13,0,0,1,477.3,70.8c1.83-16.74,50.29-36.62,55.33-52.17,3.54-10.91,19.83,9.75,20.23,14.66.16,2,10.64,14.13,17.36,19,7,5.11,10.37,17.28,24.76,39.31,17.78,27.19,54.51,38.55,69.72,39.13,14.81.52,24.54-3.26,31.69-17.87,6.39-13,17.51-33.6,18.67-35.18.63-.85,3.46-12,13.47-14.88,10.83-3.16,18.84-16.2,33.34-6.44,9.92,6.67,13.37,12.89,17.77,17.08,2,1.93,4.6,3.09,8.65,3.22,11.67.39-2,8.73,25.19-11.52,28.41-21.18,30-35.52,66-47.1C917,6,933.47,44.71,942.24,47.5"/><path class="cls-11" d="M49.15,26.92C72,42.45,73.6,60.83,91.26,49.49s10.17-21.19,42.59-2c3.28,2,6.26,4,9.11,6,27.48,19.2,26.11,39.27,60.08,20.31C226.65,60.65,235,42.87,254.16,36.45c9.72-3.26,20.59-.84,38.74,9.22,53,29.34,66.93,50.07,107.2,53.79,68.29,6.31,27.36,25.44,63.2-22.25a120.66,120.66,0,0,1,13.27-15.33C478.63,43,524.76,23.4,530.8,8,535-2.7,550.14,17.15,550.59,22.67,550.78,25,560.76,36.83,567.31,42c6.85,5.4,10.38,17.61,24.74,39.12,18.21,27.28,54.05,38.6,69.23,39.24,14.73.59,24.47-3.31,31.64-17.64,6.29-12.56,17-32.29,18.29-34.07.71-1,3.51-11.56,13-14.51,10.47-3.24,18.16-15.8,32.08-6.93,9.55,6.08,13,11.64,17.3,15.53,2,1.79,4.47,2.84,8.4,2.93,11.21.27-1.42,8,24.59-11.13,27.42-20.22,29.77-33.94,64.51-45C907.58-2.11,924,34.33,932.4,37.11"/><path class="cls-12" d="M58.05,15.49c22.22,15.38,23.62,33.31,40.2,23.2s9.57-18.87,41.25-.33c3.2,1.88,6.13,3.87,8.95,5.78C176,62.81,174.76,82.28,207.22,64.68c22.56-12.23,31-29,50.48-35.4,9.72-3.2,20.4-.94,38,8.35,52,27.53,65.85,47.43,104.72,52.22,65.22,8.05,28.86,28.43,62.82-20.94a121.2,121.2,0,0,1,12.64-16C478.14,32,521.93,12.63,529-2.66c4.82-10.45,18.85,8.59,19.35,14.72.2,2.53,9.68,14.19,16.06,19.6,6.72,5.7,10.42,18,24.72,38.93C607.76,98,642.7,109.24,657.85,110c14.65.65,24.42-3.37,31.6-17.42,6.19-12.1,16.46-31,17.92-33,.78-1.06,3.55-11.16,12.63-14.14,10.1-3.32,17.47-15.39,30.82-7.41,9.18,5.49,12.69,10.38,16.82,14,1.89,1.64,4.33,2.42,8.16,2.65,10.73.62-.88,7.37,24-10.75,26.43-19.26,29.52-32.35,63-42.94,35.36-11.19,51.77,23,59.77,25.77"/><path class="cls-13" d="M67,4.05c21.59,15.24,22.77,32.71,38.28,23.84s9-16.55,39.9,1.32c3.12,1.81,6,3.73,8.79,5.57,27.57,18.14,26.52,37,57.47,20.75,21.52-11.28,30-27,49.84-33.42,9.71-3.14,20.22-1.05,37.18,7.48,51.14,25.72,64.77,44.77,102.23,50.65C462.79,90,431,111.63,463.09,60.61a122.57,122.57,0,0,1,12-16.58c2.53-23,44-42.18,52-57.33,5.45-10.23,18.36,8,18.91,14.74.23,2.78,9.21,14.22,15.42,19.89,6.57,6,10.45,18.28,24.69,38.74,19.11,27.46,53.13,38.69,68.26,39.48,14.57.72,24.36-3.43,31.55-17.2,6.08-11.62,15.94-29.66,17.54-31.83.86-1.18,3.61-10.77,12.21-13.78,9.75-3.4,16.81-15,29.56-7.89,8.83,4.9,12.36,9.11,16.34,12.41,1.82,1.5,4.2,2.16,7.93,2.36,10.27.54-.33,6.69,23.36-10.35C818.38,15,822.2,2.49,854.41-7.6c34.3-10.75,50.69,21.16,58.3,23.94"/><path class="cls-14" d="M75.86-7.39c21,15.1,21.93,32.12,36.36,24.48s8.39-14.23,38.57,3c3,1.75,5.87,3.59,8.63,5.35,27.61,17.6,26.72,35.87,56.16,21,20.47-10.35,29-25,49.19-31.45,9.72-3.09,20.05-1.17,36.4,6.61,50.26,23.89,63.69,42.1,99.75,49.08C460,82.05,432.7,105,463,52.31A125.8,125.8,0,0,1,474.38,35.1c2.76-25.12,41.85-44,50.94-59,6.07-10,17.87,7.42,18.47,14.78.25,3,8.73,14.25,14.77,20.16,6.43,6.31,10.5,18.61,24.67,38.56C602.8,77.09,635.91,88.29,651,89.15c14.5.78,24.3-3.49,31.51-17,6-11.15,15.42-28.35,17.16-30.72.94-1.28,3.66-10.38,11.79-13.41,9.4-3.49,16.15-14.56,28.3-8.38,8.48,4.32,12,7.86,15.87,10.85,1.75,1.36,4.06,1.92,7.68,2.08,9.82.45.23,6,22.76-10,24.47-17.35,29-29.19,60-38.79C879.27-26.46,895.64,3.17,902.86,6"/><path class="cls-15" d="M84.77-18.82c20.33,15,21.08,31.51,34.44,25.11S127-5.62,156.43,10.92c3,1.67,5.74,3.43,8.48,5.12,27.66,17.06,26.91,34.74,54.85,21.2,19.42-9.4,28-23,48.55-29.47,9.71-3,19.88-1.29,35.62,5.74C353.33,35.56,366.52,52.92,401.2,61c55.94,13.06,33.18,37.27,61.69-17a132.39,132.39,0,0,1,10.76-17.83c3-27.21,39.71-45.9,49.85-60.76,6.68-9.8,17.38,6.84,18,14.81.27,3.28,8.25,14.27,14.11,20.44,6.29,6.6,10.55,18.92,24.65,38.37,20,27.62,52.22,38.78,67.29,39.71C662,79.59,671.81,75.2,679,62c5.86-10.69,14.89-27,16.78-29.61,1-1.39,3.71-10,11.38-13,9-3.58,15.49-14.15,27-8.86a74.46,74.46,0,0,1,15.38,9.29c1.68,1.22,3.93,1.66,7.45,1.8,9.35.35.78,5.34,22.15-9.58C802.71-4.4,808-15.61,837.68-24.72,869.84-34.58,886.18-7.21,893-4.43"/><path class="cls-16" d="M93.67-30.26C113.38-15.45,113.92.66,126.2-4.51s7.19-9.59,35.88,6.28c2.88,1.6,5.61,3.29,8.31,4.9,27.72,16.52,27.12,33.61,53.55,21.43C242.32,19.64,251,7,271.85.61c9.71-3,19.72-1.43,34.84,4.86,48.55,20.2,61.48,36.7,94.78,45.94C454.3,66.06,436,91.6,462.78,35.7a138.64,138.64,0,0,1,10.15-18.45c3.21-29.31,37.56-47.78,48.74-62.49C529-54.82,538.56-39,539.26-30.4c.29,3.54,7.77,14.31,13.47,20.73,6.13,6.9,10.6,19.23,24.63,38.17,20.5,27.7,51.76,38.84,66.79,39.84,14.34.92,24.16-3.61,31.42-16.53,5.74-10.23,14.37-25.73,16.41-28.5,1.1-1.49,3.75-9.61,10.95-12.66C711.62,7,717.79-3.11,728.71,1.3A71.45,71.45,0,0,1,743.62,9c1.6,1.08,3.78,1.62,7.21,1.51,8.89-.3,1.33,4.68,21.54-9.18,22.5-15.43,28.52-26,57-34.64,31.08-9.41,47.41,15.69,53.86,18.46"/><path class="cls-17" d="M102.58-41.7C121.66-27,122-11.38,133.19-15.31s6.6-7.27,34.54,7.93c2.8,1.53,5.47,3.15,8.15,4.69,27.78,16,27.32,32.47,52.24,21.64,17.33-7.52,26.06-19.1,47.27-25.51,9.7-2.94,19.57-1.57,34.05,4,47.74,18.32,60.38,34,92.31,44.37,49.71,16.2,35.92,43.11,60.93-14.4A148.19,148.19,0,0,1,472.2,8.32c3.44-31.4,35.41-49.66,47.64-64.2,7.9-9.38,16.41,5.67,17.16,14.87.3,3.79,7.28,14.34,12.81,21,6,7.21,10.67,19.55,24.61,38,21,27.76,51.3,38.88,66.31,40,14.26,1,24.09-3.68,31.37-16.32,5.62-9.76,13.85-24.41,16-27.38,1.18-1.6,3.8-9.23,10.53-12.29C707-1.84,712.9-11.41,723.18-7.89c7.49,2.57,11,4.07,14.44,6.18,1.53.93,3.64,1.38,7,1.22,8.43-.4,1.9,4,20.94-8.79C787-23.75,793.79-33.72,821-41.83c30-9,46.32,13.85,52.38,16.63"/><path class="cls-18" d="M111.48-53.14c18.46,14.52,18.57,29.72,28.7,27s6-4.95,33.19,9.58c2.73,1.46,5.35,3,8,4.47C209.2,3.35,208.89,19.29,232.3,9.81c16.28-6.58,25.08-17.13,46.63-23.54,9.69-2.88,19.42-1.72,33.27,3.12,46.94,16.42,59.27,31.2,89.82,42.8,46.6,17.69,37.25,46,60.56-13.09A158.8,158.8,0,0,1,471.47-.6c3.67-33.49,33.26-51.56,46.55-65.92,8.49-9.19,15.91,5.08,16.71,14.9.33,4,6.8,14.37,12.17,21.28,5.83,7.51,10.73,19.86,24.58,37.8C593,35.27,622.32,46.38,637.31,47.53c14.17,1,24-3.73,31.32-16.09,5.5-9.29,13.33-23.1,15.65-26.27,1.26-1.7,3.85-8.86,10.12-11.92,8-3.9,13.63-13,23.25-10.32,7.19,2,10.62,2.8,14,4.62,1.46.79,3.51,1.14,6.73.93,8-.5,2.45,3.35,20.33-8.4,20.55-13.5,28-22.85,53.92-30.47,28.95-8.53,45.22,12,50.9,14.8"/><path class="cls-19" d="M120.39-64.57c17.82,14.37,17.74,29.11,26.77,27.66s5.41-2.63,31.86,11.23c2.65,1.39,5.21,2.86,7.83,4.25C214.76-6.58,214.58,8.79,236.48.66c15.23-5.63,24.09-15.16,46-21.56,9.69-2.83,19.28-1.89,32.49,2.25,46.16,14.48,58.16,28.4,87.33,41.23,43.49,19.12,38.55,48.94,60.18-11.78a177.49,177.49,0,0,1,8.27-20.33c3.9-35.58,31.1-53.46,45.45-67.64,9.1-9,15.42,4.51,16.27,14.93.35,4.3,6.32,14.41,11.52,21.56,5.69,7.82,10.81,20.17,24.56,37.61,22,27.87,50.39,39,65.34,40.2,14.1,1.11,23.93-3.8,31.28-15.87C670.54,12.42,678-.53,680.43-3.9c1.34-1.81,3.9-8.5,9.7-11.55,7.62-4,13-12.6,22-10.8,6.9,1.38,10.26,1.54,13.48,3.06,1.37.65,3.37.9,6.49.65,7.5-.6,3,2.68,19.72-8,19.57-12.54,27.77-21.27,52.4-28.4,27.88-8.08,44.13,10.2,49.42,13"/><path class="cls-20" d="M129.29-76c17.2,14.23,16.92,28.51,24.86,28.3S159-48,184.66-34.83c2.57,1.32,5.09,2.72,7.67,4,28,14.28,27.93,29.09,48.33,22.32,14.19-4.7,23.11-13.19,45.34-19.59,9.69-2.78,19.16-2.07,31.72,1.38,45.4,12.5,57.06,25.56,84.85,39.66,40.4,20.5,39.82,51.86,59.8-10.47,2.37-7.41,5.75-14,7.64-20.95C480-55,499-73.83,514.36-87.81c9.7-8.81,14.94,3.92,15.84,15C530.57-68.3,536-58.41,541.06-51c5.54,8.13,10.89,20.46,24.55,37.42,22.48,27.91,49.92,39,64.85,40.31,14,1.18,23.84-3.87,31.23-15.65C666.94,2.7,674-9.4,676.59-13c1.41-1.93,3.93-8.15,9.27-11.19,7.27-4.14,12.58-9.81,20.74-11.29a20.39,20.39,0,0,1,13,1.51c1.3.51,3.24.66,6.25.36,7-.7,3.59,2,19.12-7.62,18.6-11.56,27.52-19.67,50.89-26.32,26.81-7.63,43,8.38,47.94,11.15"/><path class="cls-21" d="M138.2-87.45c16.57,14.09,16.1,27.91,22.94,28.94s4.21,2,29.17,14.53c2.49,1.25,5,2.57,7.51,3.82,28.05,13.7,28.13,27.95,47,22.53C258-21.38,267-28.85,289.54-35.23c9.69-2.74,19-2.28,30.93.5,44.68,10.46,56,22.68,82.37,38.09,37.35,21.82,41.08,54.78,59.42-9.16,2.21-7.68,5.27-14.58,7-21.58,9.74-38.81,26.78-57.29,43.26-71.08,10.3-8.62,14.44,3.34,15.39,15,.39,4.81,5.34,14.48,10.22,22.13,5.38,8.43,11,20.76,24.52,37.23,23,28,49.46,39.07,64.36,40.43C641,17.56,650.79,12.38,658.22.89,663.34-7,670-18.28,672.74-22c1.49-2,4-7.8,8.86-10.82,6.9-4.27,12.27-9.6,19.47-11.77,6.12-1.84,9.54-1,12.53-.05a15.7,15.7,0,0,0,6,.07c6.57-.78,4.16,1.38,18.51-7.23,17.64-10.58,27.27-18.08,49.37-24.24,25.75-7.17,42,6.56,46.46,9.32"/><path class="cls-22" d="M147.1-98.89c16,14,15.29,27.33,21,29.58S171.75-65,196-53.13c2.41,1.18,4.83,2.43,7.34,3.6C231.43-36.42,231.64-22.71,249-26.77c12.1-2.81,21.15-9.27,44.07-15.63,9.68-2.69,18.91-2.5,30.15-.37,44,8.35,55,19.76,79.89,36.52,34.33,23.08,42.31,57.72,59-7.86,2-7.93,4.77-15.11,6.39-22.19,9.39-41.06,24.62-59.23,42.16-72.8,10.9-8.44,13.95,2.76,14.95,15,.42,5.06,4.85,14.51,9.57,22.4,5.23,8.74,11,21.05,24.5,37,23.53,28,49,39.12,63.88,40.55,13.86,1.31,23.66-4,31.14-15.2,5-7.46,11.23-17.86,14.14-21.81,1.57-2.14,4-7.46,8.44-10.45,6.53-4.41,12-9.54,18.22-12.25,5.65-2.46,9.16-2.23,12.05-1.61a18.71,18.71,0,0,0,5.77-.21c6.1-.87,4.74.73,17.9-6.84,16.68-9.6,27-16.49,47.86-22.17,24.68-6.72,40.85,4.73,45,7.49"/><path class="cls-23" d="M156-110.32c15.31,13.8,14.47,26.77,19.11,30.21s3,6.65,26.48,17.83c2.33,1.11,4.7,2.28,7.19,3.38,28.21,12.52,28.54,25.69,44.4,23,11.05-1.86,20.17-7.3,43.43-13.65,9.67-2.64,18.79-2.74,29.37-1.23,43.25,6.13,54,16.78,77.4,34.94,31.38,24.3,43.54,60.66,58.67-6.55,1.84-8.2,4.28-15.63,5.77-22.82,9-43.3,22.45-61.16,41.05-74.52,11.51-8.26,13.47,2.18,14.52,15.06.43,5.3,4.36,14.54,8.92,22.68,5.06,9,11.13,21.34,24.47,36.85,24.07,28,48.55,39.16,63.39,40.67,13.79,1.37,23.56-4.1,31.09-15,4.85-7,10.72-16.55,13.78-20.7,1.64-2.24,4-7.12,8-10.08C679.22-54.82,684-61.72,690-63c5.9-1.23,8.78-3.47,11.57-3.18a23.74,23.74,0,0,0,5.53-.49c5.65-.95,5.33.1,17.3-6.45C740.14-81.71,751.2-88,770.77-93.18c23.61-6.27,39.76,2.9,43.49,5.66"/><path class="cls-24" d="M164.91-121.76c14.69,13.66,13.64,26.22,17.19,30.85,3.71,4.83,2.43,9,25.15,19.48,2.25,1.05,4.57,2.13,7,3.16,28.29,11.92,28.75,24.56,43.1,23.21,10-.93,19.18-5.34,42.79-11.68a78.89,78.89,0,0,1,28.58-2.1c42.55,3.83,53,13.79,74.92,33.37C432.16,0,448.41,38.14,462-30.71c1.67-8.46,3.79-16.14,5.15-23.45,8.49-45.54,20.3-63.09,40-76.23,12.11-8.1,13,1.59,14.07,15.08.45,5.56,3.87,14.58,8.27,23,4.91,9.35,11.23,21.62,24.46,36.67,24.61,28,48.08,39.21,62.9,40.79,13.7,1.43,23.45-4.19,31-14.77,4.71-6.56,10.2-15.23,13.4-19.58,1.72-2.35,4.06-6.8,7.59-9.71,5.77-4.73,10.36-11.32,15.7-13.22,5.64-2,8.45-5.18,11.1-4.73.94.16,2.68-.27,5.29-.78,5.18-1,5.92-.52,16.69-6.06,14.78-7.6,26.53-13.29,44.83-18,22.55-5.81,38.67,1.07,42,3.83"/><path class="cls-25" d="M173.82-133.2c14.06,13.51,12.78,25.67,15.27,31.49,2.61,6.11,1.83,11.29,23.8,21.13,2.18,1,4.45,2,6.87,3,28.37,11.29,28.94,23.42,41.79,23.43,9,0,18.2-3.39,42.15-9.71,9.66-2.54,18.56-2.27,27.8-3,41.73-3.19,52.15,10.76,72.44,31.8C429.63-8.45,449.87,31.5,461.85-39c1.48-8.72,3.29-16.65,4.52-24.07,7.94-47.78,18.14-65,38.86-78,12.72-7.92,12.49,1,13.63,15.12.48,5.81,3.38,14.61,7.62,23.24A150.19,150.19,0,0,0,550.92-66.2c25.17,28,47.63,39.25,62.41,40.9,13.63,1.51,23.34-4.28,31-14.54,4.57-6.11,9.68-13.92,13-18.47,1.81-2.45,4.07-6.48,7.18-9.33,5.35-4.93,9.75-11.22,14.43-13.71,5.32-2.83,8-5.89,10.62-6.29.88-.13,2.56-.49,5.06-1.07,4.72-1.08,6.51-1.12,16.08-5.67C724.56-100.95,737-106.07,754-110.3c21.48-5.34,37.57-.75,40.53,2"/></g><polygon class="cls-26" points="699.49 218.71 695.04 209 668.37 209 663.86 218.71 699.49 218.71"/><path class="cls-26" d="M486.05,209.08c1.35,0,2.61,0,3.81-.08H457.78v.08Z"/><polygon class="cls-26" points="312.89 209 294.69 209 303.85 229.4 312.89 209"/><use width="655" height="328" transform="matrix(0.63, 0, 0, -0.63, 276.31, 209)" xlink:href="#semi-circle"/><use width="655" height="328" transform="matrix(-1.45, 0, 0, 0.54, 956, 209)" xlink:href="#semi-circle"/><path class="cls-27" d="M103.12,210.75l26.48,2c8,.59,11.05,2.37,11.05,9,0,6.89-3.21,9.15-12.23,9.15H105.14c-7.72,0-10.93-2.61-11.64-9.5-.12-1.9-1.07-3-3-3H80a2.6,2.6,0,0,0-2.85,3.09c.83,16.74,9.14,25.18,28,25.18h23.4c20.78,0,28.5-8.79,28.5-24.83,0-5.33-.89-9.58-2.79-12.91h-62A57.26,57.26,0,0,0,103.12,210.75Z"/><path class="cls-27" d="M169.63,243.77a2.69,2.69,0,0,0,3,3h10.45a2.69,2.69,0,0,0,3-3V209H169.63Z"/><path class="cls-27" d="M201,243.77a2.69,2.69,0,0,0,3,3h62.12a2.68,2.68,0,0,0,3-3v-9.86a2.68,2.68,0,0,0-3-3H217.5V209H201Z"/><path class="cls-27" d="M303.85,229.39,294.69,209H277.08l16,35.48a3.46,3.46,0,0,0,3.44,2.26H311a3.47,3.47,0,0,0,3.45-2.26L330.32,209H312.9Z"/><path class="cls-27" d="M358.48,243.77a2.69,2.69,0,0,0,3,3h65a2.69,2.69,0,0,0,3-3v-9.86a2.69,2.69,0,0,0-3-3H374.88V211.58h33.37a2.64,2.64,0,0,0,2.94-2.58H358.48Z"/><path class="cls-27" d="M486.05,209.08H457.78V209H441.27v34.77a2.69,2.69,0,0,0,3,3h10.57a2.69,2.69,0,0,0,3-3v-19H487L500,244.83a3.92,3.92,0,0,0,3.56,1.91h12.35c2.38,0,3.33-1.55,1.9-3.57L503.63,223.1c8-2.4,12.82-7.22,15.27-14.1h-29C488.66,209.06,487.4,209.08,486.05,209.08Z"/><path class="cls-27" d="M552,243.77a2.68,2.68,0,0,0,3,3H617.1a2.69,2.69,0,0,0,3-3v-9.86a2.69,2.69,0,0,0-3-3H568.52V209H552Z"/><path class="cls-27" d="M697.49,218.7H661.86l4.51-9.7H648.71l-16.55,34.29c-.95,2,0,3.45,2.26,3.45h12a3.79,3.79,0,0,0,3.56-2.26l5.7-12.23h48l5.58,12.23a3.62,3.62,0,0,0,3.56,2.26h12c2.25,0,3.2-1.43,2.25-3.45L710.57,209H693Z"/><path class="cls-28" d="M112.06,302c10.11-1.29,14.79-1.65,24.23-2.4,7.11-.54,3-2.11,7.12-11.23,4.27-9.46-3.12-12.55-12.22-12.55H107.75c-7.76,0-7.21,3.58-11.76,13-1.17,2.61-2,4.08-3.92,4.08H81.5c-1.9,0-3.13-1.85-1.83-4.24,4.72-8.66,4.25-15.22-4.46-19.17,6.16-12.26,21.36-15.38,31.47-15.38h23.4c9.37-.61,36.1,21.68,29.83,34.06-3.49,6.9,5.15,10.77.71,19.55-20-.71-39.93-1.37-59.9-1.73A26.21,26.21,0,0,1,112.06,302Z"/><path class="cls-29" d="M169.59,258.2c1.74-2.6,2.65-4.07,4.55-4.07h10.45c1.9,0,3.14,1.47,1.48,4.07q-7.35,15.8,5.73,23.86-8.24,12.21-1,26.6c-6.22-.14-9.34-.23-15.57-.43q-8.33-13.77.05-26.17Q161.85,274.07,169.59,258.2Z"/><path class="cls-30" d="M201.12,258.2c1.58-2.6,2.48-4.07,4.38-4.07h62.12c1.9,0,3.12,1.47,1.79,4.07-2.74,5.42-6.72,8.12-.91,13.53,2.8,2.61,3.51,4.08,1.61,4.08H221.2c2.52,12.74-5,20.2-.42,33.18-6.31,0-9.45,0-15.74-.07q-6.28-14.82,1.82-26.86Q194.13,273.91,201.12,258.2Z"/><path class="cls-31" d="M309.7,277.92c3.39,11.2-9.76,16.41-13.35,27-7.11.48-10.71.92-17.7,1.56q2.7-15.92,12.75-24.87-10.22-13.17,2.46-24.34c1.61-2.12,2.5-3.1,4.16-3.1h14.49a2.54,2.54,0,0,1,2.72,3.1q-1.51,19.27,13.48,24.34-3.79,12.65,3.49,22.34c-7-.06-10.5,0-17.51.13C310.83,294.55,320.37,289.12,309.7,277.92Z"/><path class="cls-32" d="M358.72,258.2c1.47-2.6,2.37-4.07,4.27-4.07h65c1.9,0,3.12,1.47,1.41,4.07-3.55,5.42-8.28,8.12-1.6,13.53,3.21,2.61,4.2,4.08,2.3,4.08H378.72c11.74,10.62-2.34,16-2,26.2q16.65.62,33.32,1.21c1.76.06,2.82,1.49,3,4-17.54-.8-35.07-1.76-52.61-2.55q-2.71-12.93,4.28-22.59Q352.26,273.94,358.72,258.2Z"/><path class="cls-33" d="M487.59,306c-9.35.94-18.78,1.48-28.16,1.68v.13c-6.58.17-9.87.19-16.45.16q-3-14.82,4.5-25.92-13.89-7.63-6.27-23.86c1.75-2.6,2.67-4.07,4.57-4.07h10.57c1.9,0,3.12,1.47,1.34,4.07-7.13,10.43,10.7,15.65,5.36,26.08h29.22c10.82-11-2.46-16.52,8.48-27.54,1.77-1.8,2.75-2.61,4.3-2.61H517.4c2.38,0,3.22,2.12-.37,4.89-14.24,11,2.11,16.37-9.51,27.49,6.14,3.3,10.6,9.48,13.51,17.33-9.86.26-19.76.88-29.6,1.89C490.22,305.78,488.94,305.88,487.59,306Z"/><path class="cls-34" d="M562.78,258.2c2-2.6,2.84-4.07,4.74-4.07h62.12c1.9,0,3.17,1.47,1,4.07-4.61,5.42-9.94,8.22-2.77,13.38,3.46,2.49,4.12,4,2.25,4l-47.71.09c13,12.06-1.22,18.15-.25,29-6.61-.28-9.92-.42-16.55-.63a33.08,33.08,0,0,1,1.91-22.21Q554.75,273.36,562.78,258.2Z"/><path class="cls-35" d="M701,292.59H665.38c2.08,5.43,3,8.77,4.92,14.57-7,.16-10.45.17-17.43.12q-4.73-12.51-8.85-25.4-11.4-6.67-10.93-23c1.6-2.77,2.61-4.73,4.87-4.73h12c1.66,0,3,1.14,2.27,3.1-2.69,6.71-5.9,10,5,16.5,16,0,32-.1,48,0-6.49-6.45-1.08-9.75,6.21-16.46,2.31-2.12,3.21-3.1,4.87-3.1h12c2.25,0,3.12,2-.42,4.73-8.39,14.86-6.4,28.9-13.85,45.8-7,.37-10.5.6-17.5,1.14C698.35,300.38,699.48,298,701,292.59Z"/><path class="cls-36" d="M737.7,258.2c2.23-2.6,3.12-4.07,5-4.07h10.57c1.9,0,3.15,1.47,1,4.07-2.78,15.15,4.34,26.41,2,41.48,6.27,0,9.4,0,15.67,0a103.08,103.08,0,0,1,17.65-21q-12.42-16.84,9.57-22.3c1.77-1.63,2.75-2.28,4.29-2.28h13c2.49,0,3.13,2.28-.72,5.05q-11,7.85-8.53,23a143.69,143.69,0,0,0-17.81,21.46c-16.53-.29-33.07-.31-49.6,0q-.06-11.07.34-22.13Q729.17,271.77,737.7,258.2Z"/><path class="cls-37" d="M879.66,302.26c1.77,0,2.8,1.29,2.94,3.53-17.58-.27-35.15-.7-52.73-1.17q-2.18-13.25,5.1-22.77-13.49-7.41-6.66-23.65c1.79-2.6,2.66-4.07,4.56-4.07h65c1.9,0,3.12,1.47,1.56,4.07-3.25,5.42-8.55,8.12-.46,13.53,3.9,2.61,5.33,4.07,3.44,4.07l-52.15-.1c14,10.64-3.94,16.13-4,26.05Q863,302,879.66,302.26Z"/><path class="cls-38" d="M77.58,187.7a30.48,30.48,0,0,0,1.42,10v-20.3A33.4,33.4,0,0,0,77.58,187.7Z"/><path class="cls-38" d="M131.39,198.63l-26.49-2c-8-.59-11.05-2.25-11.05-8.79,0-7,3.21-9.14,12.36-9.14H127.7c7.61,0,10.81,2.61,11.53,9.5.11,1.9,1.06,3,3,3h10.69a2.6,2.6,0,0,0,2.85-3.09c-.83-16.75-9.26-25.18-28-25.18H106c-15.7,0-23.92,5.07-27,14.54v20.3c2,5.81,6.27,9.32,13.28,11.28h62C150.6,202.61,143.25,199.57,131.39,198.63Z"/><path class="cls-38" d="M183.05,162.88H172.6a2.69,2.69,0,0,0-3,3V209H186V165.85A2.69,2.69,0,0,0,183.05,162.88Z"/><path class="cls-38" d="M214.53,162.88H204a2.69,2.69,0,0,0-3,3V209H217.5V165.85A2.69,2.69,0,0,0,214.53,162.88Z"/><path class="cls-38" d="M347.2,162.88H335.8a3.47,3.47,0,0,0-3.45,2.26L312.9,209h17.42l19.14-42.67C350.41,164.19,349.46,162.88,347.2,162.88Z"/><path class="cls-38" d="M275,165.14a3.47,3.47,0,0,0-3.45-2.26h-11.4c-2.26,0-3.21,1.31-2.26,3.45L277.08,209h17.61Z"/><path class="cls-38" d="M411.22,199.94a2.69,2.69,0,0,0-3-3H374.88V178.68h51.54a2.69,2.69,0,0,0,3-3v-9.86a2.69,2.69,0,0,0-3-3h-65a2.69,2.69,0,0,0-3,3V209h52.71c0-.13,0-.25,0-.39Z"/><path class="cls-38" d="M521,193.17c0-20.07-9.27-30.29-33.61-30.29H444.24a2.69,2.69,0,0,0-3,3V209h16.51V178.68h28.27c12.95,0,18.29,2.25,18.29,14.61v1.54c0,10.83-4.46,13.68-14.48,14.17h29A42,42,0,0,0,521,195Z"/><path class="cls-38" d="M565.56,162.88H555a2.68,2.68,0,0,0-3,3V209h16.5V165.85A2.68,2.68,0,0,0,565.56,162.88Z"/><path class="cls-38" d="M686,162.88H673.38a3.52,3.52,0,0,0-3.45,2.14l-21.22,44h17.66l13.42-28.9L693,209h17.53l-21.16-44A3.51,3.51,0,0,0,686,162.88Z"/><path class="cls-27" d="M738.21,243.77a2.69,2.69,0,0,0,3,3h10.57a2.69,2.69,0,0,0,3-3V212.41H770.4l27.79,32.66a4.35,4.35,0,0,0,3.68,1.67h13c2.49,0,3.33-1.67,1.66-3.69L787.81,209h-49.6Z"/><path class="cls-38" d="M816.48,166.56c1.67-2,.83-3.68-1.66-3.68h-13a4.37,4.37,0,0,0-3.68,1.66L770.4,197.68H754.72V165.85a2.69,2.69,0,0,0-3-3H741.18a2.69,2.69,0,0,0-3,3V209h49.6l-3.63-4.31Z"/><path class="cls-27" d="M878.13,211.58a2.65,2.65,0,0,0,2.94-2.58H828.36v34.77a2.69,2.69,0,0,0,3,3h65a2.69,2.69,0,0,0,3-3v-9.86a2.69,2.69,0,0,0-3-3H844.75V211.58Z"/><path class="cls-38" d="M881.1,208.61v-8.67a2.69,2.69,0,0,0-3-3H844.75V178.68H896.3a2.69,2.69,0,0,0,3-3v-9.86a2.69,2.69,0,0,0-3-3h-65a2.69,2.69,0,0,0-3,3V209h52.71C881.08,208.87,881.1,208.75,881.1,208.61Z"/></svg>