<svg xmlns="http://www.w3.org/2000/svg" xmlns:xlink="http://www.w3.org/1999/xlink" width="360" height="144.83" viewBox="0 0 360 144.83"><defs><linearGradient id="a" x1="0.5" y1="1" x2="0.5" gradientUnits="objectBoundingBox"><stop offset="0" stop-opacity="0"/><stop offset="1" stop-color="#fff"/></linearGradient><linearGradient id="b" x1="0.5" y1="1" x2="0.5" y2="0" xlink:href="#a"/><linearGradient id="c" x1="0.5" y1="1" x2="0.5" y2="0" xlink:href="#a"/><linearGradient id="d" x1="0.5" y1="1" x2="0.5" y2="0" xlink:href="#a"/><linearGradient id="e" x1="0.5" y1="1" x2="0.5" y2="0" xlink:href="#a"/><linearGradient id="f" x1="0.5" y1="1" x2="0.5" y2="0" xlink:href="#a"/><linearGradient id="h" x1="0.5" y1="1" x2="0.5" y2="0" xlink:href="#a"/><linearGradient id="i" x1="0.5" y1="1" x2="0.5" y2="0" xlink:href="#a"/><linearGradient id="j" x1="0.5" y1="1" x2="0.5" y2="0" xlink:href="#a"/></defs><g transform="translate(-3.98 -3)"><g transform="translate(27.512 12.166)"><path d="M751.44,63.022q3.42.885,6.724,1.823c-.295-.231-.605-.465-.934-.7a6.063,6.063,0,0,0-5.786-1.123Z" transform="translate(-492.322 -49.299)" fill="#fff"/><path d="M241.934,51.074a14.1,14.1,0,0,0-3.354,1.713q4.407-.964,8.97-1.838A9.771,9.771,0,0,0,241.934,51.074Z" transform="translate(-173.399 -41.767)" fill="#fff"/><path d="M535.489,27.243c-.314-.026-.7.049-.911.874a5.052,5.052,0,0,1-.6,1.346q2.473.1,4.927.231c-1.169-1.271-2.481-2.371-3.418-2.454Z" transform="translate(-357.094 -27.239)" fill="#fff"/><path d="M678.332,210.513c3.071,0,5.468-.314,7.431-1.513h-15.8a33.361,33.361,0,0,0,8.369,1.513Z" transform="translate(-441.654 -140.268)" fill="#fff"/><path d="M570.49,31.994l.711,1.259h.038c-.261-.435-.51-.855-.749-1.263Z" transform="translate(-379.798 -30.193)" fill="#fff"/><path d="M674.023,210.513A33.333,33.333,0,0,1,665.654,209H663.03a38.208,38.208,0,0,0,10.993,2.269c3.744,0,6.546-.446,8.788-2.269h-1.354c-1.962,1.2-4.364,1.513-7.431,1.513Z" transform="translate(-437.344 -140.268)" fill="#fff"/><path d="M511.332,128.159c-1.448-2.632-2.568-4.871-3.5-6.769-1.032-1.955-1.872-3.653-2.59-5.1-.083-.17-.163-.329-.242-.492-1.021-1.751-1.955-2.779-3.3-3.245-2.957-1.021-8.338-6.217-8.38-6.258-1.705-1.8-7.4-7.586-9.132-6.739-.458.223-.624.764-.5,1.607.749,4.939-17.062,11.863-23.99,14.112l-.045.019c-7.567,3.555-12.188,6.5-14.014,8.958a2.623,2.623,0,0,0,.3.9c1.411-2.371,6.115-5.449,14.014-9.162,1.327-.435,25.468-8.4,24.481-14.937-.076-.5-.015-.768.079-.817.843-.412,4.942,3.093,8.262,6.591.227.219,5.555,5.366,8.671,6.444,1.906.658,2.95,2.806,5.033,7.086,1.055,2.167,2.367,4.863,4.186,8.172,3.35,6.1,10.618,10.108,17.175,12.362h2.624c-6.939-2.031-15.531-6.164-19.138-12.728Z" transform="translate(-302.16 -72.155)" fill="#fff"/><path d="M443.23,168.7a2.645,2.645,0,0,0,.787-.242c.011-.061.023-.117.038-.182-.045-.087-.11-.2-.163-.3-.1-.178-.212-.378-.31-.6a3.644,3.644,0,0,0-.238.613,2.891,2.891,0,0,0-.113.707Z" transform="translate(-300.661 -114.386)" fill="#fff"/><path d="M770.713,132.047c-3.906,3.1-6.073,4.95-7.234,5.944-.484.412-.87.745-1.1.915-.276-.616-.87-1.229-2.76-1.4-2.772-.253-3.91-1.887-5.343-4.39a6.384,6.384,0,0,1-1.244-1.127,21.359,21.359,0,0,1-2.019-3.044,38.614,38.614,0,0,0-2.45-3.781c-.28-.272-.571-.548-.881-.821-5.264-4.663-8.917-2.738-12.449-.877a15.629,15.629,0,0,1-4.292,1.762c-5.1.953-6.508,6.364-6.652,6.984-.4.753-5.608,10.569-8.187,16.661-1.21,2.859-2.605,4.617-4.345,5.68h1.354a13.4,13.4,0,0,0,3.683-5.385c2.655-6.274,8.13-16.54,8.183-16.646l.038-.1c.011-.057,1.172-5.536,6.062-6.451a16.365,16.365,0,0,0,4.5-1.834c3.456-1.823,6.723-3.543,11.594.775a28.12,28.12,0,0,1,6.054,7.907c1.626,2.866,2.908,5.132,6.319,5.445,1.849.17,2.065.753,2.182,1.063a.6.6,0,0,0,.4.442c.333.087.507-.061,1.838-1.2,1.161-.991,3.32-2.84,7.215-5.926a66.447,66.447,0,0,0,10.52-10.516c-.208-.14-.42-.28-.631-.42a65.7,65.7,0,0,1-10.357,10.346Z" transform="translate(-467.647 -85.818)" fill="#fff"/><path d="M82.27,120.12c4.886,5.99,7.835,9.6,21.664.545,6.867-4.5,10.853-9.616,14.056-13.731,6.13-7.873,9.208-11.825,24.341-.692,5.789,4.258,10.448,8.089,14.562,11.469,12.467,10.255,19.335,15.9,34.691,14.29,16.154-1.694,18.454-2.068,18.926-3.067.216-.458-.072-.9-.352-1.32a3.628,3.628,0,0,1-.556-1.123,6.3,6.3,0,0,1-.734.189,4.361,4.361,0,0,0,.658,1.35c.125.189.333.507.3.582-.337.715-7.181,1.467-18.321,2.636-15.039,1.577-21.819-4-34.132-14.12-4.118-3.388-8.788-7.226-14.593-11.5-15.727-11.564-19.157-7.162-25.385.836-3.169,4.069-7.109,9.132-13.87,13.56-13.258,8.686-15.735,5.653-20.662-.389A41.652,41.652,0,0,0,72.786,110.1a53.78,53.78,0,0,0-5.831-3.384c-.25.159-.5.321-.745.48a49.61,49.61,0,0,1,6.168,3.539,40.967,40.967,0,0,1,9.9,9.389Z" transform="translate(-66.21 -71.607)" fill="#fff"/><path d="M215.352,121.465c-1.584.318-5.377.65-12.2,1.248-1.494.129-3.146.276-4.98.435-14.517,1.278-21.146-4.061-33.175-13.757-4.118-3.32-8.784-7.079-14.612-11.269-8.278-5.948-13.315-7.733-17.376-6.168-2.987,1.142-5.177,3.868-7.945,7.317-3.1,3.861-6.958,8.663-13.4,12.834-12.759,8.259-15.2,5.324-20.076-.526a49.937,49.937,0,0,0-6.13-6.451,34.964,34.964,0,0,0-3.978-2.957c-1.494-.957-2.791-1.739-3.933-2.375l-.771.454c1.206.654,2.613,1.5,4.288,2.575a34.262,34.262,0,0,1,3.891,2.9A49.321,49.321,0,0,1,91,112.079c4.837,5.8,7.752,9.31,21.085.681,6.546-4.239,10.448-9.094,13.583-13,2.7-3.358,4.825-6.013,7.62-7.079,3.789-1.46,8.614.3,16.65,6.073,5.812,4.175,10.471,7.93,14.581,11.242,12.188,9.824,18.9,15.236,33.727,13.923,1.83-.163,3.483-.306,4.976-.435,7.2-.628,10.584-.926,12.207-1.255a2.685,2.685,0,0,1-.079-.756Z" transform="translate(-72.783 -67.147)" fill="#fff"/><path d="M583.978,105.638l-.537-.866a38.5,38.5,0,0,0-2.178-3.275c-.321-.31-.662-.624-1.021-.938-5.116-4.424-8.663-2.522-12.093-.684a15.42,15.42,0,0,1-4.179,1.755c-4.6.908-6.126,5.453-6.485,6.826v.015c-.563.995-5.559,10.422-8.055,16.245-2.613,6.039-6.013,7.121-11.749,7.109-5.506-.026-21.713-4.311-27.321-14.283-1.581-2.81-2.776-5.169-3.755-7.147-.979-1.83-1.774-3.422-2.466-4.8-.045-.091-.091-.178-.136-.268-1.01-1.736-1.947-2.81-3.26-3.32-2.8-1.081-7.775-5.9-8.111-6.323l-.011.008c-.673-1.074-5.313-5.634-7.423-6.621a1.594,1.594,0,0,0-1.63-.1c-.374.265-.518.756-.446,1.505.427,4.394-13.133,10.153-19.648,12.918-2.965,1.259-3.819,1.641-4.076,1.932-2.522,1.286-4.821,2.59-6.837,3.876-3.706,2.367-5.695,4.2-6.7,5.638a2.857,2.857,0,0,0,.284,1.059c.711-1.392,2.564-3.32,6.833-6.047,2.023-1.293,4.337-2.6,6.875-3.891l.185-.095.008-.083c.382-.261,2.012-.949,3.732-1.679,7.2-3.055,20.6-8.743,20.114-13.7-.045-.465.015-.771.163-.824,1.327-.469,7.347,5.608,7.926,6.5l.015-.008c.624,1.017,5.929,5.665,8.471,6.648,1.766.684,2.787,2.628,4.67,6.436.643,1.1,1.324,2.5,2.163,4.224.212.435.435.9.669,1.373.522.987,1.089,2.034,1.721,3.161,5.759,10.248,22.356,14.649,27.987,14.676h.182c5.842,0,9.541-1.24,12.282-7.574,2.59-6.047,7.82-15.848,8.013-16.177a.5.5,0,0,0,.079-.193c.329-1.263,1.728-5.442,5.888-6.262a16.276,16.276,0,0,0,4.394-1.83c3.347-1.8,6.508-3.49,11.223.59a23.662,23.662,0,0,1,3.471,3.717c.268.261.526.518.768.779Z" transform="translate(-302.296 -65.517)" fill="#fff"/><path d="M444.029,160.753c-.053-.117-.11-.25-.166-.393a4.037,4.037,0,0,0-.272.836,1.917,1.917,0,0,0,.556-.147,2.75,2.75,0,0,0-.121-.295Z" transform="translate(-300.885 -110.021)" fill="#fff"/><path d="M824.884,131.522a.634.634,0,0,0,.424.427c.348.079.564-.1,1.966-1.286,1.214-1.025,3.245-2.742,6.871-5.608a63.861,63.861,0,0,0,9.268-8.951c-.223-.136-.446-.268-.669-.4a62.733,62.733,0,0,1-9.076,8.747c-3.641,2.874-5.676,4.594-6.894,5.623-.575.488-1,.847-1.24,1.021-.208-.435-.7-1.157-2.73-1.335a5.015,5.015,0,0,1-3.642-1.842,17.733,17.733,0,0,1-1.69-2.511c-.1-.068-.2-.136-.3-.216a43,43,0,0,1,2.269,3.683c.132.231.257.454.386.673a5.825,5.825,0,0,0,2.916.979c1.77.155,2.012.7,2.144.995Z" transform="translate(-533.197 -82.249)" fill="#fff"/><path d="M443.46,164.388a3.134,3.134,0,0,0,.265,1.021,5.717,5.717,0,0,1,.56-.9,2.467,2.467,0,0,1-.019-.295A4.323,4.323,0,0,1,443.46,164.388Z" transform="translate(-300.804 -112.415)" fill="#fff"/><path d="M445.3,168.274a.544.544,0,0,1,.049.11.351.351,0,0,1-.087.072,2.043,2.043,0,0,0,.026.809,1.172,1.172,0,0,0,.737-.518c.208-.389-.011-.775-.219-1.15-.038-.072-.083-.148-.125-.227a3.312,3.312,0,0,0-.367.824.577.577,0,0,0-.015.079Z" transform="translate(-301.908 -114.38)" fill="#fff"/><path d="M602.61,142.64c.079.163.159.321.242.492.719,1.456,1.558,3.15,2.59,5.105-.234-.476-.458-.938-.669-1.373C603.934,145.136,603.253,143.744,602.61,142.64Z" transform="translate(-399.772 -99.001)" fill="#fff"/><path d="M812.143,134.876a6.541,6.541,0,0,1-.866-.824,15.346,15.346,0,0,1-1.429-1.993c-.242-.257-.5-.518-.768-.779a38.137,38.137,0,0,1,2.45,3.781,21.14,21.14,0,0,0,2.019,3.044,6.386,6.386,0,0,0,1.244,1.127c-.125-.219-.253-.442-.386-.673a42.6,42.6,0,0,0-2.269-3.683Z" transform="translate(-528.166 -91.937)" fill="#fff"/><path d="M444.023,170.24a2.643,2.643,0,0,1-.787.242,2.685,2.685,0,0,0,.079.756,6.108,6.108,0,0,0,.734-.189A1.977,1.977,0,0,1,444.023,170.24Z" transform="translate(-300.664 -116.165)" fill="#fff"/><path d="M444.464,166.5c.053.1.121.216.163.3.008-.026.008-.053.015-.079a3.617,3.617,0,0,1,.367-.824,2.624,2.624,0,0,1-.3-.9,5.713,5.713,0,0,0-.56.9,6.232,6.232,0,0,0,.31.6Z" transform="translate(-301.233 -112.906)" fill="#fff"/><path d="M582.61,96.113c-.4-.552-.8-1.157-1.229-1.826-.541-.839-1.134-1.77-1.879-2.753-.371-.359-.768-.715-1.191-1.074-4.969-4.186-8.406-2.31-11.734-.5a15.269,15.269,0,0,1-4.065,1.747c-4.224.881-5.816,4.923-6.3,6.621-.008.03-.015.053-.019.072-.522.926-5.388,10.066-7.911,15.833-2.624,6-5.994,7.075-11.726,7.022-5.408-.049-21.418-4.387-27.132-14.328-1.732-3.01-3.006-5.51-4.042-7.574-.9-1.679-1.656-3.154-2.31-4.443a1.127,1.127,0,0,0-.06-.117,7.178,7.178,0,0,0-3.184-3.324c-2.764-1.187-7.529-5.914-7.85-6.391a.344.344,0,0,1,.049.155c-.045-.552-2.794-3.286-3.331-3.8-2.341-2.239-4.039-3.347-5.029-3.279-.424.026-1.127.276-1.07,1.66.163,3.91-10.686,9.045-17.168,12.112-4.349,2.061-5.835,2.817-6.171,3.422a70.476,70.476,0,0,0-6.584,4.1c-3.645,2.568-5.581,4.53-6.557,6.043a3.056,3.056,0,0,0,.166,1c.023.076.049.155.068.231.647-1.456,2.424-3.562,6.776-6.629a70,70,0,0,1,6.633-4.122l.178-.1.019-.166c.31-.469,3.1-1.789,5.8-3.071,7.514-3.555,17.8-8.425,17.614-12.857-.011-.284,0-.768.257-.832,1.467-.378,7.173,5.529,7.631,6.447a.306.306,0,0,1-.023-.095c.049.632,5.631,5.759,8.278,6.9,1.739.749,2.8,2.8,4.655,6.508.624,1.07,1.278,2.39,2.065,3.986.17.344.352.711.537,1.082.586,1.1,1.237,2.28,1.97,3.555,5.952,10.357,22.084,14.668,27.805,14.721h.352c5.721,0,9.367-1.255,12.1-7.495,2.605-5.948,7.737-15.538,7.869-15.757a.676.676,0,0,0,.1-.246c.45-1.562,1.906-5.279,5.71-6.069a16.119,16.119,0,0,0,4.284-1.826c3.237-1.766,6.3-3.434,10.853.4a23.3,23.3,0,0,1,3.615,3.816q.641.618,1.191,1.237Z" transform="translate(-302.452 -58.899)" fill="#fff"/><path d="M445.584,161.884a.862.862,0,0,0,.5-.371,1.054,1.054,0,0,0-.1-1.013.112.112,0,0,0-.015-.03,3.129,3.129,0,0,0-.386,1.414Z" transform="translate(-302.122 -110.089)" fill="#fff"/><path d="M817.794,123.471a.669.669,0,0,0,.45.412c.363.072.6-.125,2.133-1.4,1.18-.983,3.154-2.628,6.493-5.252a62.031,62.031,0,0,0,7.839-7.268c-.234-.132-.469-.261-.707-.39a61.251,61.251,0,0,1-7.616,7.041c-3.347,2.632-5.328,4.281-6.508,5.268-.677.567-1.176.979-1.426,1.15-.219-.4-.707-1.1-2.7-1.259a4.888,4.888,0,0,1-3.547-1.736,19.067,19.067,0,0,1-1.785-2.59,5.816,5.816,0,0,1-.794-.658,36.5,36.5,0,0,1,2.908,4.383c.087.147.166.284.25.424a5.819,5.819,0,0,0,2.908.96c1.69.132,1.959.643,2.1.919Z" transform="translate(-528.508 -78.437)" fill="#fff"/><path d="M93.776,97.731a49.081,49.081,0,0,1,6.088,6.289c4.791,5.642,7.684,9.049,20.545.836,6.239-3.986,10.055-8.584,13.118-12.282,2.757-3.328,4.939-5.956,7.839-7.049,3.766-1.418,8.5.246,16.355,5.748,5.846,4.1,10.509,7.775,14.623,11.023,11.9,9.386,18.45,14.559,32.74,13.549,4.9-.348,8.512-.563,11.152-.722,3.2-.193,4.954-.3,5.941-.442a2.929,2.929,0,0,1,.049-.8c-.926.151-2.9.272-6.039.461-2.639.159-6.255.378-11.159.722-13.984.991-20.454-4.114-32.2-13.383-4.122-3.252-8.8-6.939-14.661-11.049-8.092-5.672-13.042-7.363-17.085-5.839-3.1,1.168-5.332,3.865-8.168,7.283-3.029,3.653-6.8,8.2-12.936,12.12-12.282,7.847-14.7,5-19.524-.681a50.035,50.035,0,0,0-6.183-6.383,37.07,37.07,0,0,0-3.914-2.874c-.688-.435-1.327-.832-1.936-1.2l-.805.431c.715.427,1.482.9,2.322,1.433a36.429,36.429,0,0,1,3.831,2.813Z" transform="translate(-79.524 -62.699)" fill="#fff"/><path d="M444.563,155.98a1.952,1.952,0,0,1-.851.212,3.191,3.191,0,0,0,.216,1.441,6.047,6.047,0,0,1,.586-1.013,2.555,2.555,0,0,1,.045-.639Z" transform="translate(-300.953 -107.297)" fill="#fff"/><path d="M444.3,153.614c-.008-.019-.011-.042-.019-.064-.042.106-.079.208-.11.31a1.12,1.12,0,0,0,.189-.042C444.344,153.758,444.321,153.682,444.3,153.614Z" transform="translate(-301.245 -105.786)" fill="#fff"/><path d="M806.082,124.751c-.094-.095-.189-.185-.28-.287-.238-.265-.458-.552-.681-.847q-.55-.613-1.191-1.237c.885,1.172,1.569,2.284,2.178,3.275.185.3.363.59.537.866a25.451,25.451,0,0,1,2.3,2.821c.1.076.2.144.3.216-.083-.14-.166-.276-.25-.424a36.208,36.208,0,0,0-2.908-4.383Z" transform="translate(-524.963 -86.403)" fill="#fff"/><path d="M599.62,132.5c.045.091.087.178.136.268.692,1.38,1.49,2.972,2.466,4.8-.185-.374-.367-.737-.537-1.082C600.9,134.89,600.244,133.57,599.62,132.5Z" transform="translate(-397.912 -92.696)" fill="#fff"/><path d="M443.94,159.08c.042.1.1.223.121.295a1.916,1.916,0,0,1-.556.147,2.949,2.949,0,0,0-.049.8,4.471,4.471,0,0,0,.805-.178,3.129,3.129,0,0,1,.386-1.414,2.911,2.911,0,0,1-.284-1.059,6.2,6.2,0,0,0-.586,1.013c.057.144.113.276.166.393Z" transform="translate(-300.796 -108.348)" fill="#fff"/><path d="M812.54,135.327a6.289,6.289,0,0,0,.866.824,25.357,25.357,0,0,0-2.3-2.821,15.335,15.335,0,0,0,1.43,1.993Z" transform="translate(-529.428 -93.212)" fill="#fff"/><path d="M446.177,154.377a.769.769,0,0,0,.079-.677,4.01,4.01,0,0,0-.276.862A.768.768,0,0,0,446.177,154.377Z" transform="translate(-302.371 -105.879)" fill="#fff"/><path d="M102.763,89.71a49.072,49.072,0,0,1,6.168,6.228c4.742,5.468,7.6,8.769,19.978.976a54.069,54.069,0,0,0,12.649-11.571c2.821-3.29,5.048-5.892,8.066-7.011,3.736-1.388,8.387.185,16.06,5.419,5.9,4.023,10.569,7.631,14.7,10.815,11.208,8.652,17.973,13.87,31.719,13.16,7.026-.363,11.371-.454,13.965-.507,1.581-.034,2.534-.053,3.135-.113a3.813,3.813,0,0,1,.163-.824c-.5.079-1.645.1-3.316.136-2.6.053-6.95.144-13.991.507-13.451.7-19.754-4.167-31.19-12.993-4.133-3.192-8.822-6.807-14.736-10.845-7.915-5.4-12.778-7-16.79-5.506-3.21,1.191-5.612,3.993-8.395,7.242-3.112,3.63-6.636,7.744-12.468,11.416-11.794,7.427-14.184,4.67-18.949-.824a49.535,49.535,0,0,0-6.262-6.323,38.419,38.419,0,0,0-3.683-2.681l-.843.412.246.155a36.952,36.952,0,0,1,3.77,2.734Z" transform="translate(-86.439 -58.213)" fill="#fff"/><path d="M451.722,90.315a62.006,62.006,0,0,1,6.394-4.352l.17-.106.023-.2c.083-.684,4.046-2.726,7.234-4.368,7-3.6,15.708-8.085,15.769-12.15.008-.518.129-.8.363-.843,1.649-.291,7.071,5.71,7.332,6.406a.222.222,0,0,1-.011-.053c.053.624,5.358,5.736,8.021,7,1.7.809,2.749,2.84,4.613,6.512.6,1.032,1.237,2.3,2,3.819.121.238.246.488.371.741.658,1.221,1.4,2.545,2.246,3.993,6.069,10.327,22,14.691,27.624,14.767h.484c5.491,0,9.234-1.3,11.957-7.412,2.628-5.9,7.518-15.012,7.726-15.338a.87.87,0,0,0,.117-.291c1-3.229,2.965-5.317,5.532-5.88a15.842,15.842,0,0,0,4.171-1.823c3.127-1.739,6.081-3.381,10.479.219a22.969,22.969,0,0,1,3.789,3.937,28.6,28.6,0,0,1,4.765,6.209c.034.057.068.106.1.163a5.739,5.739,0,0,0,2.912.945c1.611.117,1.9.586,2.057.839a.679.679,0,0,0,.473.386c.374.064.62-.14,2.223-1.456,1.146-.942,3.063-2.515,6.194-4.95a61.62,61.62,0,0,0,6.19-5.5c-.25-.125-.5-.253-.753-.378a62.258,62.258,0,0,1-5.929,5.249c-3.139,2.443-5.063,4.02-6.213,4.965-.745.613-1.282,1.055-1.539,1.218-.344-.541-.926-1.044-2.647-1.168a4.761,4.761,0,0,1-3.452-1.63,20.217,20.217,0,0,1-1.83-2.571c-.023-.034-.045-.072-.068-.106a5.7,5.7,0,0,1-.968-.839,20.691,20.691,0,0,1-1.845-2.484c-.458-.681-.961-1.426-1.558-2.208-.431-.412-.889-.824-1.4-1.237-4.818-3.944-8.149-2.091-11.375-.3a15.041,15.041,0,0,1-3.955,1.739c-2.863.628-5.037,2.912-6.126,6.425-.015.049-.026.083-.034.11-.518.851-5.32,9.915-7.778,15.428-2.64,5.926-6.156,7-11.7,6.935-5.491-.076-21.04-4.322-26.947-14.373-1.876-3.192-3.218-5.8-4.3-7.937-.839-1.539-1.543-2.9-2.163-4.1a7.542,7.542,0,0,0-3.112-3.339c-2.7-1.282-7.287-5.926-7.6-6.466a.363.363,0,0,1,.034.125c-.06-.749-5.6-7.094-8.024-7.094h-.045c-.442.015-1.187.246-1.21,1.637-.053,3.585-8.886,8.13-15.334,11.45-4.75,2.447-7.2,3.747-7.608,4.772a63.076,63.076,0,0,0-6.338,4.326c-3.6,2.791-5.483,4.893-6.432,6.478a3.766,3.766,0,0,0,.057.855.949.949,0,0,1-.117.843.963.963,0,0,1-.749.276,3.638,3.638,0,0,0,.125,1.9,6.574,6.574,0,0,1,.616-1.172c.015-1.376,1.029-3.925,6.992-8.542Z" transform="translate(-301.083 -52.269)" fill="#fff"/><path d="M444.863,151.679c-.019-.076-.045-.155-.068-.231a3.056,3.056,0,0,1-.166-1,6.706,6.706,0,0,0-.616,1.172.413.413,0,0,1,.019.064c.023.068.045.147.06.2a1.9,1.9,0,0,1-.189.042,3.6,3.6,0,0,0-.163.824,1.968,1.968,0,0,0,.851-.212,3.947,3.947,0,0,1,.276-.862Z" transform="translate(-300.978 -103.858)" fill="#fff"/><path d="M798.854,113.54c.745.979,1.342,1.91,1.879,2.753.431.669.824,1.274,1.229,1.826.344.382.662.76.96,1.134a5.815,5.815,0,0,0,.794.658c-.034-.057-.064-.106-.1-.163a28.939,28.939,0,0,0-4.765-6.209Z" transform="translate(-521.804 -80.905)" fill="#fff"/><path d="M596.55,122.17c.019.042.038.076.06.117.654,1.289,1.407,2.768,2.31,4.443-.129-.253-.253-.5-.371-.741C597.787,124.465,597.155,123.2,596.55,122.17Z" transform="translate(-396.003 -86.272)" fill="#fff"/><path d="M807.761,126.5c.091.1.185.193.28.287-.3-.374-.616-.753-.961-1.134A10.3,10.3,0,0,0,807.761,126.5Z" transform="translate(-526.922 -88.436)" fill="#fff"/><path d="M118.126,79.807c4.685,5.294,7.514,8.489,19.4,1.119,5.634-3.49,9.11-7.415,12.18-10.876,2.881-3.252,5.158-5.82,8.293-6.962,3.706-1.35,8.274.125,15.765,5.09,5.96,3.952,10.66,7.495,14.8,10.622,10.894,8.217,17.463,13.178,30.668,12.759,8.44-.268,12.838-.121,15.2-.042.96.03,1.558.053,1.955.023a6.138,6.138,0,0,1,.813-1.974c.076-1.373,1.059-4.02,6.9-8.989a56.153,56.153,0,0,1,6.152-4.587l.163-.106.023-.193c.121-1.108,4.277-3.407,8.3-5.627,6.568-3.63,14.014-7.744,14.29-11.515.06-.813.367-.843.484-.855,1.739-.151,6.788,5.483,7.018,6.349.06.753,5.222,5.782,7.767,7.105,1.66.866,2.689,2.863,4.553,6.485a.177.177,0,0,1,.019.038c.582.995,1.195,2.2,1.932,3.649.076.147.155.3.231.454.722,1.324,1.539,2.772,2.5,4.371,6.062,10.1,21.1,14.695,27.442,14.812.212,0,.42.008.628.008,5.381,0,9.068-1.3,11.8-7.332,2.587-5.7,7.328-14.528,7.586-14.918a1.177,1.177,0,0,0,.14-.337c1.312-3.986,3.634-5.3,5.355-5.695a15.64,15.64,0,0,0,4.061-1.819c3.018-1.709,5.865-3.324,10.1.038a22.7,22.7,0,0,1,3.993,4.08,28.07,28.07,0,0,1,4.371,5.532,5.62,5.62,0,0,0,2.934.942c1.535.1,1.845.537,2.016.771a.721.721,0,0,0,.5.363c.386.053.654-.163,2.371-1.55,1.176-.953,2.953-2.39,5.835-4.613,1.649-1.271,3.067-2.488,4.326-3.657-.265-.125-.529-.25-.8-.374-1.184,1.085-2.5,2.212-4.023,3.384-2.889,2.231-4.67,3.672-5.85,4.629-.847.684-1.448,1.172-1.709,1.327-.25-.348-.726-.968-2.609-1.093a4.657,4.657,0,0,1-3.358-1.52,20.292,20.292,0,0,1-1.77-2.386l-.261-.386a5.552,5.552,0,0,1-.839-.726A20.491,20.491,0,0,1,368,73.337c-.363-.51-.753-1.063-1.2-1.641-.5-.473-1.036-.949-1.637-1.426-4.67-3.7-7.9-1.876-11.015-.11A14.886,14.886,0,0,1,350.3,71.9c-1.921.446-4.515,1.891-5.941,6.236-.023.068-.038.121-.053.155-.477.775-5.1,9.412-7.642,15.016-2.67,5.884-6.164,6.947-11.673,6.852-6.186-.117-20.862-4.594-26.758-14.419-2.008-3.343-3.407-6.047-4.542-8.244-.745-1.35-1.376-2.556-1.944-3.642a8.211,8.211,0,0,0-3.074-3.418c-2.715-1.414-7.045-5.986-7.347-6.534-.333-1.161-5.4-7.018-7.752-7.018h0c-.461,0-1.252.212-1.354,1.611-.246,3.328-7.8,7.506-13.874,10.864-5.2,2.874-8.259,4.625-8.671,6.047a57.535,57.535,0,0,0-6.1,4.557c-3.6,3.063-5.434,5.305-6.345,6.95a2.657,2.657,0,0,0,0,.295.878.878,0,0,1-.212.715.61.61,0,0,1-.325.155,4.452,4.452,0,0,0-.234,2.477c.008.053.019.113.026.166a16.724,16.724,0,0,1-2.015-.011c-2.371-.079-6.784-.223-15.251.045-12.91.408-19.4-4.485-30.15-12.6-4.152-3.135-8.86-6.686-14.842-10.649-7.733-5.128-12.513-6.629-16.491-5.177-3.328,1.214-5.782,3.982-8.622,7.185a52.009,52.009,0,0,1-12,10.724c-11.307,7.011-13.666,4.345-18.367-.964A48.987,48.987,0,0,0,112.393,73c-.514-.408-1-.779-1.486-1.134-.284.129-.567.257-.847.386.59.424,1.191.881,1.826,1.384a48.135,48.135,0,0,1,6.247,6.171ZM281.338,63.978a.356.356,0,0,0-.011-.06C281.33,63.94,281.334,63.959,281.338,63.978Z" transform="translate(-93.478 -45.671)" fill="#fff"/><path d="M444.873,145.008a.949.949,0,0,0,.117-.843,3.564,3.564,0,0,1-.057-.855,6.3,6.3,0,0,0-.813,1.974.984.984,0,0,0,.749-.276Z" transform="translate(-301.214 -99.418)" fill="#fff"/><path d="M797.273,109.453a5.86,5.86,0,0,0,.968.839,28.071,28.071,0,0,0-4.371-5.532c.6.783,1.1,1.528,1.558,2.208A20.7,20.7,0,0,0,797.273,109.453Z" transform="translate(-518.707 -75.446)" fill="#fff"/><path d="M595.412,115.529c-.737-1.448-1.35-2.658-1.932-3.649.62,1.2,1.324,2.568,2.163,4.1C595.567,115.832,595.488,115.677,595.412,115.529Z" transform="translate(-394.094 -79.873)" fill="#fff"/><path d="M127.225,69.589c4.629,5.116,7.419,8.206,18.824,1.255a52,52,0,0,0,11.707-10.187c2.825-3.078,5.264-5.733,8.52-6.9,3.679-1.316,8.16.061,15.47,4.761,6.205,3.989,11.023,7.6,15.273,10.792,10.448,7.839,16.752,12.57,29.261,11.991,10.119-.469,14.336-.072,16.136.1a4.957,4.957,0,0,0,1.206.042,8.129,8.129,0,0,1,.541-1.168c.057-1.07.654-3.7,6.852-9.476a52.912,52.912,0,0,1,5.914-4.818l.155-.11.019-.189c.174-1.573,4.719-4.25,9.117-6.841C272.407,55.2,278.8,51.43,279.27,47.91c.113-.855.473-.862.628-.862h.011c1.91,0,6.553,5.521,6.686,6.349.064.783,4.916,5.733,7.51,7.211,1.6.911,2.666,2.957,4.432,6.342.045.083.091.178.136.265.56.957,1.142,2.087,1.826,3.415.038.072.079.151.117.227.775,1.407,1.668,2.965,2.726,4.689,6.179,10.07,21.04,14.714,27.261,14.857.242,0,.484.008.722.008,5.173,0,8.962-1.331,11.7-7.253,2.466-5.336,7.124-14.041,7.442-14.494a1.38,1.38,0,0,0,.159-.378c1.07-3.078,2.81-4.931,5.173-5.513a15.455,15.455,0,0,0,3.952-1.819c2.908-1.679,5.657-3.267,9.733-.144a22.379,22.379,0,0,1,4.232,4.25,26.983,26.983,0,0,1,3.819,4.659,5.54,5.54,0,0,0,2.976.945c1.463.083,1.781.473,1.974.7.56.677.749.526,3.059-1.316,1.127-.9,2.832-2.258,5.46-4.273q1.168-.9,2.193-1.758c-.284-.121-.571-.246-.858-.367-.582.48-1.191.968-1.838,1.463-2.636,2.019-4.341,3.381-5.472,4.281a23.672,23.672,0,0,1-1.894,1.445s0-.008-.008-.008c-.257-.314-.741-.9-2.564-1a4.536,4.536,0,0,1-3.263-1.414,20.164,20.164,0,0,1-1.709-2.2q-.244-.346-.51-.715a5.051,5.051,0,0,1-.654-.567,21.746,21.746,0,0,1-1.713-2.095c-.246-.329-.5-.673-.783-1.029a23.655,23.655,0,0,0-1.944-1.664c-4.519-3.464-7.635-1.66-10.652.083a14.811,14.811,0,0,1-3.736,1.732c-2.655.654-4.591,2.685-5.759,6.047-.03.091-.053.155-.068.2-.465.726-5.052,9.3-7.5,14.6-2.685,5.812-6.3,6.879-11.651,6.765-6.065-.144-20.56-4.663-26.572-14.464-2.14-3.49-3.6-6.292-4.78-8.542-.011-.019-.019-.038-.03-.057-.647-1.165-1.21-2.224-1.721-3.188a8.775,8.775,0,0,0-3.006-3.437,31.9,31.9,0,0,1-7.1-6.614c-.231-1.218-4.976-6.988-7.461-7.052-.488-.011-1.316.178-1.5,1.581-.416,3.12-6.916,6.947-12.649,10.323-5.57,3.279-9.068,5.423-9.488,7.268a53.65,53.65,0,0,0-5.865,4.791c-3.623,3.377-5.4,5.736-6.277,7.378a.048.048,0,0,1,0,.023,1,1,0,0,1-.337.741l-.038.023a5.076,5.076,0,0,0-.465,2.216v.064c-.178,0-.488-.03-.836-.064-1.819-.17-6.073-.571-16.249-.1-12.207.567-18.423-4.1-28.728-11.825-4.262-3.2-9.091-6.822-15.322-10.826-7.555-4.859-12.248-6.262-16.2-4.844-3.449,1.237-5.952,3.963-8.852,7.121a51.211,51.211,0,0,1-11.53,10.04c-10.819,6.591-13.144,4.02-17.78-1.1a51.152,51.152,0,0,0-5.744-5.65c-.291.121-.579.246-.866.367a49.41,49.41,0,0,1,5.994,5.839Zm160.2-16.253Z" transform="translate(-100.418 -39.042)" fill="#fff"/><path d="M788.98,96.05c.442.579.836,1.127,1.2,1.641a20.945,20.945,0,0,0,1.781,2.292,5.347,5.347,0,0,0,.839.726A27.015,27.015,0,0,0,788.98,96.05Z" transform="translate(-515.667 -70.029)" fill="#fff"/><path d="M445.235,137.29a.879.879,0,0,0,.212-.715c0-.083,0-.182,0-.295a8.116,8.116,0,0,0-.541,1.168.67.67,0,0,0,.325-.155Z" transform="translate(-301.706 -95.046)" fill="#fff"/><path d="M590.52,101.75c.567,1.085,1.2,2.292,1.944,3.642-.038-.076-.079-.151-.117-.227C591.662,103.837,591.08,102.707,590.52,101.75Z" transform="translate(-392.254 -73.574)" fill="#fff"/><path d="M136.354,59.405c4.564,4.939,7.321,7.922,18.238,1.392a51.13,51.13,0,0,0,11.235-9.514c2.881-3.025,5.37-5.634,8.747-6.826,3.649-1.286,8.047,0,15.175,4.436,6.334,3.94,11.2,7.518,15.489,10.675,9.378,6.894,15.686,11.537,26.8,11.537.427,0,.862-.008,1.3-.019,10.592-.333,14.646.393,16.173.666.681.121.983.174,1.244.011.1-.242.227-.5.378-.787.17-1,.647-3.619,6.822-9.919a49.174,49.174,0,0,1,5.676-5.048l.148-.11.019-.182c.227-2.068,5.079-5.1,9.771-8.024,5.574-3.475,11.333-7.071,11.98-10.369.178-.9.6-.881.783-.87,2.053.113,6.3,5.54,6.364,6.338.072.885,4.772,5.771,7.253,7.313,1.543.957,2.583,2.931,4.315,6.2.072.136.151.284.223.424.526.9,1.081,1.955,1.721,3.188.836,1.505,1.808,3.18,2.987,5.063,6.372,10.172,20.783,14.725,27.079,14.9.287.008.567.011.847.011,5.079,0,8.815-1.335,11.564-7.177,2.53-5.37,7.022-13.689,7.3-14.075a1.712,1.712,0,0,0,.182-.416c.4-1.1,1.626-4.455,5-5.332A15.457,15.457,0,0,0,365,51.082c2.8-1.653,5.445-3.21,9.359-.321a22.459,22.459,0,0,1,4.534,4.47,25.807,25.807,0,0,1,3.15,3.691,5.416,5.416,0,0,0,3.074.995c1.388.068,1.728.424,1.932.635.605.635.756.514,3.263-1.456,1.032-.813,2.583-2.031,4.821-3.736-.306-.121-.609-.242-.919-.363-2.027,1.547-3.456,2.67-4.428,3.434a21.912,21.912,0,0,1-2.1,1.569c-.011-.011-.019-.023-.03-.034a3.168,3.168,0,0,0-2.5-.9,4.421,4.421,0,0,1-3.169-1.308,20.766,20.766,0,0,1-1.637-2.012c-.261-.348-.537-.715-.836-1.1q-.2-.164-.4-.352a21.456,21.456,0,0,1-1.634-1.9c-.083-.1-.166-.212-.253-.318a22.319,22.319,0,0,0-2.375-2.008c-4.364-3.222-7.378-1.445-10.289.276a14.675,14.675,0,0,1-3.627,1.728c-2.522.654-4.4,2.628-5.574,5.857-.038.106-.068.189-.087.234-.484.718-4.923,9-7.366,14.192-2.719,5.771-6.319,6.814-11.624,6.682-6.141-.174-20.182-4.606-26.387-14.51-2.208-3.524-3.7-6.349-4.9-8.618-.057-.1-.106-.2-.163-.3-.563-1-1.063-1.925-1.52-2.776a9.393,9.393,0,0,0-2.934-3.445,31.544,31.544,0,0,1-6.863-6.7c-.182-1.278-4.644-6.935-7.155-7.079-.5-.026-1.38.136-1.656,1.547-.575,2.938-6.429,6.591-11.6,9.813S263.461,53,262.984,55.438a50.019,50.019,0,0,0-5.634,5.029,34.885,34.885,0,0,0-6.1,7.692c-.023.076-.042.147-.057.212a1.712,1.712,0,0,1-.48.953,7.444,7.444,0,0,0-.416,1.535c-.008.053-.019.11-.026.159-.136-.015-.367-.053-.609-.1-1.55-.276-5.665-1.013-16.347-.681-11.636.363-17.637-4.046-27.574-11.352-4.3-3.165-9.181-6.754-15.542-10.709-7.374-4.587-11.98-5.9-15.9-4.515-3.57,1.259-6.122,3.937-9.079,7.041a50.525,50.525,0,0,1-11.057,9.374c-10.331,6.179-12.623,3.7-17.187-1.24-1.085-1.176-2.265-2.45-3.683-3.763-.295.113-.586.231-.877.344,1.531,1.388,2.791,2.745,3.94,3.989ZM293.539,42.721Z" transform="translate(-107.377 -32.447)" fill="#fff"/><path d="M784.26,87.47c.28.355.537.7.783,1.029a20.749,20.749,0,0,0,1.713,2.095,5.361,5.361,0,0,0,.654.567A25.589,25.589,0,0,0,784.26,87.47Z" transform="translate(-512.731 -64.694)" fill="#fff"/><path d="M445.408,129.894a1.022,1.022,0,0,0,.337-.741.048.048,0,0,1,0-.023c-.151.284-.276.545-.378.787Z" transform="translate(-301.992 -90.6)" fill="#fff"/><path d="M589.191,94.648c-.643-1.229-1.2-2.288-1.721-3.188C587.981,92.424,588.544,93.483,589.191,94.648Z" transform="translate(-390.357 -67.175)" fill="#fff"/><path d="M344.152,51.022l.136-.11.019-.174c.284-2.6,5.377-5.952,10.3-9.193,4.5-2.965,8.784-5.786,10.429-8.474-.333-.015-.669-.026-1-.042-1.739,2.424-5.876,5.15-9.9,7.8-5.218,3.434-10.153,6.682-10.656,9.639a48.542,48.542,0,0,0-5.407,5.268c-5.736,6.394-6.572,9.488-6.931,10.807a3.539,3.539,0,0,1-.148.476,6.841,6.841,0,0,1-.995-.2c-1.773-.435-5.922-1.452-15.773-1.819-11.231-.42-17.088-4.519-26.8-11.314-4.266-2.984-9.1-6.364-15.413-10.157a42.087,42.087,0,0,0-7.8-3.853c-.639.117-1.274.238-1.906.359a34.281,34.281,0,0,1,9.265,4.231c6.292,3.778,11.11,7.151,15.364,10.127,9.5,6.648,15.776,11.038,27.257,11.465,9.76.363,13.851,1.369,15.6,1.8.9.219,1.38.318,1.7.072a10.516,10.516,0,0,1,.537-1.165c.382-1.365,1.376-4.33,6.686-10.248a47.579,47.579,0,0,1,5.442-5.279Z" transform="translate(-188.155 -30.84)" fill="#fff"/><path d="M145.412,68.75c4.5,4.761,7.215,7.639,17.644,1.528a50.528,50.528,0,0,0,10.766-8.852,39.4,39.4,0,0,1,5.623-5.026q-1.021.221-2.031.45a56.843,56.843,0,0,0-4.2,3.974,49.827,49.827,0,0,1-10.588,8.716c-9.843,5.767-12.1,3.381-16.586-1.376-.529-.56-1.085-1.146-1.675-1.743-.295.11-.594.216-.885.325.688.692,1.327,1.365,1.936,2.008Z" transform="translate(-114.261 -45.373)" fill="#fff"/><path d="M592.8,74.792c.31.008.613.015.915.015,4.886,0,8.728-1.346,11.488-7.1,2.462-5.128,6.822-13.2,7.158-13.655a2,2,0,0,0,.2-.454c.4-1.059,1.634-4.277,4.818-5.154a15.451,15.451,0,0,0,3.736-1.815,16.174,16.174,0,0,1,3.2-1.626c-.469-.121-.938-.238-1.407-.359a25.559,25.559,0,0,0-2.239,1.252,14.5,14.5,0,0,1-3.52,1.724c-3.6.991-4.946,4.515-5.389,5.676-.049.132-.087.231-.094.253-.408.56-4.814,8.735-7.242,13.795-2.742,5.706-6.474,6.75-11.6,6.595-6.016-.2-19.875-4.67-26.2-14.555-2.276-3.555-3.8-6.406-5.026-8.694-.095-.178-.189-.352-.28-.526-.473-.836-.9-1.615-1.3-2.345a10.3,10.3,0,0,0-2.889-3.5c-2.579-1.739-6.436-6.137-6.625-6.776a9.737,9.737,0,0,0-2.269-3.74l-1.229-.068a12.118,12.118,0,0,1,2.643,3.876c.079.987,4.659,5.839,7,7.415,1.482,1,2.5,2.9,4.19,6.058.1.185.2.386.31.579.465.8.96,1.721,1.52,2.776.892,1.592,1.94,3.377,3.233,5.4,6.5,10.149,20.722,14.744,26.9,14.948Z" transform="translate(-365.197 -31.282)" fill="#fff"/><path d="M780.663,76.683c.654.59.813.465,3.483-1.6.492-.378,1.07-.828,1.751-1.35-.318-.117-.639-.231-.957-.344-.5.382-.934.722-1.32,1.017a20.21,20.21,0,0,1-2.326,1.7c-.019-.015-.038-.034-.06-.053a3.36,3.36,0,0,0-2.428-.79,4.318,4.318,0,0,1-3.074-1.2,20.785,20.785,0,0,1-1.565-1.823c-.465-.579-.972-1.218-1.577-1.887-.2-.2-.393-.412-.586-.628-.25-.257-.514-.518-.8-.783q-.987-.289-1.985-.575a23.734,23.734,0,0,1,4.023,4.092,25.281,25.281,0,0,1,2.284,2.564,5.335,5.335,0,0,0,3.245,1.1c1.316.057,1.675.378,1.891.571Z" transform="translate(-503.379 -52.81)" fill="#fff"/><path d="M585.92,83.936c-.56-1.059-1.051-1.978-1.52-2.776C584.858,82.011,585.357,82.934,585.92,83.936Z" transform="translate(-388.448 -60.77)" fill="#fff"/><path d="M445.73,121.882c.019-.064.038-.136.057-.212a10.526,10.526,0,0,0-.537,1.165A1.752,1.752,0,0,0,445.73,121.882Z" transform="translate(-301.917 -85.961)" fill="#fff"/><path d="M779.86,79.17c.087.106.17.212.253.318a21.484,21.484,0,0,0,1.634,1.9q.193.187.4.352a24.486,24.486,0,0,0-2.284-2.564Z" transform="translate(-509.995 -59.532)" fill="#fff"/><path d="M782.331,72.785a3.518,3.518,0,0,0-2.352-.692,4.2,4.2,0,0,1-2.98-1.1c-.178-.17-.352-.348-.526-.537-.522-.155-1.047-.314-1.573-.465.216.253.427.5.639.737.208.212.4.424.586.628.091.091.178.182.269.268a5.1,5.1,0,0,0,3.555,1.339,2.735,2.735,0,0,1,1.849.507c.552.427.745.461,2.216-.62L783,72.508a2.754,2.754,0,0,1-.571.34.7.7,0,0,1-.094-.072Z" transform="translate(-506.911 -53.824)" fill="#fff"/><path d="M171.509,67.87a49.909,49.909,0,0,0,10.3-8.206c.56-.545,1.1-1.074,1.645-1.584-.556.129-1.112.253-1.664.386-.2.189-.393.378-.59.571a49.241,49.241,0,0,1-10.123,8.077c-9.106,5.215-11.447,3.18-15.633-1.146-.3.106-.609.208-.911.314,4.387,4.542,7.083,7.253,16.975,1.588Z" transform="translate(-121.132 -46.417)" fill="#fff"/><path d="M594.509,71.034c.348.011.688.019,1.025.019,4.8,0,8.588-1.35,11.367-7.018,2.477-5.056,6.64-12.725,7.018-13.239a2.5,2.5,0,0,0,.227-.492c.446-1.123,1.634-4.1,4.636-4.976a13.182,13.182,0,0,0,3.12-1.505c-.409-.1-.817-.193-1.225-.287a9.864,9.864,0,0,1-2.141.953c-3.411.995-4.761,4.379-5.2,5.491-.053.129-.11.276-.121.3-.45.613-4.674,8.421-7.1,13.371s-5.563,6.72-11.575,6.512c-5.29-.2-19.187-4.152-26.016-14.6-2.348-3.592-3.906-6.466-5.158-8.777-.132-.246-.261-.48-.386-.711-.4-.7-.771-1.369-1.119-2a11.06,11.06,0,0,0-2.813-3.494,33.478,33.478,0,0,1-6.205-6.519l-.991-.057c.545,1.376,4.394,5.615,6.682,7.283,1.422,1.036,2.473,2.976,4.061,5.91.136.253.28.518.427.787.408.7.832,1.475,1.3,2.345.945,1.671,2.065,3.558,3.471,5.71C574.8,66.773,589.071,70.834,594.5,71.038Z" transform="translate(-368.206 -31.449)" fill="#fff"/><path d="M298.064,50.933c9.113,6.205,15.133,10.308,26.017,11,9.594.613,13.625,1.883,15.345,2.428,1.626.51,1.929.484,2.481-1.013.541-1.46,1.664-4.492,6.58-10.478a46.381,46.381,0,0,1,5.2-5.51l.129-.113.019-.166c.348-3.165,5.631-6.822,10.739-10.361,2.027-1.4,4-2.772,5.676-4.107-.458-.015-.911-.03-1.369-.042-1.49,1.134-3.158,2.292-4.8,3.43-5.184,3.589-10.547,7.3-11.087,10.811a47.226,47.226,0,0,0-5.181,5.506c-5.007,6.1-6.164,9.227-6.723,10.732a3.248,3.248,0,0,1-.329.753,4,4,0,0,1-1.074-.268c-1.751-.552-5.854-1.845-15.553-2.466-10.645-.681-16.586-4.727-25.578-10.853-4.322-2.942-9.219-6.277-15.708-10.028-1.18-.681-2.273-1.271-3.309-1.789-.5.083-.987.166-1.479.253,1.324.613,2.76,1.369,4.349,2.292,6.459,3.732,11.344,7.056,15.651,9.991Z" transform="translate(-197.949 -30.554)" fill="#fff"/><path d="M582.707,73.315c-.465-.866-.889-1.645-1.3-2.345C581.807,71.7,582.234,72.479,582.707,73.315Z" transform="translate(-386.589 -54.433)" fill="#fff"/><path d="M777.176,72.568c-.185-.208-.382-.416-.586-.628C776.783,72.159,776.98,72.367,777.176,72.568Z" transform="translate(-507.962 -55.036)" fill="#fff"/><path d="M561.064,37.591c1.361,1.07,2.382,2.938,3.929,5.759.167.3.341.62.518.942.352.6.722,1.267,1.119,2,.995,1.739,2.182,3.725,3.7,5.994,7.147,10.709,21.21,14.812,26.531,15.039.34.015.669.019.991.019,5.608,0,8.947-2.057,11.39-6.935,2.386-4.768,6.41-12.18,6.875-12.819a2.969,2.969,0,0,0,.253-.526,8.551,8.551,0,0,1,3.4-4.345l-1.218-.265a10.031,10.031,0,0,0-3,4.269c-.06.144-.129.31-.147.34-.541.737-4.651,8.342-6.954,12.948-2.432,4.859-5.668,6.659-11.552,6.425-5.177-.219-18.87-4.213-25.831-14.642-2.42-3.626-4.012-6.534-5.29-8.868-.178-.325-.348-.635-.514-.934-.322-.563-.624-1.1-.911-1.611a12,12,0,0,0-2.734-3.483A25.748,25.748,0,0,1,559,34.429l-1.286-.079A30.616,30.616,0,0,0,561.064,37.591Z" transform="translate(-371.851 -31.661)" fill="#fff"/><path d="M307.976,47.544c8.7,5.763,14.445,9.567,24.708,10.516,9.268.858,13.148,2.329,15.016,3.037,1.9.718,2.148.613,2.972-1.267a47.492,47.492,0,0,1,6.307-10.357,45.029,45.029,0,0,1,4.969-5.744l.117-.113.019-.163c.4-3.672,5.808-7.676,10.721-11.246-.488-.011-.979-.019-1.471-.026-4.893,3.573-9.578,7.257-10.112,11.015a46.472,46.472,0,0,0-4.95,5.744,49.155,49.155,0,0,0-6.41,10.535,3.573,3.573,0,0,1-.62,1.15,3.352,3.352,0,0,1-1.225-.355c-1.9-.722-5.861-2.224-15.247-3.093-10.04-.926-15.712-4.685-24.3-10.373-4.22-2.8-8.989-5.952-15.3-9.488l-1.422.227c.076.042.151.079.227.125,6.667,3.691,11.628,6.977,16,9.877Z" transform="translate(-206.463 -30.312)" fill="#fff"/><path d="M180.272,65.385a42.722,42.722,0,0,0,7.854-5.755c-.62.147-1.24.295-1.853.446a39.449,39.449,0,0,1-6.432,4.538c-6.954,3.88-9.79,3.366-12.778.847l-.983.318c3.282,2.927,6.444,3.933,14.192-.389Z" transform="translate(-128.314 -47.381)" fill="#fff"/><path d="M578.34,60.64c.344.628.715,1.293,1.119,2C579.062,61.907,578.7,61.241,578.34,60.64Z" transform="translate(-384.68 -48.009)" fill="#fff"/><path d="M190.5,63.554q1.18-.641,2.239-1.324c-1.085.272-2.163.552-3.233.832-3.547,1.857-5.933,2.458-7.854,2.189-.556.163-1.108.329-1.656.5,2.439.938,5.46.548,10.5-2.189Z" transform="translate(-136.971 -48.998)" fill="#fff"/><path d="M569.415,40.72c.291.5.59,1.029.911,1.611,1.048,1.823,2.311,3.914,3.952,6.323,7.359,10.8,20.93,14.823,26.349,15.081.371.015.734.026,1.085.026,5.506,0,8.822-2.038,11.284-6.856s6.232-11.715,6.735-12.4a3.26,3.26,0,0,0,.272-.556,13.346,13.346,0,0,1,.87-1.732c-.31-.064-.62-.129-.93-.189a14.509,14.509,0,0,0-.768,1.566c-.068.159-.147.34-.174.382-.579.787-4.462,7.926-6.81,12.524-2.466,4.825-5.7,6.6-11.526,6.342-5.271-.25-18.476-4.167-25.646-14.687-2.5-3.668-4.126-6.6-5.434-8.966-.212-.378-.409-.741-.605-1.089-.234-.4-.457-.794-.673-1.172-.423-.726-.832-1.376-1.244-1.944-.4-.026-.8-.057-1.2-.083a31.023,31.023,0,0,1,2.934,4.727c.2.352.4.722.613,1.1Z" transform="translate(-376.919 -32.003)" fill="#fff"/><path d="M317.911,44.331c7.956,5.124,13.7,8.826,23.324,10.01,8.841,1.089,12.747,2.8,14.627,3.623,2.273.995,2.477.76,3.653-1.683a68.417,68.417,0,0,1,5.9-10.055,45.445,45.445,0,0,1,4.734-5.975l.106-.11.015-.151c.295-2.689,2.575-5.377,5.476-7.952-.442,0-.885-.008-1.327-.008-2.636,2.458-4.666,5.041-5.022,7.707a46.7,46.7,0,0,0-4.723,5.982A70.424,70.424,0,0,0,358.7,55.891c-.461.96-.768,1.6-1.01,1.709-.2.095-.7-.129-1.471-.465-1.917-.839-5.907-2.587-14.876-3.694-9.416-1.161-14.8-4.629-22.946-9.873-3.347-2.155-7.03-4.526-11.579-7.124-.488.068-.976.14-1.46.212,5,2.81,8.97,5.366,12.551,7.669Z" transform="translate(-214.926 -30.218)" fill="#fff"/><path d="M576.171,51.9c-.321-.579-.62-1.116-.911-1.611Q575.691,51.056,576.171,51.9Z" transform="translate(-382.764 -41.573)" fill="#fff"/><path d="M350.115,50.708c8.346,1.308,12.146,3.176,14.188,4.182,2.636,1.3,2.866,1.025,4.534-2.307a101.86,101.86,0,0,1,5.351-9.507,45.467,45.467,0,0,1,4.5-6.209l.1-.11.015-.144a10.246,10.246,0,0,1,1.876-4.594h-1.093a10.826,10.826,0,0,0-1.675,4.349,46.668,46.668,0,0,0-4.492,6.221,103.606,103.606,0,0,0-5.392,9.586c-.718,1.433-1.15,2.3-1.513,2.488-.272.147-.749-.076-1.8-.594-2.084-1.025-5.967-2.934-14.449-4.266-8.766-1.376-14.113-4.723-21.509-9.352-2.356-1.475-4.878-3.055-7.763-4.734-.5.064-.995.129-1.49.2,3.309,1.9,6.141,3.672,8.769,5.317,7.487,4.689,12.9,8.077,21.853,9.48Z" transform="translate(-223.719 -30.212)" fill="#fff"/><path d="M570.543,37.046c.219.371.443.76.673,1.172,1.093,1.891,2.428,4.069,4.179,6.587,7.506,10.789,20.87,14.85,26.164,15.126.386.019.76.03,1.123.03,5.377,0,8.777-2.068,11.235-6.776,2.042-3.906,5.131-9.575,6.251-11.439-.318-.064-.635-.125-.953-.189-1.312,2.235-4.3,7.741-6.107,11.2-2.469,4.727-5.8,6.538-11.5,6.258-5.15-.268-18.147-4.224-25.461-14.733a101.931,101.931,0,0,1-5.585-9.076c0-.008-.008-.011-.011-.019l-1.1-.079c.1.182.2.359.306.548.246.442.507.9.779,1.388Z" transform="translate(-379.151 -32.134)" fill="#fff"/><path d="M573.013,41.412c-.231-.412-.454-.8-.673-1.172C572.556,40.618,572.779,41.011,573.013,41.412Z" transform="translate(-380.948 -35.324)" fill="#fff"/><path d="M602.186,55.223c-5.956-.34-18.079-4.651-25.276-14.778-1.312-1.849-2.39-3.517-3.312-5.022-.378-.03-.76-.057-1.138-.083,1,1.668,2.2,3.539,3.695,5.646,7.381,10.4,19.853,14.82,25.983,15.171.416.023.817.034,1.21.034,5.279,0,8.652-2.05,11.14-6.7,1.316-2.462,3.1-5.736,4.477-8.191L618,41.122c-1.437,2.571-3.218,5.846-4.334,7.93-2.511,4.693-5.842,6.478-11.477,6.175Z" transform="translate(-381.023 -32.277)" fill="#fff"/><path d="M359.281,47.078a43.337,43.337,0,0,1,13.7,4.7c1.278.692,2.05,1.112,2.81.874.915-.287,1.475-1.4,2.829-4.1,1.006-2,2.386-4.746,4.617-8.629a47.493,47.493,0,0,1,4.265-6.444l.087-.106.015-.136a10.32,10.32,0,0,1,.216-1.221h-.957c-.072.321-.129.65-.17.979a48.681,48.681,0,0,0-4.266,6.463c-2.246,3.906-3.634,6.663-4.644,8.675-1.123,2.231-1.739,3.46-2.276,3.63-.382.121-1.025-.227-2.087-.8a44.178,44.178,0,0,0-13.969-4.8c-8.089-1.566-13.073-4.6-19.974-8.8-1.233-.749-2.507-1.528-3.857-2.329l-1.524.182c1.74,1.021,3.354,2,4.9,2.946,6.984,4.254,12.029,7.325,20.28,8.92Z" transform="translate(-232.798 -30.212)" fill="#fff"/><path d="M569.688,30.607c-.166-.291-.329-.575-.488-.847C569.359,30.036,569.521,30.316,569.688,30.607Z" transform="translate(-378.996 -28.807)" fill="#fff"/><path d="M368.81,43.46a42.494,42.494,0,0,1,13.175,5.184c1.467.862,2.352,1.388,3.241,1.119,1.138-.34,1.853-1.8,3.759-5.687.926-1.891,2.08-4.243,3.679-7.291.809-1.543,1.679-3.154,2.7-4.746-.374,0-.749,0-1.123.008-.9,1.448-1.679,2.9-2.413,4.3-1.607,3.059-2.76,5.419-3.691,7.313-1.622,3.313-2.439,4.976-3.184,5.2-.492.147-1.244-.295-2.488-1.029a43.167,43.167,0,0,0-13.439-5.29c-7.3-1.705-12.116-4.538-18.159-8.126-.526.053-1.051.106-1.577.163.314.185.624.371.93.552C356.411,38.805,361.3,41.705,368.81,43.46Z" transform="translate(-242.244 -30.224)" fill="#fff"/><path d="M603.316,51.457c-5.8-.359-17.746-4.7-25.09-14.827-.223-.31-.442-.613-.654-.915-.4-.03-.813-.064-1.221-.095.352.507.719,1.029,1.108,1.566,7.533,10.388,19.823,14.846,25.8,15.213.442.026.873.038,1.289.038,5.184,0,8.535-2.027,11.049-6.621q1.52-2.779,2.708-4.912c-.329-.061-.654-.117-.983-.174-.847,1.528-1.736,3.139-2.556,4.636-2.518,4.594-5.941,6.417-11.454,6.092Z" transform="translate(-383.442 -32.451)" fill="#fff"/><path d="M605.455,47.78c-5.2-.348-14.808-3.751-22.178-11.613-.469-.038-.938-.079-1.407-.117,7.65,8.614,17.989,12.316,23.521,12.687,5.8.371,9.6-1.634,12.328-6.5l.794-1.414.113-.2-1.006-.17-.737,1.316c-2.56,4.56-5.986,6.357-11.428,6.009Z" transform="translate(-386.875 -32.718)" fill="#fff"/><path d="M391.461,45.47c1.4.889,2.333,1.482,3.207,1.482a1.786,1.786,0,0,0,.526-.076c1.418-.412,2.375-2.466,4.931-7.949.707-1.52,1.513-3.241,2.484-5.271.25-.518.5-1.047.768-1.577l-1.074.011c-.189.386-.374.771-.556,1.15-.976,2.034-1.777,3.759-2.488,5.279-2.288,4.9-3.331,7.139-4.33,7.434-.624.182-1.5-.374-2.946-1.3a43.777,43.777,0,0,0-12.857-5.733,53.672,53.672,0,0,1-12.112-5.075c-.567.049-1.131.1-1.694.151a57.481,57.481,0,0,0,13.549,5.846,42.294,42.294,0,0,1,12.6,5.619Z" transform="translate(-252.212 -30.249)" fill="#fff"/><path d="M609.721,44.319c-4.016-.287-10.792-2.507-17.141-7.34-.59-.053-1.18-.11-1.77-.159,6.856,5.612,14.445,8.157,18.843,8.47,5.022.344,8.557-1.127,11.227-4.738-.367-.061-.734-.117-1.1-.174C617.356,43.43,614.236,44.629,609.721,44.319Z" transform="translate(-392.434 -33.197)" fill="#fff"/><path d="M401.909,42.239c1.611,1.1,2.689,1.83,3.706,1.83a2.084,2.084,0,0,0,.582-.083c1.758-.51,2.931-3.21,6.41-11.231l.276-.635c-.355,0-.715.011-1.07.015l-.1.231c-3.067,7.071-4.466,10.3-5.786,10.683-.768.223-1.842-.51-3.468-1.618a44.261,44.261,0,0,0-12.226-6.118c-1.9-.62-3.615-1.289-5.23-2-.673.049-1.342.1-2.012.151a56.7,56.7,0,0,0,6.943,2.779,43.415,43.415,0,0,1,11.98,6Z" transform="translate(-263.201 -30.274)" fill="#fff"/><path d="M617.5,41.237a29.075,29.075,0,0,1-9.355-2.749q-1.367-.147-2.745-.287a32.278,32.278,0,0,0,12.029,4.023,12.878,12.878,0,0,0,7.809-1.543c-.571-.087-1.142-.17-1.717-.253a12.872,12.872,0,0,1-6.02.813Z" transform="translate(-401.507 -34.055)" fill="#fff"/><path d="M418.483,41.2a2.277,2.277,0,0,0,.632-.091c1.637-.476,2.893-2.73,5.419-8.928-.359.008-.715.011-1.074.019-2.031,4.954-3.373,7.6-4.621,7.96-.93.272-2.171-.632-4.046-2a48.016,48.016,0,0,0-8.856-5.321q-1.112.062-2.216.129a45.063,45.063,0,0,1,10.49,5.994c1.8,1.308,3.074,2.239,4.277,2.239Z" transform="translate(-276.092 -30.312)" fill="#fff"/><path d="M428.11,38.318a2.576,2.576,0,0,0,.7-.1c1.429-.42,2.666-2.239,4.254-5.99l-1.1.023c-1.331,3.078-2.386,4.693-3.437,5-1.116.325-2.537-.779-4.693-2.45-.851-.662-1.815-1.407-2.923-2.193-.552.023-1.108.049-1.66.076,1.562,1.047,2.863,2.053,3.967,2.912,2.053,1.592,3.509,2.723,4.893,2.723Z" transform="translate(-285.749 -30.343)" fill="#fff"/><path d="M435.035,35.337c1.021-.3,1.94-1.187,2.95-3.037-.4.008-.794.015-1.191.026-.726,1.206-1.384,1.842-2.042,2.034-1.047.306-2.3-.488-4.008-1.853l-1.543.057c2.076,1.709,3.6,2.881,5.071,2.881A2.647,2.647,0,0,0,435.035,35.337Z" transform="translate(-291.936 -30.386)" fill="#fff"/></g><path d="M677.333,212.668,675.651,209H665.565l-1.705,3.668Z" transform="translate(-410.348 -128.102)" fill="none"/><path d="M468.47,209.03c.51,0,.991-.011,1.441-.03H457.78v.03Z" transform="translate(-282.197 -128.102)" fill="none"/><path d="M301.576,209H294.69l3.464,7.71Z" transform="translate(-180.779 -128.102)" fill="none"/><path d="M276.31,80.9v-.117a77.781,77.781,0,1,1,155.562,0V80.9H276.318Z" transform="translate(-169.349 0)" fill="#fff"/><path d="M363.98,209v.1c0,36.911-80.591,66.83-180,66.83s-180-29.919-180-66.83V209h360Z" transform="translate(0 -128.102)"/><g transform="translate(30.684 79.953)"><path d="M86.946,209.674l10.017.764c3.01.223,4.179.9,4.179,3.415s-1.214,3.46-4.625,3.46h-8.8c-2.919,0-4.133-.987-4.4-3.592a1.039,1.039,0,0,0-1.123-1.123h-4a.983.983,0,0,0-1.078,1.168c.314,6.334,3.46,9.522,10.6,9.522h8.849c7.862,0,10.781-3.324,10.781-9.386a9.694,9.694,0,0,0-1.059-4.882H82.855a21.653,21.653,0,0,0,4.1.662Z" transform="translate(-76.161 -208.067)" fill="#fff"/><path d="M95,222.662H86.147c-7.419,0-11.2-3.407-11.545-10.422a1.917,1.917,0,0,1,2.023-2.159h4a1.966,1.966,0,0,1,2.065,1.989c.193,1.849.768,2.726,3.46,2.726h8.8c3.316,0,3.679-.805,3.679-2.515,0-1.615-.284-2.246-3.3-2.469l-10.021-.764a22.709,22.709,0,0,1-4.277-.692l.253-1.857h23.982l.272.476a10.633,10.633,0,0,1,1.18,5.351c0,6.954-3.834,10.331-11.726,10.331ZM76.5,211.983a.616.616,0,0,0,0,.155c.3,6.054,3.188,8.633,9.658,8.633H95c6.894,0,9.836-2.526,9.836-8.44a9.565,9.565,0,0,0-.692-3.937H98.082c1.55.544,2.447,1.637,2.447,3.891,0,3.868-2.677,4.405-5.57,4.405h-8.8c-3.422,0-5.018-1.327-5.343-4.439v-.038a.643.643,0,0,0-.049-.227,1.225,1.225,0,0,0-.136-.008h-4a.791.791,0,0,0-.129.011Z" transform="translate(-74.598 -206.5)" fill="#fff"/></g><g transform="translate(65.675 79.953)"><path d="M169.63,222.148a1.018,1.018,0,0,0,1.123,1.123H174.7a1.018,1.018,0,0,0,1.123-1.123V209h-6.2Z" transform="translate(-168.685 -208.055)" fill="#fff"/><path d="M173.15,222.662H169.2a1.959,1.959,0,0,1-2.068-2.068V206.5h8.089v14.094A1.959,1.959,0,0,1,173.15,222.662Zm-4.1-1.9c.019,0,.068.008.144.008h3.952a.478.478,0,0,0,.174-.023c-.011,0,0-.049,0-.155v-12.2h-4.307v12.2a.479.479,0,0,0,.023.174s0,0,.008,0Zm-.008.008h0Z" transform="translate(-167.13 -206.5)" fill="#fff"/></g><g transform="translate(77.533 79.953)"><path d="M200.99,222.148a1.018,1.018,0,0,0,1.123,1.123H225.6a1.018,1.018,0,0,0,1.123-1.123V218.42A1.018,1.018,0,0,0,225.6,217.3h-18.37V209H200.99v13.148Z" transform="translate(-200.045 -208.055)" fill="#fff"/><path d="M224.049,222.662H200.558a1.959,1.959,0,0,1-2.068-2.068V206.5h8.134v8.3h17.425a1.959,1.959,0,0,1,2.068,2.068v3.729A1.959,1.959,0,0,1,224.049,222.662Zm-23.634-1.9c.019,0,.068.008.144.008h23.491a.478.478,0,0,0,.174-.023c-.011,0,0-.049,0-.155v-3.729a.48.48,0,0,0-.023-.174c0,.011-.049,0-.155,0H204.733v-8.3h-4.352v12.2a.478.478,0,0,0,.023.174s0,0,.008,0Zm-.008.008h0Z" transform="translate(-198.49 -206.5)" fill="#fff"/></g><g transform="translate(105.789 79.953)"><path d="M287.2,216.71,283.739,209H277.08l6.035,13.417a1.309,1.309,0,0,0,1.3.855H289.9a1.3,1.3,0,0,0,1.3-.855L297.213,209h-6.591l-3.422,7.71Z" transform="translate(-275.617 -208.055)" fill="#fff"/><path d="M287.489,222.662H282.01a2.25,2.25,0,0,1-2.159-1.4L273.21,206.5h8.731l2.847,6.338L287.6,206.5h8.667l-6.614,14.748a2.259,2.259,0,0,1-2.167,1.41Zm-11.356-14.271,5.434,12.082c.125.272.216.295.443.295h5.479c.227,0,.314-.027.442-.3l5.415-12.074h-4.515l-4.031,9.087-4.08-9.087h-4.583Z" transform="translate(-273.21 -206.5)" fill="#fff"/></g><g transform="translate(137.088 79.953)"><path d="M358.48,222.148a1.018,1.018,0,0,0,1.123,1.123h24.568a1.018,1.018,0,0,0,1.123-1.123V218.42a1.018,1.018,0,0,0-1.123-1.123H364.678v-7.321H377.3a1,1,0,0,0,1.112-.976H358.48Z" transform="translate(-357.535 -208.055)" fill="#fff"/><path d="M382.617,222.662H358.049a1.959,1.959,0,0,1-2.069-2.068V206.5h21.906l-.091,1.029a1.939,1.939,0,0,1-2.053,1.838H364.065v5.43h18.548a1.959,1.959,0,0,1,2.068,2.068v3.729a1.959,1.959,0,0,1-2.068,2.068Zm-24.712-1.9c.019,0,.068.008.144.008h24.568a.478.478,0,0,0,.174-.023c-.011,0,0-.049,0-.155v-3.729a.479.479,0,0,0-.023-.174c0,.011-.049,0-.155,0H362.178v-8.3h-4.307v12.2a.479.479,0,0,0,.023.174s0,0,.008,0Zm-.008.008h0Z" transform="translate(-355.98 -206.5)" fill="#fff"/></g><g transform="translate(168.395 79.949)"><path d="M458.2,209.03h-10.69V209H441.27v13.148a1.018,1.018,0,0,0,1.123,1.123h4a1.018,1.018,0,0,0,1.123-1.123v-7.185h11.049l4.9,7.589a1.483,1.483,0,0,0,1.346.718h4.67c.9,0,1.259-.582.719-1.346l-5.343-7.589A8.192,8.192,0,0,0,470.629,209H459.644c-.45.023-.93.03-1.441.03Z" transform="translate(-440.325 -208.051)" fill="#fff"/><path d="M467.921,222.656h-4.67a2.424,2.424,0,0,1-2.144-1.157l-4.613-7.155H446.9v6.239a1.959,1.959,0,0,1-2.069,2.068h-4a1.959,1.959,0,0,1-2.068-2.068V206.49H446.9v.03h9.745c.511,0,.968-.011,1.4-.03h12.369l-.45,1.263a9.009,9.009,0,0,1-5.181,5.483l4.632,6.576a1.83,1.83,0,0,1,.253,1.925,1.863,1.863,0,0,1-1.747.915Zm-22.908-10.2h12.509l5.173,8.024a.558.558,0,0,0,.552.287h4.515l-6-8.523,1.259-.374a7.3,7.3,0,0,0,4.594-3.479h-9.507c-.45.023-.93.03-1.464.03H445.009v-.03h-4.352v12.2a.479.479,0,0,0,.023.174c0-.011.049,0,.155,0h4a.479.479,0,0,0,.174-.023c-.011,0,0-.049,0-.155v-8.13Z" transform="translate(-438.77 -206.49)" fill="#fff"/></g><g transform="translate(210.271 79.953)"><path d="M552.02,222.148a1.018,1.018,0,0,0,1.123,1.123h23.49a1.018,1.018,0,0,0,1.123-1.123V218.42a1.018,1.018,0,0,0-1.123-1.123h-18.37V209H552.02v13.148Z" transform="translate(-551.071 -208.055)" fill="#fff"/><path d="M575.069,222.662h-23.49a1.959,1.959,0,0,1-2.068-2.068V206.5h8.134v8.3h17.425a1.959,1.959,0,0,1,2.068,2.068v3.729a1.959,1.959,0,0,1-2.068,2.068Zm-23.634-1.9c.019,0,.068.008.144.008h23.49a.479.479,0,0,0,.174-.023s0-.045,0-.155v-3.729a.474.474,0,0,0-.023-.174c0,.011-.049,0-.155,0H555.753v-8.3H551.4v12.2a.477.477,0,0,0,.023.174s0,0,.008,0Zm-.008.008Z" transform="translate(-549.51 -206.5)" fill="#fff"/></g><g transform="translate(240.437 79.953)"><path d="M656.643,212.668H643.17L644.875,209H638.2l-6.258,12.967c-.359.764,0,1.3.855,1.3h4.538a1.427,1.427,0,0,0,1.346-.855l2.156-4.625h18.147l2.11,4.625a1.367,1.367,0,0,0,1.346.855h4.538c.855,0,1.214-.541.855-1.3L661.6,209h-6.629l1.683,3.668Z" transform="translate(-630.851 -208.055)" fill="#fff"/><path d="M665.406,222.662h-4.538a2.311,2.311,0,0,1-2.2-1.4l-1.861-4.076H639.866l-1.9,4.08a2.367,2.367,0,0,1-2.2,1.4h-4.538a1.875,1.875,0,0,1-1.687-.813,1.839,1.839,0,0,1-.023-1.838l6.519-13.511h8.75l-1.705,3.668H653.6l-1.683-3.668h8.7l6.5,13.5a1.846,1.846,0,0,1-.019,1.845,1.874,1.874,0,0,1-1.687.813Zm-26.742-7.37h19.357l2.363,5.181a.436.436,0,0,0,.488.3h4.511l-5.956-12.381h-4.56l1.683,3.668H640.12l1.705-3.668h-4.6l-5.975,12.381h4.511a.5.5,0,0,0,.5-.329l2.4-5.15Z" transform="translate(-629.283 -206.5)" fill="#fff"/></g><g transform="translate(30.915 97.956)"><path d="M89.145,272.214c3.823-.488,5.593-.624,9.166-.908,2.689-.2,1.131-.8,2.692-4.25,1.615-3.573-1.18-4.746-4.621-4.746H87.519c-2.934,0-2.726,1.358-4.447,4.931-.446.987-.768,1.539-1.486,1.539h-4c-.718,0-1.184-.7-.692-1.6,1.785-3.275,1.607-5.755-1.687-7.249,2.329-4.636,8.081-5.816,11.9-5.816h8.849c3.547-.231,13.655,8.2,11.284,12.88-1.32,2.609,1.947,4.073.269,7.393-7.552-.268-15.1-.518-22.651-.654a9.881,9.881,0,0,1,4.288-1.52Z" transform="translate(-75.21 -254.108)" fill="url(#a)"/><path d="M167.827,255.669c.662-.987,1-1.539,1.721-1.539H173.5c.718,0,1.187.556.56,1.539q-2.779,5.973,2.167,9.019-3.12,4.617-.371,10.059c-2.356-.053-3.532-.087-5.888-.163q-3.148-5.207.019-9.9-5.088-3.018-2.163-9.019Z" transform="translate(-132.138 -254.122)" fill="url(#b)"/><path d="M199.581,255.669c.6-.987.938-1.539,1.656-1.539h23.491c.719,0,1.18.556.681,1.539-1.036,2.046-2.541,3.07-.348,5.116,1.059.987,1.331,1.539.609,1.539H207.177c.953,4.818-1.895,7.642-.159,12.551-2.386.008-3.577,0-5.952-.026q-2.377-5.6.688-10.157-4.816-3.074-2.174-9.019Z" transform="translate(-151.968 -254.122)" fill="url(#c)"/><path d="M290.392,263.126c1.282,4.231-3.691,6.2-5.048,10.195-2.689.182-4.05.348-6.693.59a15.662,15.662,0,0,1,4.821-9.4q-3.863-4.98.93-9.2c.609-.8.945-1.172,1.573-1.172h5.479a.962.962,0,0,1,1.029,1.172q-.573,7.289,5.1,9.2a9,9,0,0,0,1.32,8.448c-2.647-.019-3.971-.015-6.621.053-1.46-3.589,2.148-5.646-1.887-9.877Z" transform="translate(-201.72 -254.122)" fill="url(#d)"/><path d="M357.347,255.669c.556-.987.9-1.539,1.618-1.539h24.568c.719,0,1.18.556.529,1.539-1.342,2.046-3.131,3.07-.605,5.116,1.218.987,1.588,1.539.874,1.539H364.913c4.439,4.02-.885,6.047-.768,9.907q6.3.238,12.6.458c.666.023,1.066.563,1.138,1.505-6.633-.3-13.262-.666-19.894-.964a10.324,10.324,0,0,1,1.619-8.542q-4.7-3.069-2.261-9.019Z" transform="translate(-250.138 -254.122)" fill="url(#e)"/><path d="M457.065,273.755c-3.539.355-7.105.56-10.652.635v.049c-2.488.064-3.732.072-6.217.061a12.513,12.513,0,0,1,1.7-9.8q-5.252-2.887-2.367-9.019c.658-.987,1.01-1.539,1.728-1.539h4c.719,0,1.18.556.507,1.539-2.7,3.944,4.046,5.918,2.027,9.862h11.049c4.092-4.167-.93-6.251,3.207-10.414.669-.677,1.04-.987,1.622-.987h4.67c.9,0,1.218.8-.14,1.849-5.385,4.167.8,6.19-3.6,10.4a11.73,11.73,0,0,1,5.113,6.55c-3.729.1-7.472.333-11.193.718-.461.015-.942.053-1.452.1Z" transform="translate(-301.125 -254.128)" fill="url(#f)"/><path d="M560.846,255.669c.753-.987,1.074-1.539,1.792-1.539h23.49c.718,0,1.2.556.359,1.539-1.743,2.046-3.759,3.108-1.048,5.06,1.309.942,1.558,1.5.851,1.5l-18.041.034c4.931,4.56-.461,6.863-.095,10.981-2.5-.11-3.751-.159-6.258-.242a12.5,12.5,0,0,1,.722-8.395Q557.809,261.4,560.846,255.669Z" transform="translate(-376.473 -254.122)" fill="url(#c)"/><path d="M658.766,268.673H645.288c.786,2.053,1.127,3.316,1.86,5.51-2.632.061-3.952.064-6.591.045q-1.787-4.725-3.347-9.6-4.311-2.524-4.133-8.7c.605-1.047.987-1.789,1.842-1.789h4.538c.628,0,1.138.431.862,1.172-1.017,2.537-2.231,3.789,1.906,6.239,6.05-.011,12.1-.038,18.147-.015-2.454-2.435-.408-3.683,2.348-6.224.873-.8,1.214-1.172,1.841-1.172H669.1c.855,0,1.184.741-.155,1.789-3.173,5.623-2.42,10.932-5.237,17.319-2.647.14-3.971.227-6.618.435.673-2.05,1.1-2.938,1.679-5Z" transform="translate(-422.117 -254.122)" fill="url(#h)"/><path d="M735.358,255.669c.847-.987,1.18-1.539,1.9-1.539h4c.718,0,1.191.556.371,1.539-1.051,5.729,1.641,9.987.737,15.686,2.371-.008,3.558-.008,5.929,0a38.658,38.658,0,0,1,6.674-7.93q-4.7-6.37,3.615-8.433c.669-.616,1.04-.862,1.622-.862h4.9c.942,0,1.184.862-.272,1.91q-4.147,2.967-3.226,8.712a54.359,54.359,0,0,0-6.735,8.119c-6.251-.11-12.5-.117-18.756.011q-.023-4.186.129-8.372-4.112-3.71-.885-8.837Z" transform="translate(-484.839 -254.122)" fill="url(#i)"/><path d="M846.3,272.337c.665.008,1.059.488,1.112,1.335-6.648-.1-13.3-.265-19.94-.442a10.737,10.737,0,0,1,1.925-8.61q-5.094-2.8-2.515-8.939c.677-.987,1.006-1.539,1.724-1.539h24.568c.719,0,1.18.556.59,1.539-1.229,2.046-3.233,3.071-.174,5.116,1.475.987,2.016,1.539,1.3,1.539q-9.858-.017-19.72-.038c5.305,4.023-1.49,6.1-1.494,9.851q6.313.113,12.626.193Z" transform="translate(-542.101 -254.128)" fill="url(#j)"/></g><g transform="translate(30.866 68.661)"><path d="M77.58,181.3a11.556,11.556,0,0,0,.537,3.789v-7.68A12.654,12.654,0,0,0,77.58,181.3Z" transform="translate(-76.635 -177.119)"/><path d="M75.67,184.921a12.438,12.438,0,0,1-.59-4.1,13.414,13.414,0,0,1,.582-4.182l1.845.291v7.68Z" transform="translate(-75.08 -176.64)" fill="#fff"/></g><g transform="translate(31.403 62.513)"><path d="M98.8,176.393l-10.017-.764c-3.01-.223-4.179-.855-4.179-3.324,0-2.651,1.214-3.46,4.67-3.46h8.13c2.874,0,4.088.987,4.356,3.592a1.039,1.039,0,0,0,1.123,1.123h4.042a.983.983,0,0,0,1.078-1.168c-.314-6.334-3.5-9.522-10.6-9.522H89.189c-5.933,0-9.045,1.917-10.2,5.494v7.68c.76,2.2,2.371,3.524,5.022,4.266h23.43c-1.38-2.416-4.156-3.566-8.644-3.921Z" transform="translate(-78.048 -161.928)"/><path d="M107.527,179.711H82.339l-.125-.034c-3-.839-4.8-2.386-5.661-4.867l-.053-.151v-7.986l.045-.14c1.335-4.141,4.965-6.152,11.1-6.152h8.221c7.419,0,11.2,3.407,11.545,10.422a1.917,1.917,0,0,1-2.023,2.159h-4.042a1.967,1.967,0,0,1-2.065-1.989c-.219-2.091-1.021-2.726-3.415-2.726h-8.13c-3.373,0-3.725.764-3.725,2.515,0,1.581.272,2.155,3.3,2.382l10.021.764c4.984.393,7.881,1.747,9.389,4.394l.805,1.414ZM82.6,177.82h21.286c-1.38-1.138-3.536-1.781-6.7-2.034l-10.013-.764c-2.556-.189-5.052-.677-5.052-4.266s2.246-4.405,5.616-4.405h8.13c3.347,0,4.98,1.369,5.3,4.439v.038a.8.8,0,0,0,.045.227,1.22,1.22,0,0,0,.136.008h4.042a.793.793,0,0,0,.129-.011.616.616,0,0,0,0-.155c-.295-5.971-3.275-8.633-9.658-8.633H87.64c-6.784,0-8.55,2.643-9.253,4.7v7.363c.654,1.751,1.963,2.832,4.209,3.483Z" transform="translate(-76.5 -160.38)" fill="#fff"/></g><g transform="translate(65.675 62.513)"><path d="M174.7,162.88h-3.952A1.018,1.018,0,0,0,169.63,164V180.32h6.2V164A1.018,1.018,0,0,0,174.7,162.88Z" transform="translate(-168.685 -161.935)"/><path d="M175.219,179.711H167.13V162.448a1.959,1.959,0,0,1,2.068-2.068h3.952a1.959,1.959,0,0,1,2.068,2.068Zm-6.2-1.891h4.307V162.448a.479.479,0,0,0-.023-.174c0,.011-.049,0-.155,0H169.2a.479.479,0,0,0-.174.023,1.172,1.172,0,0,1,0,.155Z" transform="translate(-167.13 -160.38)" fill="#fff"/></g><g transform="translate(77.533 62.513)"><path d="M206.11,162.88h-4A1.018,1.018,0,0,0,200.99,164V180.32h6.243V164A1.018,1.018,0,0,0,206.11,162.88Z" transform="translate(-200.045 -161.935)"/><path d="M206.624,179.711H198.49V162.448a1.959,1.959,0,0,1,2.068-2.068h4a1.959,1.959,0,0,1,2.068,2.068Zm-6.243-1.891h4.352V162.448a.478.478,0,0,0-.023-.174c0,.011-.049,0-.155,0h-4a.479.479,0,0,0-.174.023,1.17,1.17,0,0,1,0,.155Z" transform="translate(-198.49 -160.38)" fill="#fff"/></g><g transform="translate(119.341 62.513)"><path d="M325.871,162.88H321.56a1.3,1.3,0,0,0-1.3.855L312.9,180.32h6.591l7.234-16.136c.359-.809,0-1.3-.855-1.3Z" transform="translate(-311.444 -161.935)"/><path d="M317.706,179.711H309.05L317,161.794a2.257,2.257,0,0,1,2.167-1.414h4.311a1.752,1.752,0,0,1,1.717,2.632Zm-5.752-1.891h4.526l6.973-15.549h-4.288c-.238,0-.321.038-.442.3l-6.761,15.247Z" transform="translate(-309.05 -160.38)" fill="#fff"/></g><g transform="translate(98.909 62.513)"><path d="M264.129,163.735a1.309,1.309,0,0,0-1.3-.855h-4.311c-.855,0-1.214.5-.855,1.3l7.26,16.136h6.659l-7.45-16.586Z" transform="translate(-256.576 -161.935)"/><path d="M271.479,179.711h-8.731l-7.51-16.7a1.751,1.751,0,0,1,1.713-2.636h4.311a2.25,2.25,0,0,1,2.159,1.4v.008l8.051,17.92Zm-7.506-1.891h4.587l-6.848-15.251c-.121-.261-.2-.3-.442-.3H256.98l7,15.549Z" transform="translate(-255.017 -160.38)" fill="#fff"/></g><g transform="translate(137.088 62.513)"><path d="M378.424,176.894a1.018,1.018,0,0,0-1.123-1.123H364.678v-6.916h19.493a1.018,1.018,0,0,0,1.123-1.123V164a1.018,1.018,0,0,0-1.123-1.123H359.6A1.018,1.018,0,0,0,358.48,164V180.32h19.932c0-.049.011-.095.011-.147v-3.279Z" transform="translate(-357.535 -161.935)"/><path d="M376.858,179.711H355.98V162.448a1.959,1.959,0,0,1,2.069-2.068h24.568a1.959,1.959,0,0,1,2.069,2.068v3.729a1.959,1.959,0,0,1-2.069,2.068H364.069v5.026h11.677a1.959,1.959,0,0,1,2.069,2.068v3.279a1.748,1.748,0,0,1-.011.2l-.076.862-.87.026Zm-18.987-1.891H375.92V175.34a.48.48,0,0,0-.023-.174c0,.011-.053,0-.155,0H362.174v-8.807h20.439a.479.479,0,0,0,.174-.023c-.015.008,0-.049,0-.155v-3.729a.477.477,0,0,0-.023-.174c0,.011-.049,0-.155,0H358.045a.479.479,0,0,0-.174.023,1.163,1.163,0,0,1,0,.155V177.82Z" transform="translate(-355.98 -160.38)" fill="#fff"/></g><g transform="translate(168.395 62.513)"><path d="M471.408,174.334c0-7.589-3.5-11.454-12.709-11.454H442.393A1.018,1.018,0,0,0,441.27,164V180.32h6.243V168.855H458.2c4.9,0,6.916.855,6.916,5.525v.582c0,4.1-1.687,5.173-5.476,5.358h10.985a15.869,15.869,0,0,0,.779-5.313Z" transform="translate(-440.325 -161.935)"/><path d="M469.74,179.711H458.09l-.045-1.891c3.592-.174,4.576-1.123,4.576-4.413v-.582c0-3.725-1.116-4.579-5.971-4.579H446.9v11.465H438.77V162.448a1.959,1.959,0,0,1,2.068-2.068h16.306c9.318,0,13.655,3.94,13.655,12.4v.673a16.638,16.638,0,0,1-.836,5.631l-.223.628Zm-6.451-1.891h5.094a15.971,15.971,0,0,0,.526-4.368v-.673c0-7.465-3.407-10.509-11.764-10.509H440.839a.479.479,0,0,0-.174.023,1.2,1.2,0,0,1,0,.155V177.82h4.352V166.355h11.636c5.1,0,7.862,1.032,7.862,6.47v.582A6.722,6.722,0,0,1,463.289,177.82Z" transform="translate(-438.77 -160.38)" fill="#fff"/></g><g transform="translate(210.274 62.513)"><path d="M557.14,162.88h-4A1.018,1.018,0,0,0,552.02,164V180.32h6.243V164a1.018,1.018,0,0,0-1.123-1.123Z" transform="translate(-551.075 -161.935)"/><path d="M557.654,179.711H549.52V162.448a1.959,1.959,0,0,1,2.068-2.068h4a1.959,1.959,0,0,1,2.068,2.068Zm-6.243-1.891h4.352V162.448a.482.482,0,0,0-.023-.174c0,.011-.049,0-.155,0h-4a.479.479,0,0,0-.174.023,1.169,1.169,0,0,1,0,.155Z" transform="translate(-549.52 -160.38)" fill="#fff"/></g><g transform="translate(246.274 62.513)"><path d="M662.806,162.88h-4.761a1.327,1.327,0,0,0-1.3.809L648.72,180.32h6.674l5.078-10.928,5.01,10.928h6.629l-8-16.631a1.327,1.327,0,0,0-1.3-.809Z" transform="translate(-647.207 -161.935)"/><path d="M671.122,179.711h-8.739l-4.409-9.616-4.47,9.616H644.72l8.678-17.988a2.284,2.284,0,0,1,2.155-1.342h4.761a2.278,2.278,0,0,1,2.148,1.331l8.66,18ZM663.6,177.82h4.519l-7.347-15.277a.4.4,0,0,0-.45-.272h-4.761a.409.409,0,0,0-.458.284l-7.366,15.262H652.3l5.687-12.237,5.612,12.237Z" transform="translate(-644.72 -160.38)" fill="#fff"/></g><g transform="translate(280.682 62.513)"><g transform="translate(0 17.444)"><path d="M738.2,222.148a1.018,1.018,0,0,0,1.123,1.123h4a1.018,1.018,0,0,0,1.123-1.123V210.29h5.929l10.509,12.35a1.642,1.642,0,0,0,1.392.628h4.9c.942,0,1.259-.628.628-1.392L756.956,209H738.2v13.148Z" transform="translate(-737.258 -208.058)" fill="#fff"/><path d="M765.625,222.668h-4.9a2.6,2.6,0,0,1-2.129-.983l-10.21-11.995h-4.545V220.6a1.959,1.959,0,0,1-2.068,2.068h-4a1.959,1.959,0,0,1-2.068-2.068V206.51h20.14l11.129,13.212a1.694,1.694,0,0,1-1.354,2.946ZM749.777,208.4l10.282,12.082a.717.717,0,0,0,.673.295H765.4l-10.425-12.381h-5.2Zm-12.142,12.369c.019,0,.068.008.144.008h4a.479.479,0,0,0,.174-.023c-.011,0,0-.053,0-.155v-12.2H737.6v12.2a.48.48,0,0,0,.023.174s0,0,.008,0Zm-.008.008Z" transform="translate(-735.71 -206.51)" fill="#fff"/></g><path d="M767.808,164.272c.628-.764.314-1.392-.628-1.392h-4.9a1.642,1.642,0,0,0-1.392.628L750.383,176.04h-5.93V164a1.018,1.018,0,0,0-1.123-1.123h-4A1.018,1.018,0,0,0,738.21,164V180.32h18.756l-1.373-1.63,12.218-14.419Z" transform="translate(-737.265 -161.935)"/><path d="M757.442,179.711H735.71V162.448a1.959,1.959,0,0,1,2.068-2.068h4a1.959,1.959,0,0,1,2.068,2.068V173.54h4.542l10.225-12.191a2.585,2.585,0,0,1,2.118-.968h4.9a1.692,1.692,0,0,1,1.357,2.938l-.008.011-11.7,13.81,2.167,2.575ZM737.6,177.82h15.776l-.579-.688,12.592-14.861h-4.663a.7.7,0,0,0-.654.272L749.266,175.43h-7.313V162.448a.475.475,0,0,0-.023-.174c0,.011-.049,0-.155,0h-4a.478.478,0,0,0-.174.023,1.2,1.2,0,0,1,0,.155V177.82Z" transform="translate(-735.71 -160.38)" fill="#fff"/></g><g transform="translate(314.772 62.513)"><g transform="translate(0 17.44)"><path d="M847.181,209.976a1,1,0,0,0,1.112-.976H828.36v13.148a1.018,1.018,0,0,0,1.123,1.123h24.568a1.018,1.018,0,0,0,1.123-1.123V218.42a1.018,1.018,0,0,0-1.123-1.123H834.558v-7.321H847.18Z" transform="translate(-827.415 -208.055)" fill="#fff"/><path d="M852.5,222.662H827.928a1.959,1.959,0,0,1-2.068-2.068V206.5h21.906l-.091,1.029a1.937,1.937,0,0,1-2.053,1.838H833.945v5.43h18.548a1.959,1.959,0,0,1,2.068,2.068v3.729a1.959,1.959,0,0,1-2.068,2.068Zm-24.712-1.9c.019,0,.068.008.144.008H852.5a.478.478,0,0,0,.174-.023c-.011,0,0-.053,0-.155v-3.729a.475.475,0,0,0-.023-.174c0,.011-.049,0-.155,0H832.058v-8.3h-4.307v12.2a.479.479,0,0,0,.023.174s0,0,.008,0Z" transform="translate(-825.86 -206.5)" fill="#fff"/></g><path d="M848.3,180.173v-3.279a1.018,1.018,0,0,0-1.123-1.123H834.558v-6.916h19.494a1.018,1.018,0,0,0,1.123-1.123V164a1.018,1.018,0,0,0-1.123-1.123H829.483A1.018,1.018,0,0,0,828.36,164V180.32h19.932C848.3,180.271,848.3,180.226,848.3,180.173Z" transform="translate(-827.415 -161.935)"/><path d="M846.737,179.711H825.86V162.448a1.959,1.959,0,0,1,2.068-2.068H852.5a1.959,1.959,0,0,1,2.068,2.068v3.729a1.959,1.959,0,0,1-2.068,2.068H833.949v5.026h11.677a1.959,1.959,0,0,1,2.068,2.068v3.279a1.835,1.835,0,0,1-.011.208l-.087.847-.855.038Zm-18.987-1.891H845.8V175.34a.474.474,0,0,0-.023-.174c.008.011-.049,0-.155,0H832.058v-8.807H852.5a.479.479,0,0,0,.174-.023c-.011,0,0-.053,0-.155v-3.729a.478.478,0,0,0-.023-.174c0,.011-.049,0-.155,0H827.928a.482.482,0,0,0-.174.023,1.131,1.131,0,0,1,0,.155Z" transform="translate(-825.86 -160.38)" fill="#fff"/></g></g></svg>