<svg xmlns="http://www.w3.org/2000/svg" xmlns:xlink="http://www.w3.org/1999/xlink" width="76" height="61" viewBox="0 0 76 61"><defs><filter id="a" x="0" y="0" width="76" height="61" filterUnits="userSpaceOnUse"><feOffset input="SourceAlpha"/><feGaussianBlur stdDeviation="3" result="b"/><feFlood flood-color="#00ffd5"/><feComposite operator="in" in2="b"/><feComposite in="SourceGraphic"/></filter><filter id="c" x="11.74" y="12.003" width="52.52" height="22" filterUnits="userSpaceOnUse"><feOffset input="SourceAlpha"/><feGaussianBlur stdDeviation="3" result="d"/><feFlood flood-color="#00ffd5"/><feComposite operator="in" in2="d"/><feComposite in="SourceGraphic"/></filter><filter id="e" x="11.74" y="20" width="52.52" height="22" filterUnits="userSpaceOnUse"><feOffset input="SourceAlpha"/><feGaussianBlur stdDeviation="3" result="f"/><feFlood flood-color="#00ffd5"/><feComposite operator="in" in2="f"/><feComposite in="SourceGraphic"/></filter><filter id="g" x="11.74" y="27.997" width="52.52" height="22" filterUnits="userSpaceOnUse"><feOffset input="SourceAlpha"/><feGaussianBlur stdDeviation="3" result="h"/><feFlood flood-color="#00ffd5"/><feComposite operator="in" in2="h"/><feComposite in="SourceGraphic"/></filter></defs><g transform="translate(-319 -252)"><g transform="matrix(1, 0, 0, 1, 319, 252)" filter="url(#a)"><g transform="translate(9 9)" fill="none"><path d="M0,0H58V43H0Z" stroke="none"/><path d="M 2 2 L 2 41 L 56 41 L 56 2 L 2 2 M 0 0 L 58 0 L 58 43 L 0 43 L 0 0 Z" stroke="none" fill="#00ffd5"/></g></g><g transform="translate(-0.76 -3.701)"><g transform="matrix(1, 0, 0, 1, 319.76, 255.7)" filter="url(#c)"><line x2="34.52" transform="translate(20.74 23)" fill="none" stroke="#00ffd5" stroke-width="4"/></g><g transform="matrix(1, 0, 0, 1, 319.76, 255.7)" filter="url(#e)"><line x2="34.52" transform="translate(20.74 31)" fill="none" stroke="#00ffd5" stroke-width="4"/></g><g transform="matrix(1, 0, 0, 1, 319.76, 255.7)" filter="url(#g)"><line x2="34.52" transform="translate(20.74 39)" fill="none" stroke="#00ffd5" stroke-width="4"/></g></g></g></svg>