<svg xmlns="http://www.w3.org/2000/svg" xmlns:xlink="http://www.w3.org/1999/xlink" width="157" height="157" viewBox="0 0 157 157"><defs><filter id="a" x="0" y="0" width="157" height="157" filterUnits="userSpaceOnUse"><feOffset input="SourceAlpha"/><feGaussianBlur stdDeviation="5" result="b"/><feFlood flood-color="#8000ff"/><feComposite operator="in" in2="b"/><feComposite in="SourceGraphic"/></filter><filter id="c" x="52.656" y="73.541" width="51.688" height="61.917" filterUnits="userSpaceOnUse"><feOffset input="SourceAlpha"/><feGaussianBlur stdDeviation="3" result="d"/><feFlood flood-color="#8000ff"/><feComposite operator="in" in2="d"/><feComposite in="SourceGraphic"/></filter><filter id="e" x="8" y="42.041" width="141" height="53" filterUnits="userSpaceOnUse"><feOffset input="SourceAlpha"/><feGaussianBlur stdDeviation="3" result="f"/><feFlood flood-color="#8000ff"/><feComposite operator="in" in2="f"/><feComposite in="SourceGraphic"/></filter></defs><g transform="translate(-1221 -3428)"><g transform="matrix(1, 0, 0, 1, 1221, 3428)" filter="url(#a)"><g transform="translate(15 15)" fill="#281861" stroke="#d3b7ff" stroke-width="3" opacity="0.999"><circle cx="63.5" cy="63.5" r="63.5" stroke="none"/><circle cx="63.5" cy="63.5" r="62" fill="none"/></g></g><g transform="matrix(1, 0, 0, 1, 1221, 3428)" filter="url(#c)"><path d="M6,44.917H36.688M21.344,4V34.688m0,0,8.951-8.951m-8.951,8.951-8.951-8.951" transform="translate(57.16 80.04)" fill="none" stroke="#d3b7ff" stroke-linecap="round" stroke-linejoin="round" stroke-width="3"/></g><g transform="matrix(1, 0, 0, 1, 1221, 3428)" filter="url(#e)"><text transform="translate(19 53.04)" fill="#d3b7ff" stroke="rgba(255,127,88,0)" stroke-width="2" font-size="24" font-family="SourceCodePro-Regular, Source Code Pro"><tspan x="-57.6" y="24">DOWNLOAD</tspan></text></g></g></svg>