<svg xmlns="http://www.w3.org/2000/svg" xmlns:xlink="http://www.w3.org/1999/xlink" width="60" height="60" viewBox="0 0 60 60"><defs><filter id="a" x="0" y="0" width="60" height="60" filterUnits="userSpaceOnUse"><feOffset input="SourceAlpha"/><feGaussianBlur stdDeviation="3" result="b"/><feFlood flood-color="#00ffd5"/><feComposite operator="in" in2="b"/><feComposite in="SourceGraphic"/></filter><filter id="c" x="20" y="12" width="20" height="36" filterUnits="userSpaceOnUse"><feOffset input="SourceAlpha"/><feGaussianBlur stdDeviation="3" result="d"/><feFlood flood-color="#00ffd5"/><feComposite operator="in" in2="d"/><feComposite in="SourceGraphic"/></filter><filter id="e" x="12" y="20" width="36" height="20" filterUnits="userSpaceOnUse"><feOffset input="SourceAlpha"/><feGaussianBlur stdDeviation="3" result="f"/><feFlood flood-color="#00ffd5"/><feComposite operator="in" in2="f"/><feComposite in="SourceGraphic"/></filter></defs><g transform="translate(7 7)"><g transform="matrix(1, 0, 0, 1, -7, -7)" filter="url(#a)"><path d="M43,23A20,20,0,1,1,23,3,20,20,0,0,1,43,23Z" transform="translate(7 7)" fill="none" stroke="#00ffd5" stroke-linecap="round" stroke-linejoin="round" stroke-width="2"/></g><g transform="matrix(1, 0, 0, 1, -7, -7)" filter="url(#c)"><path d="M18,12V28" transform="translate(12 10)" fill="none" stroke="#00ffd5" stroke-linecap="round" stroke-linejoin="round" stroke-width="2"/></g><g transform="matrix(1, 0, 0, 1, -7, -7)" filter="url(#e)"><path d="M12,18H28" transform="translate(10 12)" fill="none" stroke="#00ffd5" stroke-linecap="round" stroke-linejoin="round" stroke-width="2"/></g></g></svg>