<svg xmlns="http://www.w3.org/2000/svg" xmlns:xlink="http://www.w3.org/1999/xlink" width="76.596" height="76.596" viewBox="0 0 76.596 76.596"><defs><filter id="a" x="0" y="0" width="76.596" height="76.596" filterUnits="userSpaceOnUse"><feOffset input="SourceAlpha"/><feGaussianBlur stdDeviation="1.5" result="b"/><feFlood flood-color="#00ffd5"/><feComposite operator="in" in2="b"/><feComposite in="SourceGraphic"/></filter></defs><g transform="matrix(1, 0, 0, 1, 0, 0)" filter="url(#a)"><path d="M32.8,0A32.8,32.8,0,1,1,0,32.8,32.8,32.8,0,0,1,32.8,0Zm8.643,10.933H33.923V40.782A6.386,6.386,0,1,1,29.461,34.7V27.021A13.887,13.887,0,1,0,41.441,40.782V25.513A17.948,17.948,0,0,0,51.93,28.866V21.4A10.377,10.377,0,0,1,46.2,19.679a10.437,10.437,0,0,1-4.6-6.852,10.347,10.347,0,0,1-.159-1.894Z" transform="translate(5.5 5.5)" fill="none" stroke="#00ffd5" stroke-width="2"/></g></svg>