<svg xmlns="http://www.w3.org/2000/svg" xmlns:xlink="http://www.w3.org/1999/xlink" width="74.996" height="75.165" viewBox="0 0 74.996 75.165"><defs><filter id="a" x="0" y="0" width="74.996" height="75.165" filterUnits="userSpaceOnUse"><feOffset input="SourceAlpha"/><feGaussianBlur stdDeviation="1.5" result="b"/><feFlood flood-color="#00ffd5"/><feComposite operator="in" in2="b"/><feComposite in="SourceGraphic"/></filter></defs><g transform="matrix(1, 0, 0, 1, 0, 0)" filter="url(#a)"><path d="M64,32.185A32,32,0,1,0,27.012,64V41.491H18.879V32.185h8.106V25.092c0-8.053,4.8-12.533,12.106-12.533a47.866,47.866,0,0,1,7.146.64v7.92h-4c-4,0-5.226,2.48-5.226,5.04v6.026h8.853l-1.413,9.333H36.985V64A32.111,32.111,0,0,0,64,32.185" transform="translate(5.5 5.5)" fill="none" stroke="#00ffd5" stroke-width="2"/></g></svg>