<svg xmlns="http://www.w3.org/2000/svg" xmlns:xlink="http://www.w3.org/1999/xlink" width="153.455" height="153.455" viewBox="0 0 153.455 153.455"><defs><filter id="a" x="0" y="0" width="153.455" height="153.455" filterUnits="userSpaceOnUse"><feOffset input="SourceAlpha"/><feGaussianBlur stdDeviation="3" result="b"/><feFlood flood-color="#00ffd5"/><feComposite operator="in" in2="b"/><feComposite in="SourceGraphic"/></filter></defs><g transform="matrix(1, 0, 0, 1, 0, 0)" filter="url(#a)"><path d="M66.79.563A66.227,66.227,0,1,0,133.017,66.79,66.237,66.237,0,0,0,66.79.563Zm0,29.375A11.216,11.216,0,1,1,55.574,41.153,11.216,11.216,0,0,1,66.79,29.938Zm14.955,67.83a3.2,3.2,0,0,1-3.2,3.2H55.04a3.2,3.2,0,0,1-3.2-3.2V91.358a3.2,3.2,0,0,1,3.2-3.2h3.2V71.063h-3.2a3.2,3.2,0,0,1-3.2-3.2V61.449a3.2,3.2,0,0,1,3.2-3.2H72.131a3.2,3.2,0,0,1,3.2,3.2v26.7h3.2a3.2,3.2,0,0,1,3.2,3.2Z" transform="translate(9.94 9.94)" fill="none" stroke="#00ffd5" stroke-width="3"/></g></svg>