<svg xmlns="http://www.w3.org/2000/svg" xmlns:xlink="http://www.w3.org/1999/xlink" width="76.196" height="77.796" viewBox="0 0 76.196 77.796"><defs><filter id="a" x="15.002" y="15.584" width="46.192" height="46.627" filterUnits="userSpaceOnUse"><feOffset input="SourceAlpha"/><feGaussianBlur stdDeviation="1.5" result="b"/><feFlood flood-color="#00ffd5"/><feComposite operator="in" in2="b"/><feComposite in="SourceGraphic"/></filter><filter id="c" x="0" y="0" width="76.196" height="77.796" filterUnits="userSpaceOnUse"><feOffset input="SourceAlpha"/><feGaussianBlur stdDeviation="1.5" result="d"/><feFlood flood-color="#00ffd5"/><feComposite operator="in" in2="d"/><feComposite in="SourceGraphic"/></filter></defs><g transform="translate(4.5 4.5)"><g transform="matrix(1, 0, 0, 1, -4.5, -4.5)" filter="url(#a)"><path d="M26.307,0a10.622,10.622,0,0,1,7.87,3.1A10.948,10.948,0,0,1,37.182,11v15.61a10.972,10.972,0,0,1-3.067,8.04,10.987,10.987,0,0,1-7.87,2.962H10.94a10.865,10.865,0,0,1-7.792-2.962A10.977,10.977,0,0,1,0,26.552V11C0,4.391,4.34,0,10.878,0Zm.077,3.5H10.94A7.6,7.6,0,0,0,5.471,5.456,7.606,7.606,0,0,0,3.457,11V26.552a7.7,7.7,0,0,0,2.014,5.611,7.691,7.691,0,0,0,5.469,1.959H26.245a7.691,7.691,0,0,0,5.469-1.959,7.46,7.46,0,0,0,2.169-5.548V11a7.89,7.89,0,0,0-2.014-5.47A7.417,7.417,0,0,0,26.385,3.5ZM18.592,9.03a9.718,9.718,0,1,1-9.6,9.717,9.72,9.72,0,0,1,9.6-9.717Zm0,3.479a6.223,6.223,0,1,0,6.15,6.222,6.218,6.218,0,0,0-6.15-6.222ZM28.569,6.6A2.194,2.194,0,1,1,26.4,8.795,2.182,2.182,0,0,1,28.569,6.6Z" transform="translate(19.51 20.09)" fill="#00ffd5"/></g><g transform="matrix(1, 0, 0, 1, -4.5, -4.5)" filter="url(#c)"><g transform="translate(4.5 4.5)" fill="none" stroke="#00ffd5" stroke-width="2"><ellipse cx="33.598" cy="34.398" rx="33.598" ry="34.398" stroke="none"/><ellipse cx="33.598" cy="34.398" rx="32.598" ry="33.398" fill="none"/></g></g></g></svg>