<svg xmlns="http://www.w3.org/2000/svg" xmlns:xlink="http://www.w3.org/1999/xlink" width="153.455" height="153.455" viewBox="0 0 153.455 153.455"><defs><filter id="a" x="0" y="0" width="153.455" height="153.455" filterUnits="userSpaceOnUse"><feOffset input="SourceAlpha"/><feGaussianBlur stdDeviation="3" result="b"/><feFlood flood-color="#00ffd5"/><feComposite operator="in" in2="b"/><feComposite in="SourceGraphic"/></filter></defs><g transform="matrix(1, 0, 0, 1, 0, 0)" filter="url(#a)"><path d="M66.79,11.244A55.546,55.546,0,1,1,11.244,66.79,55.516,55.516,0,0,1,66.79,11.244m0-10.682A66.227,66.227,0,1,0,133.017,66.79,66.227,66.227,0,0,0,66.79.563Zm0,14.955A51.273,51.273,0,1,0,118.063,66.79,51.367,51.367,0,0,0,66.79,15.517Zm0,11.75a9.614,9.614,0,1,1-9.614,9.614A9.614,9.614,0,0,1,66.79,27.267ZM98.232,53.444A191.136,191.136,0,0,1,76.3,57.665,193.862,193.862,0,0,0,77.425,78.9c1.187,10,3.3,14.537,5.558,20.321a4.807,4.807,0,0,1-8.955,3.5c-2.325-5.957-4.563-10.852-5.945-20.976H65.5c-1.38,10.108-3.614,15.01-5.945,20.976a4.807,4.807,0,1,1-8.955-3.5c3.395-8.69,6.459-14.565,6.686-41.558a191.037,191.037,0,0,1-21.935-4.221,4.273,4.273,0,1,1,1.964-8.317c25.82,6.1,33.189,6.084,58.957,0a4.273,4.273,0,1,1,1.963,8.317Z" transform="translate(9.94 9.94)" fill="none" stroke="#00ffd5" stroke-width="3"/></g></svg>